<svg width="304" height="199" viewBox="0 0 304 199" fill="none" xmlns="http://www.w3.org/2000/svg">
<g clip-path="url(#clip0_1208_1483)">
<path d="M304.04 40.23C304.04 35.23 299.96 31.18 294.93 31.18H93.27C88.24 31.18 84.16 35.23 84.16 40.23V48.92H304.04V40.23Z" fill="white" stroke="black" stroke-miterlimit="10"/>
<path d="M84.16 48.92V189.63C84.16 194.63 88.24 198.68 93.27 198.68H294.92C299.95 198.68 304.03 194.63 304.03 189.63V48.92H84.16Z" fill="white" stroke="black" stroke-miterlimit="10"/>
<path d="M103.04 40.86C103.04 43.45 100.93 45.55 98.32 45.55C95.71 45.55 93.6 43.45 93.6 40.86C93.6 38.27 95.71 36.17 98.32 36.17C100.93 36.17 103.04 38.27 103.04 40.86Z" fill="#040602"/>
<path d="M117.2 40.86C117.2 43.45 115.09 45.55 112.48 45.55C109.87 45.55 107.76 43.45 107.76 40.86C107.76 38.27 109.87 36.17 112.48 36.17C115.09 36.17 117.2 38.27 117.2 40.86Z" fill="#040602"/>
<path d="M131.36 40.86C131.36 43.45 129.25 45.55 126.64 45.55C124.03 45.55 121.92 43.45 121.92 40.86C121.92 38.27 124.03 36.17 126.64 36.17C129.25 36.17 131.36 38.27 131.36 40.86Z" fill="#040602"/>
<path d="M196.701 188.726C232.104 185.946 258.545 154.935 255.759 119.46C252.974 83.9856 222.016 57.4815 186.613 60.2616C151.21 63.0416 124.768 94.0531 127.554 129.528C130.34 165.002 161.298 191.506 196.701 188.726Z" fill="#00D094"/>
<path d="M195.626 174.889C223.42 172.706 244.179 148.361 241.992 120.512C239.805 92.6632 215.501 71.8565 187.707 74.0391C159.913 76.2216 139.155 100.567 141.342 128.416C143.528 156.265 167.833 177.071 195.626 174.889Z" fill="white"/>
<path d="M194.499 161.094C214.68 159.531 229.77 141.868 228.203 121.643C226.636 101.418 209.006 86.2904 188.825 87.8538C168.645 89.4173 153.555 107.08 155.122 127.305C156.689 147.53 174.319 162.658 194.499 161.094Z" fill="#00D094"/>
<path d="M193.432 147.28C206.003 146.304 215.401 135.305 214.423 122.712C213.445 110.119 202.462 100.702 189.891 101.678C177.32 102.654 167.922 113.654 168.9 126.246C169.878 138.839 180.861 148.257 193.432 147.28Z" fill="white"/>
<path d="M182.68 125.18C183.07 130.15 187.4 133.86 192.36 133.47C197.32 133.08 201.02 128.74 200.63 123.77C200.24 118.8 195.91 115.09 190.95 115.48C185.99 115.87 182.29 120.21 182.68 125.18Z" fill="#00D094"/>
<path d="M196.701 188.726C232.104 185.946 258.545 154.935 255.759 119.46C252.974 83.9856 222.016 57.4815 186.613 60.2616C151.21 63.0416 124.768 94.0531 127.554 129.528C130.34 165.002 161.298 191.506 196.701 188.726Z" stroke="black" stroke-miterlimit="10" stroke-linecap="round"/>
<path d="M195.626 174.889C223.42 172.706 244.179 148.361 241.992 120.512C239.805 92.6632 215.501 71.8565 187.707 74.0391C159.913 76.2216 139.155 100.567 141.342 128.416C143.528 156.265 167.833 177.071 195.626 174.889Z" stroke="black" stroke-miterlimit="10" stroke-linecap="round"/>
<path d="M194.499 161.094C214.68 159.531 229.77 141.868 228.203 121.643C226.636 101.418 209.006 86.2904 188.825 87.8538C168.645 89.4173 153.555 107.08 155.122 127.305C156.689 147.53 174.319 162.658 194.499 161.094Z" stroke="black" stroke-miterlimit="10" stroke-linecap="round"/>
<path d="M193.432 147.28C206.003 146.304 215.401 135.305 214.423 122.712C213.445 110.119 202.462 100.702 189.891 101.678C177.32 102.654 167.922 113.654 168.9 126.246C169.878 138.839 180.861 148.257 193.432 147.28Z" stroke="black" stroke-miterlimit="10" stroke-linecap="round"/>
<path d="M182.68 125.18C183.07 130.15 187.4 133.86 192.36 133.47C197.32 133.08 201.02 128.74 200.63 123.77C200.24 118.8 195.91 115.09 190.95 115.48C185.99 115.87 182.29 120.21 182.68 125.18Z" stroke="black" stroke-miterlimit="10" stroke-linecap="round"/>
<path d="M191.66 124.48L256.91 65.66" stroke="black" stroke-miterlimit="10" stroke-linecap="round"/>
<path d="M203.82 124.79L192.58 112.6L188.49 128.44L203.82 124.79Z" fill="black"/>
<path d="M250.78 71.22L259.09 73.74L267.97 66.31L258.25 64.31L250.78 71.22Z" fill="black"/>
<path d="M250.89 71.28L248.97 62.82L257.02 54.49L258.32 64.32L250.89 71.28Z" fill="black"/>
<path d="M103.53 28.82C103.53 26.48 101.62 24.58 99.26 24.58H4.77C2.41 24.58 0.5 26.48 0.5 28.82V32.89H103.53V28.82Z" fill="white" stroke="#1B1711" stroke-linecap="round" stroke-linejoin="round"/>
<path d="M0.5 32.89V122.52C0.5 124.86 2.41 126.76 4.77 126.76H99.26C101.62 126.76 103.53 124.86 103.53 122.52V32.89H0.5Z" fill="white" stroke="#1B1711" stroke-linecap="round" stroke-linejoin="round"/>
<path d="M9.35005 29.11C9.35005 30.32 8.36005 31.31 7.14005 31.31C5.92005 31.31 4.93005 30.33 4.93005 29.11C4.93005 27.89 5.92005 26.91 7.14005 26.91C8.36005 26.91 9.35005 27.89 9.35005 29.11Z" fill="#040602"/>
<path d="M15.9801 29.11C15.9801 30.32 14.9901 31.31 13.7701 31.31C12.5501 31.31 11.5601 30.33 11.5601 29.11C11.5601 27.89 12.5501 26.91 13.7701 26.91C14.9901 26.91 15.9801 27.89 15.9801 29.11Z" fill="#040602"/>
<path d="M22.6201 29.11C22.6201 30.32 21.6301 31.31 20.4101 31.31C19.1901 31.31 18.2001 30.33 18.2001 29.11C18.2001 27.89 19.1901 26.91 20.4101 26.91C21.6301 26.91 22.6201 27.89 22.6201 29.11Z" fill="#040602"/>
<path d="M26.7999 91.36H18.0399V116.73H26.7999V91.36Z" fill="#00D094"/>
<path d="M43.1799 96.76H34.4199V116.72H43.1799V96.76Z" fill="#00D094"/>
<path d="M58.54 73.9H49.78V116.73H58.54V73.9Z" fill="#00D094"/>
<path d="M91.91 67.42H83.15V116.73H91.91V67.42Z" fill="#00D094"/>
<path d="M75.66 85.72H66.9V116.72H75.66V85.72Z" fill="#00D094"/>
<path d="M7.21997 116.73H95.86" stroke="black" stroke-width="1.34" stroke-linecap="round" stroke-linejoin="round"/>
<path d="M11.98 120.83V43.78" stroke="black" stroke-width="1.34" stroke-linecap="round" stroke-linejoin="round"/>
<path d="M12.3099 95.03L22.3499 77.08L38.8199 88.82L53.4999 59.23L71.2599 69.86L83.3199 52.77" stroke="black" stroke-width="1.34" stroke-linecap="round" stroke-linejoin="round"/>
<path d="M77.75 52.55L85.94 57.88L87.53 47.4L77.75 52.55Z" fill="#00D094" stroke="black" stroke-miterlimit="10"/>
<path d="M56.3199 59.47C56.3199 60.66 55.3599 61.62 54.1699 61.62C52.9799 61.62 52.0199 60.66 52.0199 59.47C52.0199 58.28 52.9799 57.32 54.1699 57.32C55.3599 57.32 56.3199 58.28 56.3199 59.47Z" fill="#00D094" stroke="black" stroke-miterlimit="10"/>
<path d="M73.4299 69.57C73.4299 70.76 72.4699 71.72 71.2799 71.72C70.0899 71.72 69.1299 70.76 69.1299 69.57C69.1299 68.38 70.0899 67.42 71.2799 67.42C72.4699 67.42 73.4299 68.38 73.4299 69.57Z" fill="#00D094" stroke="black" stroke-miterlimit="10"/>
<path d="M40.9499 89.21C40.9499 90.4 39.9899 91.36 38.7999 91.36C37.6099 91.36 36.6499 90.4 36.6499 89.21C36.6499 88.02 37.6099 87.06 38.7999 87.06C39.9899 87.06 40.9499 88.02 40.9499 89.21Z" fill="#00D094" stroke="black" stroke-miterlimit="10"/>
<path d="M22.1399 75.26C23.3199 75.09 24.4099 75.91 24.5799 77.08C24.7499 78.26 23.9299 79.35 22.7599 79.52C21.5799 79.69 20.4899 78.87 20.3199 77.7C20.1499 76.52 20.9699 75.43 22.1399 75.26Z" fill="#00D094" stroke="black" stroke-miterlimit="10"/>
</g>
<defs>
<clipPath id="clip0_1208_1483">
<rect width="304" height="199" fill="white"/>
</clipPath>
</defs>
</svg>
