<svg width="202" height="171" viewBox="0 0 202 171" fill="none" xmlns="http://www.w3.org/2000/svg">
<g clip-path="url(#clip0_1208_1884)">
<path d="M117.975 79.0579C117.743 79.0579 117.343 78.9442 116.478 78.6233C116.224 78.5284 116.14 78.2118 116.313 78.0027C116.381 77.9209 117.89 76.474 118.413 75.9708C124.828 69.8921 125.539 69.768 131.047 65.4816C131.298 65.2913 131.319 65.2486 131.29 64.938C130.64 52.7965 127.416 41.6693 128.718 31.9985C128.911 30.5966 129.324 28.3909 130.05 27.169C130.421 26.5517 130.435 26.4098 130.673 26.3661C130.79 26.3454 130.911 26.3759 131.002 26.4544C132.119 27.4119 132.119 28.219 132.387 29.269C132.636 30.2612 133.137 31.058 133.796 31.5137C134.534 32.0145 135.517 32.0337 136.124 31.5583C137.017 30.8635 136.997 29.7078 137.939 24.5898C138.284 22.6349 138.285 21.7061 136.854 20.2155C136.66 20.0135 136.732 19.6804 136.991 19.577C141.971 17.5752 148.031 17.2449 153.013 19.5056C156.189 20.9516 159.091 23.4463 161.638 26.9209C163.698 29.719 164.898 32.8146 166.722 35.6644C171.158 42.5906 173.932 49.7193 175.292 52.2393C176.215 53.948 177.364 56.0753 175.389 57.572C173.642 58.9082 171.711 59.059 169.687 59.5988C164.569 60.9659 156.012 62.9766 150.891 63.608C150.626 63.6423 148.748 64.0849 146.858 64.4541C146.555 64.5204 146.291 64.207 146.42 63.9111C147.779 60.7794 148.923 57.5392 149.823 54.2741C144.485 53.5802 140.832 50.9164 138.897 49.0926C132.567 69.3476 133.028 68.1999 132.827 68.3464C132.683 68.4512 118.465 78.8098 118.263 78.9611C118.185 79.0193 118.108 79.0579 117.974 79.0579H117.975Z" fill="#00D094"/>
<path d="M141.494 166.959L161.537 165.455L161.33 162.693C161.323 162.694 161.309 162.688 161.302 162.682L140.888 164.214C140.639 165.845 141.494 166.959 141.494 166.959Z" fill="black"/>
<path d="M142.656 161.48C142.321 161.455 142.169 161.042 142.412 160.805C143.781 159.472 145.883 158.252 148.662 157.175C148.023 147.991 147.897 148.301 148.104 148.063C148.303 147.836 148.229 147.981 152.852 147.677C153.104 147.644 153.337 147.877 153.271 148.32C153.619 159.211 153.86 159.013 153.501 159.245L149.354 161.927C149.143 162.064 149.36 161.977 142.656 161.48H142.656ZM143.643 160.768L149.038 161.193L152.885 158.705L152.495 148.486L148.821 148.694L149.469 157.409C149.482 157.583 149.379 157.745 149.216 157.807C146.841 158.704 144.972 159.698 143.643 160.768ZM152.877 148.133V148.136L152.886 148.132L152.877 148.133Z" fill="black"/>
<path d="M149.095 152.236H149.079C148.862 152.232 148.687 152.054 148.69 151.836C148.694 151.621 148.869 151.448 149.084 151.448H149.095C149.223 151.448 149.376 151.385 149.537 151.32C150.647 150.866 151.612 151.1 152.768 151.435C152.977 151.496 153.097 151.714 153.036 151.924C152.975 152.132 152.758 152.253 152.548 152.192C151.528 151.895 150.72 151.685 149.835 152.048C149.62 152.137 149.377 152.236 149.095 152.236H149.095Z" fill="black"/>
<path d="M152.607 155.22C151.553 154.659 150.252 154.566 149.127 154.971C148.925 155.042 148.696 154.938 148.624 154.734C148.55 154.53 148.656 154.303 148.86 154.23C150.191 153.751 151.729 153.86 152.976 154.524C153.168 154.627 153.241 154.865 153.139 155.056C153.035 155.252 152.794 155.32 152.606 155.22H152.607Z" fill="black"/>
<path d="M152.371 158.946C151.482 158.369 150.278 158.16 149.22 158.148C149.003 158.146 148.828 157.967 148.831 157.751C148.833 157.535 149.009 157.361 149.224 157.361H149.229C150.432 157.373 151.779 157.622 152.8 158.287C152.982 158.405 153.034 158.649 152.915 158.831C152.796 159.014 152.553 159.065 152.37 158.947L152.371 158.946Z" fill="black"/>
<path d="M184.759 146.299C183.797 143.708 183.581 143.645 183.769 143.346C183.835 143.24 183.949 143.172 184.074 143.163C189.482 142.775 192.103 141.562 193.349 140.613C193.559 140.453 193.86 140.541 193.955 140.783C194.619 142.592 194.774 142.642 194.656 142.906C194.528 143.191 194.811 142.928 185.263 146.523C185.065 146.596 184.839 146.501 184.759 146.298V146.299ZM184.663 143.908L185.35 145.65L193.784 142.515L193.403 141.538C191.992 142.46 189.389 143.509 184.663 143.908Z" fill="black"/>
<path d="M182.663 166.739C182.61 166.702 181.372 165.811 181.115 164.034C180.581 160.591 184.137 157.106 186.856 154.953C183.535 146.375 183.506 146.702 183.632 146.419C183.758 146.132 183.341 146.448 194.937 142.085C195.14 142.01 195.363 142.109 195.442 142.31C202.3 159.893 202.086 158.945 201.962 159.23C201.921 159.326 201.843 159.401 201.745 159.44C181.865 167.233 182.938 166.934 182.663 166.74V166.739ZM184.504 146.808L187.696 154.938C187.76 155.1 187.709 155.286 187.571 155.393C185.053 157.354 181.405 160.763 181.893 163.918C182.053 165.017 182.67 165.7 182.962 165.966L201.091 158.85L194.851 142.958L184.505 146.808H184.504Z" fill="black"/>
<path d="M182.89 166.419L201.598 159.071L200.586 156.494C200.579 156.496 200.564 156.495 200.555 156.491L181.501 163.975C181.744 165.607 182.889 166.419 182.889 166.419H182.89Z" fill="black"/>
<path d="M181.953 160.268C182.867 158.59 184.516 156.804 186.854 154.956C183.532 146.361 183.506 146.7 183.633 146.414C183.755 146.142 183.677 146.318 188.056 144.645C188.308 144.551 188.581 144.706 188.646 145.135C192.193 155.445 192.362 155.178 192.088 155.507C188.781 159.409 188.947 159.367 188.7 159.424L182.384 160.841C182.05 160.913 181.791 160.563 181.952 160.268L181.953 160.268ZM184.506 146.804L187.694 154.942C187.758 155.105 187.707 155.289 187.569 155.396C185.565 156.954 184.072 158.454 183.118 159.869L188.398 158.684L191.34 155.173L187.955 145.522L184.506 146.804L184.506 146.804ZM188.215 145.072L188.216 145.073L188.223 145.068L188.216 145.072H188.215Z" fill="black"/>
<path d="M185.573 149.359C185.698 149.322 185.826 149.216 185.964 149.104C186.886 148.343 187.89 148.279 189.085 148.26C189.59 148.224 189.635 149.038 189.098 149.048C186.399 149.092 186.662 149.857 185.797 150.114C185.294 150.259 185.076 149.505 185.573 149.358V149.359Z" fill="black"/>
<path d="M186.098 152.636C185.967 152.462 186.001 152.215 186.175 152.084C187.305 151.234 188.808 150.888 190.195 151.151C190.408 151.192 190.548 151.399 190.507 151.612C190.466 151.827 190.259 151.965 190.047 151.925C188.873 151.697 187.603 151.995 186.649 152.713C186.475 152.844 186.228 152.809 186.098 152.636Z" fill="black"/>
<path d="M187.45 154.967C188.616 154.62 189.97 154.466 191.136 154.798C191.345 154.858 191.466 155.075 191.407 155.285C191.347 155.494 191.128 155.617 190.92 155.555C189.9 155.267 188.691 155.42 187.674 155.722C187.171 155.867 186.953 155.116 187.45 154.967Z" fill="black"/>
<path d="M182.252 144.053C182.102 144.053 181.963 143.967 181.898 143.831C174.761 129.105 167.732 113.977 164.254 102.461L161.189 138.147C161.118 139.2 161.03 140.51 160.186 141.061C159.734 141.357 159.143 141.376 158.433 141.12C157.667 140.844 157.093 140.281 156.485 139.844C151.474 136.239 143.515 140.561 140.874 139.684C139.164 139.115 137.439 136.196 138.497 132.477C139.14 130.22 140.496 128.449 141.721 126.706C145.982 120.832 144.904 120.427 144.898 115.93C144.889 108.044 142.627 120.62 148.864 67.9114C147.843 66.7017 147.245 64.8206 147.031 64.0468C146.97 63.8274 147.107 63.601 147.334 63.5554C148.511 63.321 150.484 62.8648 150.793 62.8263C157.947 61.944 169.692 58.77 170.905 58.498C172.397 58.1635 173.687 57.8737 174.913 56.9444C175.086 56.8129 175.342 56.8462 175.471 57.0299C175.881 57.6049 185.457 71.5669 182.476 111.568C183.462 112.645 189.723 120.037 195.108 139.524C195.242 140.008 194.224 140.935 193.826 141.24C191.003 143.391 185.812 143.921 182.266 144.053H182.251H182.252ZM182.494 143.256C185.778 143.119 190.731 142.609 193.349 140.614C193.951 140.153 194.214 139.765 194.31 139.592C188.634 119.129 181.858 112.057 181.79 111.988C181.711 111.906 181.67 111.796 181.679 111.683C184.43 75.1393 176.462 60.1625 175.043 57.8192C173.367 58.9382 171.584 59.0914 169.688 59.5988C164.57 60.9659 156.013 62.9766 150.892 63.608C150.713 63.6311 148.858 64.0473 147.91 64.2427C148.855 67.2931 149.726 67.3476 149.668 67.8306C144.794 108.979 145.172 109.802 145.475 112.797C145.801 116.013 145.604 115.07 145.751 117.601C145.946 120.991 145.905 122.282 142.36 127.169C141.21 128.804 139.869 130.539 139.256 132.693C138.32 135.979 139.809 138.5 141.123 138.936C143.397 139.695 151.627 135.38 156.946 139.204C157.556 139.645 158.078 140.154 158.701 140.379C160.339 140.971 160.28 139.459 160.437 137.657L163.652 100.279C163.668 100.089 163.819 99.9386 164.009 99.9207C165.291 99.838 162.548 102.079 182.495 143.256L182.494 143.256Z" fill="black"/>
<path d="M163.657 100.385C161.662 89.9859 159.891 84.2647 158.573 73.1149C158.321 70.9778 158.059 68.7684 157.663 66.6101C157.624 66.3963 157.766 66.1915 157.979 66.1516C158.199 66.1224 158.399 66.2554 158.438 66.4682C158.839 68.65 159.102 70.8726 159.356 73.0224C160.669 84.1444 162.417 89.7383 164.431 100.237C164.472 100.45 164.332 100.657 164.119 100.698C163.9 100.739 163.698 100.596 163.658 100.385H163.657Z" fill="black"/>
<path d="M159.219 79.0231C153.877 76.4265 154.713 74.8485 153.583 62.7027C153.565 62.4857 153.725 62.2959 153.942 62.2776C154.159 62.2691 154.349 62.4199 154.367 62.6365C155.495 74.8677 154.697 75.9478 159.563 78.3156C159.759 78.41 159.84 78.6463 159.745 78.8418C159.647 79.0438 159.404 79.1161 159.218 79.0231H159.219Z" fill="black"/>
<path d="M137.386 51.5957C134.403 45.7768 132.052 39.8986 131.008 36.6171C130.942 36.4104 131.057 36.1886 131.264 36.1224C131.472 36.0575 131.692 36.1708 131.758 36.3784C132.79 39.62 135.117 45.4441 138.086 51.2354C138.185 51.4294 138.108 51.6666 137.915 51.7662C137.724 51.8639 137.485 51.7902 137.385 51.5957H137.386Z" fill="black"/>
<path d="M122.654 25.5378C120.382 24.1585 118.555 21.8875 116.945 19.7743C115.822 18.2987 115.175 17.8049 115.175 15.1162C115.167 13.985 115.121 13.0538 115.674 12.0663C116.139 11.2155 116.866 10.4436 117.775 9.83757C119.797 8.49301 123.381 7.73663 125.29 7.92267C126.978 8.07958 128.667 8.90032 130.066 10.2383C131.72 7.76153 136.252 8.95106 136.28 13.7609V13.7632C136.28 15.6288 135.672 17.959 133.799 18.3884C133.861 21.9194 131.893 25.0149 129.97 26.1467C128.187 27.1436 125.449 27.2338 122.654 25.5383L122.654 25.5378ZM122.233 8.97549C119.915 9.46361 117.505 10.3572 116.363 12.4473C115.905 13.2666 115.955 14.1019 115.963 15.1167C115.963 17.5733 116.539 17.9397 117.571 19.2979C119.109 21.3162 120.895 23.5491 123.062 24.8646C125.57 26.3867 128 26.3106 129.441 25.5312L129.725 25.831L129.533 25.4871C131.479 24.3516 133.24 21.0789 132.998 18.084C132.981 17.8664 133.142 17.6762 133.36 17.6602C133.747 17.6297 134.075 17.4803 134.267 17.3234C135.623 16.2992 136.174 12.2143 134.222 10.4657C133.432 9.74643 131.999 9.47818 131.119 10.228C130.508 10.7321 130.608 11.2178 130.215 11.278C129.963 11.3156 129.862 11.1441 129.665 10.9472C128.366 9.64824 126.786 8.85287 125.215 8.70677C124.218 8.60858 123.216 8.76361 122.233 8.97502V8.97549Z" fill="black"/>
<path d="M129.906 12.0847C129.692 13.0243 129.85 14.1335 130.038 15.0726C129.964 14.7019 128.304 13.7201 127.979 13.3325C127.397 12.6381 127.229 11.8892 126.871 11.1202C125.303 12.3637 124.547 14.2312 122.531 15.0834C120.874 15.7839 118.64 15.4748 117.73 13.923C117.969 15.3874 117.688 17.1411 116.407 17.89C113.636 19.5099 108.49 14.8161 109.536 10.5428C109.78 9.544 110.397 8.5889 111.334 8.16749C112.202 7.77709 113.206 7.88749 114.145 8.04581C112.87 6.565 112.971 4.16574 114.197 2.64312C116.476 -0.190714 121.39 0.0465346 124.187 4.10466C124.073 2.56889 125.159 1.1111 126.56 0.473112C127.961 -0.164875 129.599 -0.0948753 131.082 0.319018C132.183 0.626267 133.306 1.18204 133.835 2.19493C134.267 3.02224 134.228 4.00601 134.179 4.93809C134.784 4.14319 135.998 4.03372 136.91 4.43916C137.823 4.8446 138.493 5.64514 139.084 6.45037C140.431 8.28588 141.587 10.5419 141.07 12.7588C140.689 14.3966 139.045 16.7658 136.962 17.8035C135.657 18.4533 134.083 18.6332 132.724 18.1047C134.542 18.8122 135.79 15.7496 135.874 14.5182C135.957 13.2972 135.584 12.0781 134.998 11.0037C134.699 10.4554 134.323 9.91843 133.776 9.61823C132.998 9.19212 131.984 9.34434 131.266 9.86488C130.547 10.3854 130.103 11.2207 129.906 12.0856L129.906 12.0847Z" fill="black"/>
<path d="M130.788 49.6677C132.47 49.5263 134.063 48.831 135.604 48.1587C135.804 48.0727 136.036 48.1634 136.123 48.3616C136.209 48.5608 136.118 48.7929 135.919 48.8798C134.394 49.5451 132.665 50.2996 130.854 50.4518C130.328 50.4879 130.275 49.7109 130.788 49.6672L130.788 49.6677Z" fill="black"/>
<path d="M131.099 17.8468C130.912 17.7359 130.85 17.4954 130.96 17.3075C131.071 17.12 131.312 17.0575 131.5 17.1684C132.435 17.7199 133.391 17.8303 134.056 17.4677C135.58 16.6342 136.261 12.2961 134.225 10.4644C133.436 9.75308 132.023 9.46087 131.117 10.2281C130.65 10.6232 130.343 11.2593 130.15 12.2275C129.945 13.255 129.988 14.0485 130.282 14.654C130.377 14.8499 130.296 15.0853 130.101 15.1807C129.905 15.276 129.669 15.1938 129.574 14.9984C129.202 14.2326 129.138 13.2756 129.377 12.0734C129.522 11.3481 129.807 10.3051 130.608 9.62624C131.705 8.69791 133.565 8.8102 134.752 9.87758C137.148 12.034 136.489 17.0354 134.433 18.1573C134.059 18.3617 132.116 18.4458 131.099 17.8458V17.8468Z" fill="black"/>
<path d="M125.081 17.2576C124.974 17.5352 124.627 17.6353 124.33 17.6188C123.189 17.5568 122.528 16.3363 122.796 15.8496C122.994 15.4883 123.955 15.2905 124.451 15.9191C124.702 16.2372 125.251 16.815 125.081 17.2571L125.081 17.2576Z" fill="black"/>
<path d="M121.282 20.1125C121.175 20.3902 120.828 20.4903 120.531 20.4738C119.39 20.4118 118.729 19.1913 118.997 18.7045C119.196 18.3433 120.156 18.1455 120.652 18.7741C120.903 19.0921 121.452 19.67 121.282 20.1121L121.282 20.1125Z" fill="black"/>
<path d="M121.652 16.5073C121.475 16.3796 121.435 16.1334 121.562 15.9577C122.276 14.9655 123.487 14.3918 124.699 14.4327C124.916 14.4421 125.085 14.6258 125.076 14.8428C125.066 15.0604 124.882 15.2267 124.665 15.2206C123.723 15.1877 122.753 15.6514 122.201 16.4181C122.074 16.5952 121.827 16.6342 121.651 16.5083L121.652 16.5073Z" fill="black"/>
<path d="M117.914 19.983C117.711 19.9036 117.611 19.6753 117.691 19.4723C118.123 18.3673 119.16 17.5297 120.331 17.338C120.547 17.2981 120.748 17.4479 120.783 17.6626C120.818 17.8773 120.672 18.0803 120.458 18.115C119.556 18.2626 118.758 18.9085 118.424 19.7603C118.343 19.967 118.111 20.061 117.914 19.9834L117.914 19.983Z" fill="black"/>
<path d="M122.638 20.5537C122.516 20.2098 122.512 19.9195 122.419 18.7755C122.401 18.5585 122.562 18.3687 122.779 18.3508C122.999 18.3391 123.186 18.4946 123.204 18.7107C123.313 19.897 123.267 20.6608 123.827 20.7078C124.109 20.721 124.396 20.5401 124.567 20.2324C124.673 20.0426 124.912 19.9749 125.103 20.0806C125.293 20.1868 125.361 20.4269 125.255 20.6167C124.618 21.7555 123.095 21.8457 122.638 20.5528L122.638 20.5537Z" fill="black"/>
<path d="M126.839 21.9232C126.65 21.8161 126.584 21.5765 126.691 21.3872C126.892 21.0325 127.022 20.6303 127.067 20.2244C127.093 19.9938 127.062 19.897 127.03 19.8561C126.898 19.6832 126.93 19.4361 127.103 19.3041C127.434 19.0495 127.956 19.3736 127.85 20.3123C127.793 20.823 127.629 21.3289 127.376 21.7752C127.267 21.9683 127.023 22.0294 126.839 21.9237V21.9232Z" fill="black"/>
<path d="M99.4863 96.2506C95.7399 106.006 92.8931 112.949 90.1502 119.467C74.8832 116.628 61.1331 120.825 51.4282 129.528C31.2131 147.642 33.787 171 33.787 171H10.2812C10.2578 170.835 10.2418 170.67 10.2338 170.504C10.0863 167.41 9.70015 167.072 11.2847 166.332C13.4635 165.313 14.1643 163.662 12.8584 161.59C12.3976 160.859 11.8014 160.219 11.3495 159.483C10.4879 158.079 10.7332 156.586 10.9742 155.042C12.4901 145.268 15.9185 135.923 21.1446 127.796C24.4823 122.608 28.5679 117.971 32.9527 113.649C36.7625 109.902 43.6977 104.838 51.027 101.352C61.1824 96.5156 72.5813 94.1407 82.9162 94.1407C84.4514 94.1092 90.938 94.1642 99.4868 96.2506H99.4863Z" fill="black"/>
<path d="M130.391 170.645C130.675 161.088 129.061 151.153 124.464 142.682C119.182 132.952 109.932 125.906 99.5178 122.041C102.058 114.158 106.065 100.921 106.784 98.4235C117.945 102.345 126.186 107.974 133.808 115.586C138.405 120.349 142.341 125.363 145.592 131.189C147.757 135.07 149.552 138.865 150.977 143.069C151.938 145.905 153.61 150.211 151.974 152.999C148.774 158.453 148.05 159.528 147.62 161.014C146.593 164.56 148.761 166.736 152.369 167.271C152.915 167.352 153.478 167.403 153.979 167.637C154.553 167.905 155.672 170.758 155.267 170.757L130.391 170.647V170.645Z" fill="black"/>
<path d="M43.7921 126.882L24.0572 107.595C19.8377 111.925 15.9255 116.554 12.6508 121.655C3.01349 136.621 -1.06832 155.355 0.236694 171H27.0877C26.3083 171 27.7096 159.884 27.867 158.782C29.599 146.973 35.3612 135.55 43.7921 126.882ZM10.0375 164.528H2.3934C2.18106 164.528 1.99973 164.348 1.99973 164.135C1.99973 163.922 2.18059 163.741 2.3934 163.741H10.037C10.5603 163.741 10.5551 164.528 10.037 164.528H10.0375ZM13.2648 141.926C13.1802 141.926 12.8499 141.822 6.41601 140.061C5.91008 139.93 6.11959 139.17 6.62083 139.305L13.3672 141.147C13.8111 141.279 13.7143 141.926 13.2648 141.926ZM24.262 109.319C24.0887 109.185 24.0652 108.941 24.207 108.767C24.3409 108.602 24.5927 108.579 24.7581 108.713C26.4192 110.074 28.0169 111.531 29.5051 113.05C29.6545 113.2 29.6545 113.452 29.4971 113.601C29.3557 113.759 29.0879 113.759 28.9461 113.601C27.4738 112.097 25.8996 110.665 24.2625 109.319H24.262Z" fill="#CAFFEC"/>
<path d="M82.7114 83.2212C58.7828 83.6121 37.9533 93.2157 24.0576 107.594L43.7925 126.882C54.4116 115.964 68.0513 110.489 83.2389 111.192C83.1849 108.321 83.4343 121.555 82.7114 83.2212ZM48.0195 100.848C46.6342 99.0769 45.3432 97.2029 44.1702 95.2744C43.9029 94.8158 44.5822 94.424 44.8392 94.8652C45.9962 96.7702 47.2796 98.6203 48.6415 100.368C48.9548 100.774 48.3408 101.266 48.0195 100.848ZM73.5641 93.1405H73.5246C73.3198 93.1405 73.1544 92.9911 73.1309 92.7863L72.5484 86.8269C72.5249 86.6146 72.6823 86.4177 72.9026 86.4017C73.115 86.3862 73.3118 86.5356 73.3278 86.748L73.9183 92.7074C73.9342 92.9277 73.7764 93.1166 73.5641 93.1405Z" fill="#00D094"/>
<path d="M102.485 85.7093C94.5594 83.7441 86.7378 83.0587 82.7109 83.2217C83.4334 121.553 83.184 108.323 83.2385 111.193C86.5132 111.342 89.8115 111.76 93.0707 112.452C96.3408 104.446 99.5441 96.2197 102.493 88.3073C101.597 87.698 101.766 86.2693 102.485 85.7093ZM95.2039 91.1332C95.1725 91.322 95.0071 91.4639 94.8183 91.4639C94.581 91.4639 94.3884 91.2459 94.4326 91.0072L95.3223 85.4415C95.4167 84.9309 96.1782 85.0516 96.1017 85.5674L95.2044 91.1332H95.2039Z" fill="#CAFFEC"/>
<path d="M114.766 89.7477C113.027 91.2041 110.995 92.2982 108.815 92.9362C108.666 92.9757 108.524 93.0227 108.374 93.0466C106.186 100.493 104.069 107.53 101.761 114.932C109.177 117.625 116.096 121.726 121.74 127.103L135.438 113.531C135.334 113.531 135.138 113.19 135.367 112.949C135.443 112.87 140.339 107.833 140.027 108.154C140.249 107.921 140.621 108.058 140.688 108.328L141.318 107.706C132.903 98.991 123.52 93.3778 114.766 89.7486V89.7477ZM122.74 96.5339C121.504 98.0768 120.41 99.746 119.505 101.502C119.412 101.711 119.132 101.763 118.977 101.675C118.788 101.573 118.71 101.336 118.812 101.14C119.74 99.3372 120.858 97.6211 122.126 96.0463C122.268 95.8729 122.512 95.8494 122.685 95.9833C122.85 96.1172 122.882 96.369 122.74 96.5344V96.5339Z" fill="#CAFFEC"/>
<path d="M165.839 170.724C165.273 165.206 164.595 159.695 163.824 154.2C162.528 144.998 162.22 138.851 154.779 125.529C151.063 118.876 146.576 113.153 141.318 107.705L140.688 108.327C140.719 108.453 140.688 108.603 140.585 108.705C135.785 113.584 135.961 113.61 135.658 113.61C135.579 113.61 135.5 113.586 135.437 113.531L121.74 127.103C133.637 138.445 137.92 154.097 137.421 170.598L165.839 170.724H165.839ZM160.714 162.332C160.714 162.553 160.534 162.726 160.321 162.726H152.229C151.705 162.726 151.71 161.939 152.229 161.939H160.321C160.533 161.939 160.714 162.119 160.714 162.332ZM153.157 145.548L159.416 143.289C159.62 143.218 159.841 143.32 159.919 143.525C159.99 143.73 159.888 143.958 159.683 144.029C153.096 146.396 153.423 146.312 153.291 146.312C152.839 146.312 152.742 145.692 153.157 145.548H153.157ZM144.915 127.882C147.237 126.93 149.52 125.82 151.709 124.576C151.897 124.473 152.134 124.536 152.244 124.725C152.346 124.914 152.283 125.158 152.094 125.261C149.882 126.52 147.568 127.646 145.207 128.614C144.697 128.784 144.447 128.08 144.915 127.882Z" fill="#00D094"/>
<path d="M96.2905 152.555C96.2905 160.018 90.2446 166.072 82.7819 166.072C75.3192 166.072 69.2657 160.018 69.2657 152.555C69.2657 145.091 74.7132 139.66 81.6484 139.093C79.9168 143.076 78.2242 147.075 76.6261 151.106C75.9411 152.845 75.3192 154.333 76.13 156.105C76.8149 157.616 77.9954 158.939 79.4912 159.671C81.4515 160.631 84.1672 160.647 85.6945 158.892C86.1116 158.412 86.4343 157.853 86.7491 157.294C87.8117 155.404 88.5046 153.499 89.2365 151.476C90.3743 148.376 91.91 144.233 92.3459 143.013C94.7859 145.461 96.2896 148.831 96.2896 152.555H96.2905Z" fill="black"/>
<path d="M103.379 85.394C103.166 85.1535 103.359 84.9007 103.376 84.8218C103.525 84.4722 103.897 84.6296 104.342 84.5155C104.833 84.3971 105.035 85.1131 104.564 85.2709C104.323 85.3517 104.058 85.4316 103.785 85.5114C103.635 85.5556 103.478 85.5063 103.379 85.394H103.379Z" fill="black"/>
<path d="M82.2966 160.72C81.2429 160.72 80.1906 160.452 79.3183 160.025C77.7897 159.276 76.5302 157.942 75.7715 156.267C74.9142 154.394 75.5226 152.832 76.2601 150.961C83.2742 133.269 89.4592 122.162 102.125 88.1696C102.214 87.9305 102.508 87.8342 102.722 87.9864C103.271 88.3754 104.235 88.1287 104.845 87.9728C105.259 87.8638 105.526 88.4158 105.174 88.6728C104.743 88.9866 104.3 89.3089 104.092 89.7387C103.926 90.0756 103.97 90.5787 104.277 90.7507C104.568 90.9118 106.846 90.9499 107.079 90.9522C107.579 90.9579 107.603 91.7001 107.106 91.7382C106.957 91.7509 106.79 91.9942 106.831 92.1859C106.912 92.5439 107.405 92.8869 108.276 92.6651C108.566 92.5881 108.838 92.8624 108.752 93.1575C102.722 113.697 97.7167 128.916 97.6021 129.279C95.6704 135.196 92.4361 143.935 92.3529 144.153C87.6745 156.938 86.7805 160.721 82.2971 160.721L82.2966 160.72ZM102.71 88.8518C90.6284 121.22 86.0468 129.029 76.945 151.37C76.2859 153.042 75.7654 154.363 76.4879 155.941C78.4393 160.25 83.3968 160.933 85.3975 158.633C86.8599 156.952 88.3402 152.796 88.8668 151.342C92.3139 141.948 94.6219 135.866 96.8528 129.035L96.8857 128.933C100.468 117.923 103.859 107.016 107.823 93.5234C106.522 93.5436 105.803 92.5589 106.112 91.7147C105.635 91.6964 105.179 91.6691 104.767 91.6438C104.445 91.6132 104.16 91.586 103.892 91.4371C103.19 91.0429 102.906 89.9229 103.642 88.9805C103.329 88.9857 103.003 88.9546 102.71 88.8513V88.8518Z" fill="black"/>
<path d="M82.3041 155.658C84.0177 155.658 85.4069 154.268 85.4069 152.555C85.4069 150.841 84.0177 149.452 82.3041 149.452C80.5905 149.452 79.2013 150.841 79.2013 152.555C79.2013 154.268 80.5905 155.658 82.3041 155.658Z" fill="#CAFFEC"/>
<path d="M106.112 91.7152C105.635 91.6969 105.179 91.6696 104.768 91.6443C104.445 91.6137 104.16 91.5865 103.892 91.4376C103.191 91.0434 102.907 89.9234 103.642 88.981C101.272 89.019 100.913 86.5253 102.275 85.3715C101.314 85.3006 100.327 85.0549 100.201 84.3535C100.039 83.4561 100.725 82.5969 102.036 82.0547C103.26 81.5511 105.032 80.9427 107.018 80.6435C105.677 79.4798 106.049 77.7603 107.581 77.0612C108.194 76.7765 108.859 76.7206 109.487 76.6882C111.443 76.5905 113.294 76.7676 114.997 77.2036C115.554 77.3624 117.134 78.1065 117.89 78.2573C118.328 77.9365 120.605 76.2762 132.258 67.7864C138.723 47.2539 138.205 48.0793 138.619 47.9797C138.751 47.9468 138.895 47.9867 138.992 48.0849C140.743 49.8575 144.549 52.9239 150.366 53.5445C150.606 53.5703 150.767 53.8038 150.704 54.0382C149.476 58.6066 147.775 63.1476 145.63 67.4707C143.144 72.4929 140.271 75.6734 135.713 78.4485C132.403 80.4649 128.589 82.1318 124.381 83.4012C123.861 83.5562 119.862 84.1557 119.413 84.5278C117.473 88.5032 113.61 91.9449 108.925 93.3135C108.734 93.3666 108.587 93.4103 108.435 93.4352C106.84 93.8505 105.741 92.7276 106.112 91.7147V91.7152ZM105.174 88.6728C104.743 88.9866 104.3 89.3089 104.092 89.7388C103.926 90.0756 103.97 90.5788 104.277 90.7507C104.568 90.9119 106.846 90.9499 107.079 90.9523C107.579 90.9579 107.603 91.7002 107.106 91.7382C107.044 91.7434 106.973 91.7913 106.917 91.8665C106.636 92.239 107.064 92.6431 107.513 92.7215C107.853 92.7732 108.254 92.6863 108.584 92.5909C108.666 92.5576 111.66 91.8355 114.513 89.4456C116.292 87.9704 117.756 86.1288 118.751 84.1176C119.131 83.357 123.401 82.8703 124.155 82.6471C128.298 81.3975 132.05 79.7583 135.304 77.7767C139.722 75.0857 142.511 71.9987 144.925 67.1212C146.973 62.994 148.617 58.6512 149.824 54.2741C144.486 53.5802 140.833 50.9164 138.898 49.0926C132.568 69.3476 133.029 68.1999 132.828 68.3464C132.684 68.4512 118.466 78.8098 118.264 78.9611C118.053 79.1194 117.846 79.1302 116.479 78.6233C116.4 78.5918 114.899 77.9942 114.792 77.9642C113.176 77.5503 111.402 77.3882 109.527 77.4742C108.977 77.5033 108.398 77.5503 107.91 77.7763C106.372 78.4805 106.901 80.1253 108.446 80.5086C108.879 80.6167 108.823 81.2518 108.379 81.2838C105.979 81.4539 103.769 82.1928 102.337 82.782C101.609 83.0836 100.869 83.6173 100.976 84.2139C101.009 84.3976 102.007 84.6931 103.713 84.5837C104.045 84.5667 104.258 84.5367 104.343 84.5151C104.833 84.3967 105.036 85.1127 104.564 85.2705C103.923 85.4857 102.97 85.6806 102.608 86.1401C102.087 86.7776 102.147 87.8502 103.006 88.1189C103.576 88.2974 104.25 88.1236 104.846 87.9719C105.262 87.8638 105.525 88.4158 105.175 88.6719L105.174 88.6728Z" fill="black"/>
<path d="M151.567 54.4243H151.552C146.477 54.227 141.77 52.0176 138.432 48.6388C137.443 47.6414 136.944 46.9137 136.923 46.8831C136.853 46.7816 136.835 46.6534 136.875 46.5364C143.026 28.1607 142.381 30.185 142.717 29.0148C142.99 28.062 143.273 27.0768 143.779 26.2744C144.974 24.398 147.094 23.1695 149.313 23.069C149.525 23.0544 149.715 23.2268 149.725 23.4443C149.735 23.6614 149.567 23.846 149.349 23.8549C147.412 23.9433 145.487 25.0586 144.444 26.6968C143.822 27.6824 143.548 29.105 143.155 30.286C141.327 35.7258 139.506 41.1563 137.685 46.5951C140.493 50.3277 145.619 53.3095 151.303 53.6252L158.033 36.4733C158.112 36.2703 158.34 36.1703 158.543 36.2501C158.746 36.33 158.845 36.5583 158.766 36.7608L151.933 54.1749C151.873 54.3262 151.728 54.4248 151.566 54.4248L151.567 54.4243Z" fill="black"/>
<path d="M133.351 32.1634C132.277 31.4197 131.792 30.2654 131.516 28.9927C131.327 28.1189 131.204 27.6655 130.49 27.051C129.633 26.2913 129.169 26.2157 129.24 25.8089C129.284 25.5627 129.488 25.5227 129.591 25.4565C131.446 24.3614 133.24 21.0925 132.998 18.0844C132.981 17.8669 133.142 17.6766 133.36 17.6606C133.746 17.6301 134.075 17.4807 134.267 17.3238C134.41 17.2078 134.615 17.2045 134.76 17.3186C135.924 18.2333 136.954 19.1837 137.422 19.6695C139.044 21.3608 139.101 22.5442 138.714 24.7269C137.819 29.5405 137.845 31.2172 136.609 32.1798C135.72 32.8737 134.346 32.8361 133.351 32.1638V32.1634ZM130.327 25.915C132.098 27.2408 131.992 27.7209 132.387 29.2689C132.637 30.2611 133.137 31.0579 133.796 31.5136C134.535 32.0144 135.517 32.0337 136.124 31.5583C137.017 30.8634 136.998 29.7077 137.939 24.5897C138.336 22.3483 138.249 21.4787 136.289 19.6648C135.73 19.141 135.129 18.6214 134.497 18.1149C134.315 18.2235 134.061 18.3278 133.799 18.3879C133.857 21.699 132.124 24.6372 130.327 25.915H130.327Z" fill="black"/>
<path d="M117.975 79.0579C117.743 79.0579 117.343 78.9442 116.478 78.6233C116.224 78.5284 116.14 78.2118 116.313 78.0027C116.381 77.9209 117.89 76.474 118.413 75.9708C124.828 69.8921 125.539 69.768 131.047 65.4816C131.298 65.2913 131.319 65.2486 131.29 64.938C130.64 52.7965 127.416 41.6693 128.718 31.9985C128.911 30.5966 129.324 28.3909 130.05 27.169C130.421 26.5517 130.435 26.4098 130.673 26.3661C130.79 26.3454 130.911 26.3759 131.002 26.4544C132.119 27.4119 132.119 28.219 132.387 29.269C132.636 30.2612 133.137 31.058 133.796 31.5137C134.534 32.0145 135.517 32.0337 136.124 31.5583C137.017 30.8635 136.997 29.7078 137.939 24.5898C138.284 22.6349 138.285 21.7061 136.854 20.2155C136.66 20.0135 136.732 19.6804 136.991 19.577C141.971 17.5752 148.031 17.2449 153.013 19.5056C156.189 20.9516 159.091 23.4463 161.638 26.9209C163.698 29.719 164.898 32.8146 166.722 35.6644C171.158 42.5906 173.932 49.7193 175.292 52.2393C176.215 53.948 177.364 56.0753 175.389 57.572C173.642 58.9082 171.711 59.059 169.687 59.5988C164.569 60.9659 156.012 62.9766 150.891 63.608C150.626 63.6423 148.748 64.0849 146.858 64.4541C146.555 64.5204 146.291 64.207 146.42 63.9111C147.779 60.7794 148.923 57.5392 149.823 54.2741C144.485 53.5802 140.832 50.9164 138.897 49.0926C132.567 69.3476 133.028 68.1999 132.827 68.3464C132.683 68.4512 118.465 78.8098 118.263 78.9611C118.185 79.0193 118.108 79.0579 117.974 79.0579H117.975ZM117.339 78.0938C117.647 78.1986 117.808 78.2409 117.89 78.2569C118.328 77.936 120.606 76.2757 132.259 67.786C138.724 47.2534 138.206 48.0788 138.619 47.9792C138.752 47.9463 138.895 47.9863 138.993 48.0844C140.744 49.857 144.549 52.9234 150.366 53.544C150.606 53.5698 150.767 53.8033 150.704 54.0377C149.841 57.2502 148.743 60.4411 147.438 63.5343C148.822 63.2566 150.461 62.8676 150.794 62.8258C157.951 61.9435 169.765 58.7531 170.909 58.4966C172.399 58.1631 173.685 57.8746 174.898 56.9514C176.719 55.5984 174.923 53.482 174.006 51.452C171.107 45.066 168.908 40.5366 166.059 36.0881C164.241 33.2472 162.995 30.0907 161.004 27.387C158.537 24.0213 155.739 21.6103 152.687 20.2216C148.036 18.1112 142.561 18.3842 137.816 20.1041C139.09 21.6169 139.05 22.8313 138.714 24.726C137.819 29.5396 137.844 31.2163 136.608 32.1789C135.739 32.8587 134.369 32.8517 133.351 32.1629C132.532 31.5964 131.92 30.637 131.623 29.4611C131.4 28.5793 131.396 28.0217 130.835 27.3884C129.154 30.2372 129.062 36.6284 129.28 39.9513C129.839 48.5552 131.567 55.4518 132.076 64.8807C132.13 65.4717 131.974 65.7616 131.528 66.1045C125.787 70.5695 125.21 70.6099 118.957 76.5402L117.338 78.0938H117.339Z" fill="black"/>
<path d="M104.295 84.4319L108.334 83.2259C108.542 83.1658 108.761 83.2818 108.824 83.4904C108.886 83.699 108.768 83.9189 108.559 83.9809L104.52 85.1869C104.015 85.3311 103.8 84.5799 104.295 84.4314V84.4319Z" fill="black"/>
<path d="M104.704 88.4557C104.564 88.2894 104.585 88.0413 104.752 87.9004C105.402 87.354 106.815 87.3648 109.895 85.8469C110.364 85.6172 110.711 86.3228 110.244 86.553C108.891 87.2206 107.47 87.7698 106.019 88.1851C105.71 88.2729 105.442 88.349 105.259 88.5036C105.091 88.6441 104.844 88.6211 104.705 88.4557H104.704Z" fill="black"/>
<path d="M106.771 91.4535C106.654 91.2703 106.706 91.0265 106.889 90.909C108.137 90.1061 109.73 90.2565 112.212 88.7301C112.397 88.614 112.639 88.6742 112.753 88.8593C112.867 89.0448 112.809 89.2868 112.624 89.4005C110.049 90.986 108.415 90.8625 107.315 91.5714C107.249 91.6137 106.89 91.6377 106.771 91.453V91.4535Z" fill="black"/>
</g>
<defs>
<clipPath id="clip0_1208_1884">
<rect width="202" height="171" fill="white"/>
</clipPath>
</defs>
</svg>
