<svg width="210" height="200" viewBox="0 0 210 200" fill="none" xmlns="http://www.w3.org/2000/svg">
<g clip-path="url(#clip0_1208_1726)">
<path d="M59.2782 180.813H59.2759C57.6893 180.792 56.0857 180.718 54.5094 180.593C54.3998 180.583 54.3188 180.489 54.3279 180.379C54.3359 180.27 54.4341 180.189 54.5414 180.198C56.1085 180.322 57.703 180.396 59.2816 180.417C59.3912 180.418 59.479 180.508 59.4768 180.618C59.4756 180.726 59.3866 180.814 59.2782 180.814V180.813ZM64.0355 180.718C63.9305 180.718 63.8426 180.636 63.838 180.53C63.8323 180.42 63.9168 180.327 64.0252 180.321C65.5992 180.238 67.1903 180.102 68.7528 179.916C68.8578 179.902 68.9594 179.981 68.9731 180.089C68.9868 180.198 68.9081 180.297 68.7996 180.31C67.2279 180.497 65.6289 180.634 64.0469 180.717C64.0435 180.717 64.04 180.717 64.0366 180.717L64.0355 180.718ZM49.7989 180.056C49.7898 180.056 49.7795 180.056 49.7692 180.054C48.1952 179.821 46.6167 179.532 45.077 179.193C44.9697 179.169 44.9023 179.064 44.9263 178.956C44.9503 178.849 45.0576 178.783 45.1626 178.806C46.6943 179.142 48.2637 179.43 49.8286 179.662C49.937 179.678 50.0112 179.778 49.9952 179.886C49.9804 179.984 49.8959 180.055 49.8 180.055L49.7989 180.056ZM73.4793 179.597C73.3857 179.597 73.3024 179.53 73.2853 179.435C73.2648 179.327 73.3367 179.223 73.444 179.203C74.9871 178.917 76.5463 178.575 78.0792 178.19C78.1864 178.162 78.2926 178.227 78.32 178.334C78.3462 178.44 78.2823 178.547 78.1762 178.574C76.6353 178.962 75.067 179.304 73.5159 179.592C73.5033 179.594 73.4919 179.595 73.4793 179.595V179.597ZM40.5114 178.012C40.4931 178.012 40.4737 178.01 40.4555 178.004C38.9283 177.552 37.4068 177.04 35.9333 176.482C35.8306 176.443 35.7792 176.329 35.818 176.226C35.8568 176.124 35.9709 176.072 36.0737 176.111C37.5381 176.666 39.0504 177.174 40.5685 177.624C40.6735 177.655 40.734 177.765 40.702 177.87C40.6769 177.956 40.597 178.012 40.5114 178.012ZM82.7029 177.277C82.6185 177.277 82.5408 177.224 82.5135 177.139C82.4804 177.035 82.5374 176.923 82.6424 176.89C84.1399 176.413 85.6466 175.882 87.1178 175.311C87.2206 175.273 87.3347 175.322 87.3746 175.424C87.4146 175.526 87.3632 175.641 87.2616 175.681C85.7824 176.254 84.2689 176.789 82.7646 177.268C82.744 177.275 82.7235 177.277 82.7041 177.277H82.7029ZM31.6222 174.641C31.5937 174.641 31.5652 174.635 31.5378 174.622C30.0939 173.945 28.6683 173.204 27.3021 172.424C27.2073 172.369 27.1742 172.248 27.2279 172.153C27.2827 172.058 27.4048 172.026 27.4984 172.079C28.8567 172.855 30.272 173.589 31.7067 174.263C31.806 174.31 31.8482 174.427 31.8014 174.526C31.7672 174.598 31.6964 174.641 31.6222 174.641ZM91.5715 173.841C91.4962 173.841 91.4243 173.799 91.3912 173.726C91.3455 173.626 91.3889 173.509 91.4882 173.463C92.9161 172.807 94.3463 172.099 95.7399 171.354C95.8346 171.302 95.9556 171.338 96.0081 171.435C96.0595 171.532 96.023 171.651 95.9259 171.703C94.5255 172.451 93.0884 173.164 91.6537 173.823C91.6263 173.835 91.5989 173.841 91.5704 173.841H91.5715ZM23.3711 169.923C23.3323 169.923 23.2935 169.912 23.2593 169.888C22.6041 169.438 21.9501 168.968 21.3155 168.492C20.6832 168.018 20.0542 167.521 19.4436 167.018C19.3591 166.949 19.3477 166.823 19.4173 166.739C19.487 166.654 19.6125 166.643 19.697 166.713C20.3031 167.212 20.9274 167.704 21.5552 168.175C22.1852 168.649 22.8347 169.114 23.4853 169.561C23.5754 169.623 23.5983 169.746 23.5366 169.837C23.4978 169.893 23.4362 169.923 23.3734 169.923H23.3711ZM99.9596 169.358C99.8934 169.358 99.8284 169.325 99.7907 169.264C99.7336 169.17 99.7622 169.048 99.8558 168.991C101.199 168.165 102.535 167.289 103.822 166.385C103.911 166.322 104.036 166.344 104.098 166.433C104.161 166.523 104.139 166.646 104.05 166.709C102.756 167.616 101.415 168.498 100.065 169.327C100.033 169.347 99.9961 169.357 99.9608 169.357L99.9596 169.358ZM107.746 163.898C107.688 163.898 107.631 163.873 107.591 163.824C107.522 163.738 107.536 163.614 107.622 163.546C108.854 162.564 110.072 161.532 111.242 160.479C111.323 160.405 111.449 160.412 111.522 160.494C111.595 160.575 111.589 160.7 111.507 160.773C110.331 161.832 109.108 162.87 107.868 163.856C107.832 163.884 107.788 163.899 107.745 163.899L107.746 163.898ZM16.0388 163.876C15.9886 163.876 15.9384 163.857 15.8996 163.819C14.7742 162.708 13.683 161.531 12.6535 160.319C12.5827 160.236 12.593 160.11 12.6763 160.04C12.7596 159.969 12.8852 159.979 12.9559 160.062C13.9775 161.265 15.0618 162.434 16.1781 163.538C16.2557 163.614 16.2568 163.74 16.1792 163.818C16.1404 163.857 16.0891 163.878 16.0388 163.878V163.876ZM114.808 157.531C114.758 157.531 114.708 157.513 114.67 157.474C114.591 157.397 114.59 157.272 114.666 157.193C115.771 156.065 116.851 154.89 117.877 153.701C117.949 153.618 118.075 153.61 118.157 153.68C118.24 153.752 118.249 153.877 118.177 153.96C117.146 155.156 116.06 156.336 114.95 157.47C114.911 157.51 114.859 157.53 114.808 157.53V157.531ZM9.88673 156.633C9.8251 156.633 9.76346 156.604 9.72465 156.55C8.80583 155.255 7.93381 153.906 7.1337 152.542C7.07777 152.447 7.10973 152.326 7.20446 152.27C7.29806 152.214 7.42018 152.246 7.47611 152.341C8.27052 153.696 9.13684 155.035 10.0488 156.32C10.1116 156.409 10.091 156.534 10.002 156.596C9.96663 156.622 9.92782 156.633 9.88787 156.633H9.88673ZM121.017 150.33C120.975 150.33 120.933 150.316 120.897 150.29C120.809 150.224 120.792 150.099 120.858 150.012C121.807 148.761 122.73 147.459 123.604 146.144C123.664 146.053 123.786 146.027 123.879 146.088C123.97 146.148 123.995 146.272 123.935 146.363C123.057 147.685 122.128 148.994 121.175 150.252C121.136 150.303 121.076 150.331 121.017 150.331V150.33ZM5.08147 148.436C5.00728 148.436 4.93652 148.394 4.90228 148.323C4.22086 146.884 3.59881 145.403 3.05436 143.923C3.0167 143.82 3.0692 143.706 3.17193 143.668C3.27579 143.63 3.38879 143.683 3.42646 143.786C3.96633 145.255 4.58383 146.724 5.26067 148.153C5.30747 148.252 5.26524 148.37 5.16594 148.416C5.13854 148.429 5.11001 148.436 5.08147 148.436ZM126.278 142.41C126.244 142.41 126.21 142.402 126.179 142.383C126.084 142.329 126.051 142.208 126.107 142.113C126.894 140.752 127.651 139.346 128.357 137.936C128.407 137.838 128.526 137.799 128.623 137.847C128.722 137.896 128.76 138.015 128.712 138.113C128.004 139.53 127.242 140.943 126.45 142.31C126.414 142.374 126.346 142.41 126.278 142.41ZM1.80911 139.519C1.72122 139.519 1.64132 139.461 1.61735 139.372C1.20873 137.829 0.872023 136.258 0.618634 134.704C0.600372 134.596 0.674562 134.494 0.781853 134.476C0.888002 134.459 0.991869 134.532 1.01013 134.64C1.26238 136.182 1.59567 137.74 2.002 139.27C2.02939 139.376 1.96662 139.484 1.86161 139.512C1.84449 139.516 1.82737 139.519 1.81139 139.519H1.80911ZM130.533 133.907C130.507 133.907 130.48 133.902 130.455 133.891C130.355 133.847 130.308 133.731 130.35 133.631C130.969 132.181 131.551 130.694 132.081 129.213C132.118 129.111 132.231 129.056 132.334 129.093C132.437 129.13 132.49 129.244 132.454 129.347C131.923 130.836 131.338 132.329 130.716 133.786C130.684 133.861 130.611 133.907 130.533 133.907ZM0.283065 130.145C0.179198 130.145 0.0913113 130.064 0.0856043 129.959C0.0285348 129.037 0 128.103 0 127.181C0 126.522 0.0148381 125.85 0.0433729 125.185C0.0479384 125.075 0.125553 124.985 0.251106 124.995C0.36068 125 0.445143 125.092 0.440577 125.202C0.410901 125.861 0.396063 126.528 0.397204 127.181C0.397204 128.095 0.425739 129.022 0.481667 129.935C0.488515 130.045 0.405194 130.138 0.29562 130.145C0.292196 130.145 0.287631 130.145 0.283065 130.145ZM133.731 124.953C133.713 124.953 133.695 124.951 133.675 124.945C133.57 124.914 133.51 124.805 133.54 124.7C133.98 123.187 134.378 121.641 134.725 120.107C134.749 120.001 134.855 119.932 134.963 119.957C135.07 119.981 135.136 120.087 135.112 120.195C134.764 121.738 134.363 123.291 133.922 124.812C133.897 124.898 133.817 124.954 133.731 124.954V124.953ZM0.71337 120.661C0.703097 120.661 0.692824 120.661 0.682552 120.659C0.57412 120.642 0.501071 120.54 0.51705 120.432C0.762449 118.875 1.10487 117.305 1.53403 115.765C1.56371 115.66 1.67214 115.597 1.77829 115.627C1.88444 115.656 1.94607 115.765 1.9164 115.871C1.49066 117.396 1.15281 118.951 0.909689 120.492C0.893709 120.59 0.809246 120.66 0.714511 120.66L0.71337 120.661ZM135.824 115.679C135.814 115.679 135.803 115.679 135.792 115.677C135.684 115.66 135.611 115.557 135.628 115.45C135.881 113.889 136.087 112.307 136.241 110.746C136.252 110.637 136.352 110.559 136.458 110.568C136.567 110.578 136.646 110.675 136.636 110.785C136.481 112.353 136.273 113.944 136.018 115.512C136.002 115.609 135.918 115.679 135.823 115.679H135.824ZM3.25639 111.516C3.23128 111.516 3.20617 111.511 3.1822 111.501C3.08061 111.46 3.03154 111.345 3.07263 111.243C3.66387 109.777 4.34528 108.321 5.09631 106.917C5.14882 106.82 5.2698 106.785 5.36454 106.836C5.46156 106.887 5.49808 107.007 5.44672 107.104C4.70139 108.497 4.02683 109.939 3.44129 111.392C3.41048 111.469 3.33629 111.516 3.25753 111.516H3.25639ZM136.759 106.219C136.759 106.219 136.755 106.219 136.752 106.219C136.643 106.215 136.557 106.123 136.561 106.013C136.574 105.65 136.585 105.284 136.591 104.921C136.604 104.356 136.609 103.791 136.609 103.227C136.609 102.575 136.601 101.922 136.587 101.27C136.585 101.16 136.671 101.07 136.781 101.068C136.89 101.068 136.982 101.152 136.983 101.262C136.998 101.917 137.005 102.573 137.005 103.229C137.005 103.796 136.999 104.363 136.988 104.93C136.981 105.296 136.969 105.662 136.957 106.029C136.953 106.137 136.865 106.22 136.758 106.22L136.759 106.219ZM7.73293 103.14C7.69412 103.14 7.65531 103.128 7.62107 103.105C7.5309 103.044 7.50693 102.921 7.56856 102.83C8.46113 101.517 9.4336 100.237 10.4586 99.0279C10.5305 98.9446 10.6549 98.9344 10.7382 99.0051C10.8215 99.0758 10.8318 99.2013 10.761 99.2846C9.7452 100.484 8.78186 101.751 7.89614 103.053C7.85734 103.11 7.7957 103.14 7.73178 103.14H7.73293ZM136.573 96.7119C136.469 96.7119 136.383 96.6309 136.376 96.5271C136.281 95.0714 136.157 93.522 135.993 91.7913C135.983 91.6818 136.063 91.586 136.173 91.5757C136.28 91.5655 136.379 91.6453 136.388 91.7548C136.55 93.489 136.676 95.0417 136.771 96.5009C136.777 96.6104 136.694 96.704 136.586 96.7119C136.581 96.7119 136.578 96.7119 136.573 96.7119ZM13.8736 95.8951C13.8211 95.8951 13.7686 95.8745 13.7298 95.8335C13.6545 95.7547 13.6579 95.6292 13.7366 95.5528C14.8929 94.453 16.1164 93.4102 17.3731 92.4565C17.4599 92.3903 17.5843 92.4074 17.6516 92.4941C17.7178 92.582 17.7007 92.7052 17.614 92.7714C16.3687 93.7171 15.1565 94.7496 14.0117 95.8392C13.9729 95.8757 13.9238 95.8939 13.8748 95.8939L13.8736 95.8951ZM21.4376 90.1599C21.3703 90.1599 21.3041 90.1245 21.2664 90.0629C21.2105 89.9682 21.2424 89.8473 21.336 89.7914C22.7148 88.9768 24.1461 88.2444 25.5889 87.6146C25.6893 87.5713 25.8057 87.6169 25.8502 87.7173C25.8936 87.8177 25.8479 87.934 25.7475 87.9785C24.3185 88.6026 22.902 89.327 21.5381 90.1337C21.5061 90.1519 21.4719 90.161 21.4365 90.161L21.4376 90.1599ZM135.709 87.2393C135.609 87.2393 135.523 87.164 135.513 87.0624L135.291 85.0214C135.194 84.1258 135.096 83.2291 135.001 82.3335C134.99 82.2251 135.069 82.127 135.177 82.1156C135.283 82.1042 135.384 82.1829 135.395 82.2913C135.49 83.1869 135.588 84.0824 135.685 84.978L135.907 87.0202C135.918 87.1286 135.839 87.2267 135.731 87.2381C135.724 87.2381 135.716 87.2393 135.709 87.2393ZM30.1384 86.3733C30.0528 86.3733 29.9729 86.3174 29.9478 86.2307C29.917 86.1258 29.9775 86.0162 30.0825 85.9854C31.6177 85.5393 33.1882 85.1937 34.7519 84.9586C34.8615 84.945 34.962 85.0168 34.9768 85.1252C34.9928 85.2336 34.9186 85.334 34.8102 85.3511C33.2636 85.5827 31.7101 85.925 30.1921 86.3665C30.1738 86.3722 30.1544 86.3745 30.1362 86.3745L30.1384 86.3733ZM134.725 77.7768C134.624 77.7768 134.537 77.6993 134.528 77.5966C134.371 75.867 134.252 74.3131 134.163 72.8483C134.156 72.7387 134.239 72.6452 134.349 72.6383C134.472 72.636 134.552 72.7148 134.559 72.8243C134.646 74.2858 134.766 75.8351 134.923 77.5612C134.932 77.6707 134.852 77.7666 134.744 77.7768C134.738 77.7768 134.731 77.7768 134.725 77.7768ZM134.181 68.2825C134.072 68.2825 133.984 68.1958 133.982 68.0862C133.978 67.7006 133.974 67.3161 133.974 66.9305C133.974 65.6972 134.002 64.4822 134.055 63.3197C134.06 63.2101 134.156 63.1234 134.262 63.1303C134.371 63.1348 134.456 63.2284 134.451 63.3379C134.399 64.4948 134.371 65.7041 134.371 66.9305C134.371 67.3139 134.374 67.6983 134.379 68.0817C134.381 68.1912 134.293 68.2813 134.184 68.2825H134.182H134.181ZM134.636 58.7858C134.628 58.7858 134.62 58.7858 134.612 58.7847C134.504 58.7721 134.425 58.6729 134.439 58.5645C134.631 56.9445 134.885 55.3598 135.197 53.8527C135.219 53.7454 135.324 53.677 135.431 53.6987C135.538 53.7215 135.606 53.8253 135.585 53.9325C135.275 55.4282 135.022 57.0026 134.833 58.6101C134.821 58.7105 134.736 58.7847 134.636 58.7847V58.7858ZM136.586 49.4888C136.566 49.4888 136.546 49.4854 136.525 49.4797C136.421 49.4466 136.363 49.3348 136.396 49.231C136.886 47.6851 137.46 46.1837 138.103 44.769C138.147 44.6686 138.266 44.6253 138.365 44.6698C138.464 44.7154 138.509 44.8329 138.463 44.9322C137.828 46.3332 137.259 47.8197 136.774 49.3496C136.748 49.4341 136.669 49.4877 136.585 49.4877L136.586 49.4888ZM140.528 40.8581C140.492 40.8581 140.456 40.849 140.423 40.8284C140.331 40.7703 140.302 40.6482 140.36 40.5558C141.192 39.2278 142.135 37.9249 143.164 36.6848C143.233 36.6004 143.359 36.589 143.443 36.6586C143.528 36.7281 143.539 36.8536 143.469 36.9369C142.452 38.1645 141.52 39.4526 140.697 40.7657C140.659 40.8262 140.594 40.8593 140.529 40.8593L140.528 40.8581ZM146.567 33.5405C146.515 33.5405 146.462 33.52 146.423 33.4789C146.348 33.3991 146.351 33.2747 146.431 33.1994C147.559 32.1304 148.785 31.0911 150.072 30.1088C150.159 30.0426 150.284 30.0586 150.351 30.1464C150.417 30.2331 150.4 30.3575 150.313 30.4237C149.036 31.3968 147.822 32.4282 146.704 33.4869C146.665 33.5234 146.617 33.5417 146.568 33.5417L146.567 33.5405ZM154.111 27.7677C154.044 27.7677 153.979 27.7346 153.942 27.6742C153.883 27.5806 153.912 27.4585 154.006 27.4015C155.33 26.5789 156.729 25.7906 158.166 25.0593C158.263 25.0102 158.383 25.0479 158.432 25.146C158.482 25.243 158.442 25.3627 158.345 25.4129C156.918 26.1397 155.529 26.9223 154.215 27.7392C154.183 27.7597 154.146 27.7688 154.109 27.7688L154.111 27.7677ZM162.576 23.4415C162.499 23.4415 162.426 23.3959 162.394 23.3194C162.351 23.2179 162.398 23.1027 162.5 23.0605L162.581 23.0262C163.976 22.4489 165.45 21.8933 166.963 21.3754C167.067 21.34 167.18 21.3948 167.215 21.4986C167.25 21.6024 167.196 21.7142 167.092 21.7507C165.587 22.2664 164.121 22.8186 162.732 23.3936L162.653 23.4255C162.628 23.4358 162.601 23.4415 162.576 23.4415ZM171.568 20.3429C171.481 20.3429 171.403 20.2858 171.378 20.1991C171.348 20.0942 171.408 19.9847 171.513 19.9539C172.982 19.5352 174.49 19.1404 176.125 18.7457C176.232 18.7194 176.338 18.7856 176.364 18.8917C176.389 18.9978 176.324 19.105 176.218 19.1313C174.589 19.5237 173.087 19.9185 171.623 20.3349C171.605 20.3395 171.586 20.3429 171.568 20.3429ZM180.813 18.0942C180.721 18.0942 180.639 18.0303 180.619 17.9368C180.597 17.8295 180.665 17.7246 180.772 17.7018C182.182 17.4051 183.709 17.1005 185.443 16.7697C185.547 16.7503 185.654 16.8199 185.675 16.9271C185.695 17.0344 185.624 17.1382 185.517 17.1587C183.787 17.4896 182.261 17.793 180.853 18.0885C180.84 18.0919 180.826 18.0931 180.812 18.0931L180.813 18.0942ZM190.158 16.2928C190.064 16.2928 189.981 16.2255 189.963 16.1308C189.943 16.0235 190.014 15.9197 190.123 15.9003L190.82 15.7725C190.925 15.752 191.031 15.8239 191.051 15.9323C191.07 16.0395 190.999 16.1433 190.891 16.1627L190.193 16.2905C190.181 16.2928 190.169 16.2939 190.157 16.2939L190.158 16.2928Z" fill="black"/>
<path d="M6.96477 58.43C8.17579 53.2185 5.34514 46.9106 6.07449 26.6315C7.05837 -0.630847 24.7145 2.29436 24.4965 2.31604L25.6493 2.54193L25.7144 2.55676C28.7117 3.32913 36.4207 6.46426 39.7307 18.6009C41.6848 25.7667 40.1393 38.1144 40.1393 38.1144H66.8376L68.778 64.48H4.35327C4.35327 64.48 5.75376 63.6415 6.96363 58.43H6.96477Z" fill="black"/>
<path d="M68.7779 64.8771H4.35325C4.17519 64.8771 4.01882 64.7584 3.97088 64.5861C3.92294 64.4139 3.99599 64.2325 4.14894 64.1401C4.15236 64.1366 5.44442 63.2171 6.57782 58.3399C7.09715 56.1015 6.8449 53.5995 6.46368 49.8118C5.98772 45.0943 5.26978 37.965 5.6784 26.6167C6.50363 3.74213 19.1251 1.85284 22.9728 1.81861C23.8516 1.81176 24.323 1.85284 24.581 1.92813L25.8 2.16886C28.997 2.99257 36.7665 6.22695 40.113 18.4959C41.8788 24.9715 40.8458 35.4071 40.5844 37.7174H66.8376C67.0453 37.7174 67.2176 37.8771 67.2325 38.0848L69.1729 64.4504C69.1808 64.5599 69.1432 64.6683 69.0678 64.7493C68.9925 64.8303 68.8875 64.8759 68.7779 64.8759V64.8771ZM5.24696 64.0842H68.3511L66.4689 38.5114H40.1381C40.024 38.5114 39.9167 38.4624 39.8402 38.3768C39.7649 38.2913 39.7295 38.1783 39.7444 38.0654C39.7603 37.9421 41.2579 25.712 39.3472 18.7047C36.109 6.83618 28.6649 3.72615 25.6139 2.94009L25.5614 2.92868L24.4189 2.70507C24.4029 2.70165 24.3881 2.69822 24.3721 2.69252C24.0217 2.63662 19.1502 1.97263 14.5071 5.55384C9.54087 9.38489 6.83691 16.4811 6.46939 26.6452C6.06305 37.9399 6.75017 44.7555 7.25238 49.7319C7.6416 53.5984 7.89955 56.1528 7.3494 58.519C6.61548 61.6769 5.80624 63.2844 5.24582 64.083L5.24696 64.0842Z" fill="black"/>
<path d="M32.3105 10.8831H99.3432C105.522 10.8831 110.538 15.8972 110.538 22.0728V145.567C110.538 151.742 105.522 156.757 99.3432 156.757H32.3105C26.1321 156.757 21.1157 151.742 21.1157 145.567V22.0728C21.1157 15.8972 26.1321 10.8831 32.3105 10.8831Z" fill="white"/>
<path d="M99.3443 157.152H32.3116C25.9198 157.152 20.7196 151.954 20.7196 145.567V22.0726C20.7196 15.6837 25.9198 10.4871 32.3116 10.4871H99.3443C105.736 10.4871 110.936 15.6849 110.936 22.0726V145.567C110.936 151.956 105.736 157.152 99.3443 157.152ZM32.3116 11.2788C26.3569 11.2788 21.5129 16.1207 21.5129 22.0715V145.566C21.5129 151.517 26.3569 156.358 32.3116 156.358H99.3443C105.299 156.358 110.143 151.516 110.143 145.566V22.0726C110.143 16.1207 105.299 11.28 99.3443 11.28H32.3116V11.2788Z" fill="black"/>
<path d="M21.1544 146.454C21.6076 152.218 26.4276 156.756 32.3104 156.756H99.3431C105.226 156.756 110.046 152.218 110.499 146.454H21.1544Z" fill="black"/>
<path d="M99.3443 157.152H32.3115C26.3044 157.152 21.2298 152.467 20.7595 146.485C20.7515 146.374 20.788 146.266 20.8634 146.185C20.9387 146.104 21.0437 146.057 21.1544 146.057H110.5C110.611 146.057 110.716 146.103 110.791 146.185C110.867 146.266 110.904 146.374 110.895 146.485C110.425 152.467 105.35 157.152 99.3431 157.152H99.3443ZM21.5927 146.851C22.2319 152.218 26.8591 156.36 32.3115 156.36H99.3443C104.797 156.36 109.424 152.218 110.063 146.851H21.5927Z" fill="black"/>
<path d="M101.209 45.4547H40.1393C40.1393 45.4547 41.6859 25.7655 39.7307 18.5996C36.4207 6.463 28.7117 3.32902 25.7144 2.55664L25.6494 2.54181C24.9269 2.35927 24.4966 2.31592 24.4966 2.31592H84.2541C90.8993 2.31592 96.9258 6.28731 99.4746 12.4218C104.074 23.4974 101.208 45.4547 101.208 45.4547H101.209Z" fill="white"/>
<path d="M101.208 45.8518H40.1393C40.0286 45.8518 39.9236 45.8061 39.8483 45.724C39.7729 45.643 39.7353 45.5346 39.7444 45.4239C39.7604 45.2277 41.2624 25.7222 39.3495 18.7046C36.1113 6.83612 28.6672 3.72609 25.6162 2.94003L25.5637 2.92862C24.8732 2.75407 24.4612 2.71071 24.4577 2.70957C24.2477 2.6879 24.0913 2.50536 24.1028 2.29429C24.113 2.08323 24.2877 1.91895 24.4988 1.91895H84.2564C91.1127 1.91895 97.2317 5.9816 99.8432 12.2701C104.432 23.3172 101.722 44.6059 101.604 45.5061C101.579 45.7035 101.41 45.8506 101.212 45.8506L101.208 45.8518ZM40.5673 45.0589H100.858C101.193 42.2204 103.303 22.6715 99.1081 12.5736C96.6199 6.58284 90.7897 2.71185 84.2541 2.71185H27.4836C31.1919 4.14251 37.2596 8.03518 40.1142 18.4959C41.9279 25.1449 40.7876 42.0709 40.5673 45.0589Z" fill="black"/>
<path d="M57.6688 9.80588C67.4346 9.8538 76.3876 9.8538 83.9026 9.76709L57.6688 9.80588Z" fill="white"/>
<path d="M69.6922 10.2348C66.0192 10.2348 62.0209 10.2245 57.6665 10.2029C57.4474 10.2017 57.2705 10.0238 57.2716 9.80471C57.2728 9.5868 57.4497 9.40996 57.6677 9.40996H57.67C68.4276 9.46358 77.0063 9.45103 83.898 9.37231H83.9026C84.1194 9.37231 84.2963 9.54687 84.2986 9.76363C84.3009 9.98268 84.1251 10.1618 83.9071 10.1641C79.8015 10.2109 75.0979 10.2348 69.6911 10.2348H69.6922Z" fill="black"/>
<path d="M42.0614 9.69751C45.5438 9.72717 48.9702 9.75341 52.3191 9.77509L42.0614 9.69751Z" fill="white"/>
<path d="M52.319 10.172H52.3168C48.9679 10.1503 45.5403 10.1241 42.0579 10.0944C41.8388 10.0921 41.663 9.91416 41.6653 9.69512C41.6676 9.47721 41.8445 9.30151 42.0614 9.30151H42.0648C45.546 9.33118 48.9736 9.35742 52.3225 9.37909C52.5416 9.38023 52.7174 9.55935 52.7163 9.7784C52.7151 9.99631 52.5382 10.172 52.3202 10.172H52.319Z" fill="black"/>
<path d="M77.8201 16.6145C82.7144 16.6088 87.1829 16.5871 90.8673 16.5449L77.8201 16.6145Z" fill="white"/>
<path d="M77.8212 17.0105C77.6021 17.0105 77.4252 16.8336 77.4252 16.6146C77.4252 16.3955 77.6021 16.2175 77.8212 16.2175C82.9575 16.2118 87.345 16.189 90.8639 16.1479C91.0796 16.1548 91.2623 16.3202 91.2645 16.5393C91.2668 16.7583 91.091 16.9374 90.873 16.9397C87.3518 16.9796 82.9609 17.0036 77.8224 17.0093L77.8212 17.0105Z" fill="black"/>
<path d="M46.6715 16.4753C56.298 16.5575 65.2317 16.6134 74.7429 16.6157L46.6715 16.4753Z" fill="white"/>
<path d="M74.7429 17.0116C64.3083 17.0093 54.6955 16.9397 46.6681 16.8713C46.4489 16.869 46.2731 16.691 46.2754 16.472C46.2777 16.2541 46.4546 16.0784 46.6715 16.0784H46.6749C54.7 16.1468 64.3117 16.2164 74.7429 16.2187C74.962 16.2187 75.1389 16.3967 75.1389 16.6146C75.1389 16.8325 74.9609 17.0105 74.7429 17.0105V17.0116Z" fill="black"/>
<path d="M67.4883 23.373C77.3819 23.4083 86.8531 23.4003 93.6535 23.3228L67.4883 23.373Z" fill="white"/>
<path d="M78.0769 23.7894C74.792 23.7894 71.248 23.7826 67.4871 23.7689C67.2679 23.7689 67.091 23.5898 67.0922 23.3707C67.0922 23.1517 67.2702 22.976 67.4882 22.976H67.4894C78.3543 23.0148 87.3998 22.9977 93.6478 22.9258C93.8624 22.9235 94.0461 23.0981 94.0484 23.3171C94.0507 23.5362 93.8749 23.7153 93.6569 23.7176C89.5684 23.7643 84.2838 23.7883 78.0758 23.7883L78.0769 23.7894Z" fill="black"/>
<path d="M47.6337 23.2522C52.2243 23.291 57.0718 23.3241 61.9193 23.3492L47.6337 23.2522Z" fill="white"/>
<path d="M61.9193 23.745H61.917C57.0695 23.721 52.2209 23.6868 47.6302 23.648C47.4111 23.6457 47.2353 23.4678 47.2376 23.2487C47.2399 23.0297 47.4076 22.8494 47.6371 22.8551C52.2266 22.8939 57.0741 22.927 61.9216 22.9521C62.1407 22.9532 62.3176 23.1312 62.3165 23.3503C62.3153 23.5682 62.1384 23.745 61.9204 23.745H61.9193Z" fill="black"/>
<path d="M63.0916 30.1409C66.8045 30.1557 70.5243 30.1648 74.1071 30.1682L63.0916 30.1409Z" fill="white"/>
<path d="M74.1071 30.5652C70.5242 30.5617 66.8045 30.5515 63.0904 30.5378C62.8712 30.5378 62.6943 30.3587 62.6954 30.1396C62.6954 29.9217 62.8735 29.7449 63.0915 29.7449H63.0926C66.8056 29.7597 70.5254 29.7688 74.1071 29.7723C74.3262 29.7723 74.5031 29.9502 74.5031 30.1693C74.5031 30.3883 74.3251 30.5652 74.1071 30.5652Z" fill="black"/>
<path d="M47.1908 30.0291C51.1788 30.0633 53.1957 30.0929 57.6699 30.1158L47.1908 30.0291Z" fill="white"/>
<path d="M57.6688 30.5127H57.6665C54.6681 30.4968 52.7733 30.4785 50.6492 30.458C49.6037 30.4477 48.5023 30.4374 47.1862 30.426C46.9671 30.4237 46.7913 30.2458 46.7936 30.0267C46.7959 29.8077 46.9682 29.6297 47.1931 29.6331C48.5091 29.6445 49.6106 29.6548 50.6572 29.665C52.7802 29.6856 54.6738 29.7038 57.6699 29.7198C57.8891 29.721 58.066 29.8989 58.0648 30.118C58.0637 30.3359 57.8868 30.5127 57.6688 30.5127Z" fill="black"/>
<path d="M104.513 45.8518H33.6391C33.42 45.8518 33.243 45.6738 33.243 45.4559C33.243 45.238 33.42 45.0601 33.6391 45.0601H104.513C104.732 45.0601 104.909 45.238 104.909 45.4559C104.909 45.6738 104.732 45.8518 104.513 45.8518Z" fill="black"/>
<path d="M79.823 83.8711C87.0498 76.6476 87.0498 64.9359 79.823 57.7124C72.5962 50.4889 60.8792 50.4889 53.6524 57.7124C46.4256 64.9359 46.4256 76.6476 53.6524 83.8711C60.8792 91.0946 72.5962 91.0946 79.823 83.8711Z" fill="#FEC524"/>
<path d="M64.9177 88.6745C54.4956 88.6745 46.0162 80.1989 46.0162 69.7816C46.0162 59.3642 54.4956 50.8887 64.9177 50.8887C75.3397 50.8887 83.8191 59.3642 83.8191 69.7816C83.8191 80.1989 75.3397 88.6745 64.9177 88.6745ZM64.9177 51.6804C54.9328 51.6804 46.8095 59.8001 46.8095 69.7804C46.8095 79.7608 54.9328 87.8804 64.9177 87.8804C74.9026 87.8804 83.0258 79.7608 83.0258 69.7804C83.0258 59.8001 74.9026 51.6804 64.9177 51.6804Z" fill="black"/>
<path d="M71.1863 71.818C71.1863 72.5139 71.063 73.1414 70.8165 73.6993C70.5699 74.2572 70.2195 74.7387 69.7664 75.1437C69.3132 75.5487 68.7665 75.8715 68.1273 76.1145C67.4882 76.3575 66.7794 76.5104 66.0032 76.5755L65.7487 79.1721C65.7407 79.2371 65.7224 79.293 65.6939 79.3421C65.6654 79.3911 65.6129 79.4311 65.5364 79.463C65.4588 79.495 65.3549 79.5212 65.2202 79.5417C65.0867 79.5623 64.9189 79.5725 64.7169 79.5725C64.4578 79.5725 64.2489 79.56 64.0914 79.536C63.9339 79.5121 63.8106 79.4767 63.7216 79.4334C63.6325 79.3889 63.5732 79.3307 63.5458 79.2577C63.5173 79.1846 63.5116 79.1036 63.5275 79.0147L63.7832 76.5515C63.4351 76.5024 63.1075 76.4408 62.7993 76.3633C62.4923 76.2868 62.2126 76.2013 61.9615 76.1088C61.7104 76.0164 61.4936 75.9206 61.3121 75.8236C61.1306 75.7266 60.9925 75.632 60.8989 75.5384C60.8053 75.446 60.7391 75.3079 60.6992 75.1254C60.6581 74.944 60.6387 74.6748 60.6387 74.3188C60.6387 74.0439 60.6467 73.8168 60.6626 73.6389C60.6786 73.4609 60.7072 73.3228 60.7482 73.2259C60.7882 73.1289 60.8396 73.0616 60.9 73.0262C60.9605 72.9908 61.0313 72.9714 61.1123 72.9714C61.2174 72.9714 61.3714 73.0319 61.5735 73.1528C61.7755 73.2738 62.0346 73.4073 62.3508 73.5533C62.6669 73.6993 63.0493 73.8328 63.4979 73.9537C63.9464 74.0747 64.4749 74.1351 65.0821 74.1351C66.0295 74.1351 66.7337 73.9594 67.1948 73.6069C67.6559 73.2544 67.8865 72.7878 67.8865 72.2048C67.8865 71.8169 67.7872 71.4963 67.5886 71.2464C67.39 70.9954 67.1252 70.7753 66.7931 70.5847C66.4609 70.3942 66.0865 70.2242 65.6699 70.0747C65.2533 69.9253 64.8264 69.7656 64.3893 69.5956C63.9521 69.4256 63.5252 69.2271 63.1086 69.0012C62.692 68.7753 62.3177 68.4958 61.9855 68.1638C61.6534 67.8318 61.3886 67.4291 61.19 66.9567C60.9914 66.4833 60.8921 65.9117 60.8921 65.2397C60.8921 64.6328 60.9936 64.0806 61.1957 63.5832C61.3977 63.0858 61.6899 62.6511 62.07 62.278C62.4501 61.9061 62.918 61.6049 63.4727 61.3744C64.0275 61.144 64.6564 60.9877 65.3606 60.9067L65.6037 58.4675C65.6117 58.4025 65.63 58.3477 65.6585 58.3032C65.687 58.2587 65.7395 58.2188 65.816 58.1823C65.8925 58.1458 65.9964 58.1195 66.1253 58.1036C66.2555 58.0876 66.4244 58.0796 66.6355 58.0796C66.8866 58.0796 67.0944 58.0921 67.261 58.1161C67.4265 58.1401 67.5544 58.1754 67.6434 58.2188C67.7324 58.2633 67.7895 58.3215 67.8135 58.3945C67.8374 58.4675 67.85 58.5485 67.85 58.6375L67.6069 60.9306C67.8329 60.9637 68.0725 61.0082 68.3237 61.0641C68.5748 61.1212 68.8088 61.1873 69.0279 61.2638C69.247 61.3414 69.4445 61.4212 69.6226 61.5068C69.8006 61.5912 69.9239 61.6688 69.9924 61.7372C70.0609 61.8057 70.1134 61.8753 70.1499 61.9437C70.1864 62.0122 70.2149 62.0978 70.2355 62.1982C70.256 62.2997 70.2697 62.4206 70.2777 62.5621C70.2857 62.7036 70.2903 62.8678 70.2903 63.0538C70.2903 63.3048 70.2846 63.5113 70.272 63.6733C70.2595 63.8353 70.2378 63.9585 70.2047 64.0429C70.1727 64.1274 70.1362 64.1844 70.0951 64.2129C70.054 64.2415 70.0061 64.2552 69.949 64.2552C69.844 64.2552 69.6899 64.2027 69.4879 64.0977C69.2858 63.9927 69.0359 63.8798 68.7414 63.7577C68.4458 63.6368 68.1057 63.5227 67.721 63.4177C67.3364 63.3128 66.914 63.2603 66.4518 63.2603C66.0306 63.2603 65.6711 63.3014 65.3709 63.3812C65.0707 63.4622 64.8287 63.5752 64.6427 63.7212C64.4566 63.8673 64.3185 64.0407 64.2295 64.2426C64.1405 64.4445 64.0959 64.667 64.0959 64.91C64.0959 65.2911 64.1975 65.6105 64.3996 65.8683C64.6016 66.1273 64.8709 66.3498 65.2065 66.5358C65.5421 66.7217 65.9233 66.8917 66.3479 67.0457C66.7736 67.1997 67.2062 67.3618 67.6468 67.5306C68.0874 67.7006 68.5211 67.8968 68.9457 68.1193C69.3703 68.3418 69.7493 68.6167 70.0803 68.9441C70.4124 69.2716 70.6795 69.6686 70.8815 70.1329C71.0835 70.5984 71.1851 71.1586 71.1851 71.8134L71.1863 71.818Z" fill="white"/>
<path d="M90.3183 98.4589V104.379C90.3183 106.906 88.2717 108.955 85.7436 108.955H45.9101C43.382 108.955 41.3354 106.906 41.3354 104.379V98.4589C41.3354 95.9318 43.382 93.8862 45.9101 93.8862H85.7436C88.2717 93.8862 90.3183 95.9318 90.3183 98.4589Z" fill="white"/>
<path d="M85.7436 109.351H45.9113C43.1708 109.351 40.9406 107.12 40.9406 104.379V98.4587C40.9406 95.7195 43.1708 93.4902 45.9113 93.4902H85.7436C88.4841 93.4902 90.7143 95.7195 90.7143 98.4587V104.379C90.7143 107.12 88.4841 109.351 85.7436 109.351ZM45.9113 94.2831C43.608 94.2831 41.7327 96.1565 41.7327 98.4587V104.379C41.7327 106.683 43.6068 108.559 45.9113 108.559H85.7436C88.0469 108.559 89.9211 106.683 89.9211 104.379V98.4587C89.9211 96.1565 88.0469 94.2831 85.7436 94.2831H45.9113Z" fill="black"/>
<path d="M91.9299 120.924V132.295C91.9299 134.822 89.8834 136.871 87.3553 136.871H47.5218C44.9937 136.871 42.9471 134.822 42.9471 132.295V120.924C42.9471 118.397 44.9937 116.351 47.5218 116.351H87.3553C89.8834 116.351 91.9299 118.397 91.9299 120.924Z" fill="#00D094"/>
<path d="M85.7436 134.908H45.9113C43.1708 134.908 40.9406 132.678 40.9406 129.937V118.565C40.9406 115.826 43.1708 113.597 45.9113 113.597H85.7436C88.4841 113.597 90.7143 115.826 90.7143 118.565V129.937C90.7143 132.678 88.4841 134.908 85.7436 134.908ZM45.9113 114.389C43.608 114.389 41.7327 116.262 41.7327 118.564V129.935C41.7327 132.24 43.6068 134.116 45.9113 134.116H85.7436C88.0469 134.116 89.9211 132.24 89.9211 129.935V118.564C89.9211 116.262 88.0469 114.389 85.7436 114.389H45.9113Z" fill="black"/>
<path d="M54.9694 100.858L53.1957 101.546L54.9694 102.233C55.0676 102.269 55.1133 102.345 55.1075 102.465C55.0996 102.585 55.0231 102.77 54.8793 103.02C54.7332 103.269 54.611 103.424 54.5129 103.487C54.4124 103.548 54.3223 103.548 54.2424 103.483L52.7551 102.294L53.053 104.172C53.0793 104.276 53.0348 104.356 52.9264 104.413C52.8168 104.467 52.6159 104.495 52.3271 104.495C52.0383 104.495 51.8386 104.467 51.7279 104.413C51.6172 104.357 51.5761 104.277 51.6001 104.172L51.9002 102.294L50.4107 103.483C50.3365 103.549 50.2486 103.549 50.1505 103.483C50.05 103.419 49.9268 103.263 49.7761 103.013C49.6323 102.769 49.5558 102.586 49.5513 102.467C49.5456 102.347 49.5912 102.27 49.6859 102.234L51.4665 101.547L49.6859 100.859C49.5923 100.825 49.5456 100.747 49.5513 100.626C49.5558 100.507 49.6312 100.322 49.7761 100.074C49.9199 99.8243 50.0443 99.668 50.1471 99.6019C50.2486 99.538 50.3377 99.5403 50.4119 99.6098L51.9014 100.799L51.6012 98.9208C51.5772 98.8226 51.6195 98.7428 51.729 98.6869C51.8386 98.6287 52.0372 98.6013 52.3283 98.6013C52.6193 98.6013 52.8168 98.6298 52.9275 98.6869C53.0359 98.7428 53.0793 98.8226 53.0542 98.9208L52.7563 100.799L54.2435 99.6098C54.3234 99.5403 54.4113 99.5403 54.5095 99.6053C54.6053 99.6737 54.7297 99.8312 54.8804 100.081C55.0242 100.325 55.1007 100.505 55.1087 100.625C55.1144 100.745 55.0687 100.824 54.9706 100.858H54.9694Z" fill="black"/>
<path d="M63.5584 100.858L61.7847 101.546L63.5584 102.233C63.6565 102.269 63.7022 102.345 63.6965 102.465C63.6885 102.585 63.612 102.77 63.4682 103.02C63.3221 103.269 63.2 103.424 63.1018 103.487C63.0014 103.548 62.9112 103.548 62.8313 103.483L61.3441 102.294L61.642 104.172C61.6682 104.276 61.6237 104.356 61.5164 104.413C61.4057 104.467 61.206 104.495 60.9172 104.495C60.6284 104.495 60.4287 104.467 60.318 104.413C60.2073 104.357 60.1662 104.277 60.1901 104.172L60.4903 102.294L59.0008 103.483C58.9266 103.549 58.8387 103.549 58.7406 103.483C58.6401 103.419 58.5169 103.263 58.3662 103.013C58.2224 102.769 58.1459 102.586 58.1413 102.467C58.1356 102.347 58.1813 102.27 58.276 102.234L60.0566 101.547L58.276 100.859C58.1824 100.825 58.1356 100.747 58.1413 100.626C58.1459 100.507 58.2212 100.322 58.3662 100.074C58.51 99.8243 58.6344 99.668 58.7371 99.6019C58.8387 99.538 58.9278 99.5403 59.002 99.6098L60.4915 100.799L60.1913 98.9208C60.1673 98.8226 60.2095 98.7428 60.3191 98.6869C60.4287 98.6287 60.6273 98.6013 60.9183 98.6013C61.2094 98.6013 61.4069 98.6298 61.5176 98.6869C61.626 98.7428 61.6694 98.8226 61.6431 98.9208L61.3452 100.799L62.8325 99.6098C62.9124 99.5403 63.0002 99.5403 63.0984 99.6053C63.1943 99.6737 63.3187 99.8312 63.4694 100.081C63.6132 100.325 63.6896 100.505 63.6976 100.625C63.7033 100.745 63.6577 100.824 63.5595 100.858H63.5584Z" fill="black"/>
<path d="M72.1473 100.858L70.3736 101.546L72.1473 102.233C72.2455 102.269 72.2911 102.345 72.2854 102.465C72.2774 102.585 72.2009 102.77 72.0571 103.02C71.911 103.269 71.7889 103.424 71.6907 103.487C71.5903 103.548 71.5001 103.548 71.4202 103.483L69.933 102.294L70.2309 104.172C70.2572 104.276 70.2126 104.356 70.1042 104.413C69.9946 104.467 69.7938 104.495 69.505 104.495C69.2162 104.495 69.0165 104.467 68.9057 104.413C68.7962 104.357 68.7539 104.277 68.7779 104.172L69.0781 102.294L67.5886 103.483C67.5144 103.549 67.4265 103.549 67.3283 103.483C67.2279 103.419 67.1046 103.263 66.954 103.013C66.8101 102.769 66.7337 102.586 66.7291 102.467C66.7234 102.347 66.7691 102.27 66.8638 102.234L68.6444 101.547L66.8638 100.859C66.7702 100.825 66.7234 100.747 66.7291 100.626C66.7337 100.507 66.809 100.322 66.954 100.074C67.0978 99.8243 67.2222 99.668 67.3249 99.6019C67.4265 99.538 67.5155 99.5403 67.5897 99.6098L69.0792 100.799L68.7791 98.9208C68.7551 98.8226 68.7973 98.7428 68.9069 98.6869C69.0165 98.6287 69.2151 98.6013 69.5061 98.6013C69.7972 98.6013 69.9946 98.6298 70.1054 98.6869C70.2138 98.7428 70.2572 98.8226 70.232 98.9208L69.9341 100.799L71.4214 99.6098C71.5013 99.5403 71.5892 99.5403 71.6873 99.6053C71.7832 99.6737 71.9076 99.8312 72.0583 100.081C72.2021 100.325 72.2786 100.505 72.2865 100.625C72.2923 100.745 72.2466 100.824 72.1484 100.858H72.1473Z" fill="black"/>
<path d="M80.7363 100.858L78.9626 101.546L80.7363 102.233C80.8345 102.269 80.8801 102.345 80.8744 102.465C80.8664 102.585 80.79 102.77 80.6462 103.02C80.5001 103.269 80.3779 103.424 80.2798 103.487C80.1793 103.548 80.0891 103.548 80.0093 103.483L78.522 102.294L78.8199 104.172C78.8462 104.276 78.8017 104.356 78.6944 104.413C78.5848 104.467 78.3839 104.495 78.0951 104.495C77.8064 104.495 77.6066 104.467 77.4959 104.413C77.3852 104.357 77.3441 104.277 77.3681 104.172L77.6683 102.294L76.1787 103.483C76.1046 103.549 76.0167 103.549 75.9185 103.483C75.8181 103.419 75.6948 103.263 75.5441 103.013C75.4003 102.769 75.3238 102.586 75.3204 102.467C75.3147 102.347 75.3604 102.27 75.4551 102.234L77.2357 101.547L75.4551 100.859C75.3615 100.825 75.3147 100.747 75.3204 100.626C75.325 100.507 75.4003 100.322 75.5441 100.074C75.6879 99.8243 75.8124 99.668 75.9151 99.6019C76.0167 99.538 76.1057 99.5403 76.1799 99.6098L77.6694 100.799L77.3692 98.9208C77.3452 98.8226 77.3875 98.7428 77.497 98.6869C77.6066 98.6287 77.8052 98.6013 78.0963 98.6013C78.3873 98.6013 78.5848 98.6298 78.6955 98.6869C78.8039 98.7428 78.8473 98.8226 78.8211 98.9208L78.5232 100.799L80.0104 99.6098C80.0903 99.5403 80.1782 99.5403 80.2763 99.6053C80.3722 99.6737 80.4966 99.8312 80.6473 100.081C80.7911 100.325 80.8676 100.505 80.8756 100.625C80.8813 100.745 80.8356 100.824 80.7375 100.858H80.7363Z" fill="black"/>
<path d="M137.145 126.611C137.145 126.611 134.473 128.847 135.975 133.731C137.361 138.234 142.997 153.362 147.446 150.104C151.895 146.846 146.046 129.261 146.046 129.261L137.145 126.61V126.611Z" fill="black"/>
<path d="M146.143 150.957C145.863 150.957 145.576 150.909 145.284 150.812C140.364 149.182 135.643 134 135.596 133.848C134.035 128.771 136.773 126.406 136.89 126.308C136.992 126.222 137.13 126.193 137.258 126.231L146.159 128.883C146.283 128.919 146.381 129.015 146.422 129.137C146.664 129.866 152.311 147.034 147.681 150.425C147.196 150.779 146.681 150.958 146.143 150.958V150.957ZM137.253 127.057C136.738 127.6 135.143 129.677 136.355 133.615C137.546 137.487 141.789 148.819 145.534 150.061C146.138 150.26 146.686 150.17 147.212 149.785C150.624 147.286 147.359 134.546 145.734 129.583L137.253 127.057Z" fill="black"/>
<path d="M106.006 97.1662C106.006 97.1662 100.167 100.461 100.333 104.38C100.349 104.769 103.814 109.49 105.088 110.63C109.363 114.452 110.799 115.679 110.799 115.679C112.235 118.969 120.853 147.656 128.616 150.986C136.772 154.485 153.207 141.756 153.207 141.756L145.58 124.429L135.318 130.188L121.064 107.61C120.522 104.831 116.012 92.249 113.633 93.7276C111.329 95.1616 111.983 97.8153 112.025 97.983C111.812 97.6659 104.688 87.1082 102.081 88.3826C99.4357 89.6786 106.006 97.1673 106.006 97.1673V97.1662Z" fill="white"/>
<path d="M131.905 151.991C130.664 151.991 129.502 151.795 128.461 151.349C121.881 148.526 114.8 128.212 111.775 119.536C111.168 117.795 110.722 116.515 110.472 115.919C110.134 115.628 108.545 114.252 104.824 110.925C103.691 109.911 99.963 105.037 99.9379 104.396C99.7884 100.869 104.03 97.9249 105.399 97.0681C104.236 95.6956 100.66 91.2564 101.096 89.0842C101.192 88.605 101.473 88.2388 101.908 88.0255C104.287 86.8641 109.168 93.2142 111.526 96.5581C111.602 95.5518 112.013 94.2684 113.426 93.3899C113.672 93.237 114.075 93.1035 114.603 93.3328C117.257 94.4897 120.917 104.948 121.438 107.458L135.452 129.656L145.386 124.082C145.483 124.027 145.599 124.016 145.705 124.052C145.812 124.087 145.898 124.166 145.943 124.268L153.57 141.596C153.643 141.763 153.594 141.958 153.45 142.07C152.856 142.53 140.525 151.991 131.905 151.992V151.991ZM100.728 104.321C100.977 104.914 104.146 109.254 105.353 110.333C109.574 114.107 111.043 115.364 111.057 115.376C111.103 115.414 111.14 115.464 111.164 115.518C111.418 116.101 111.881 117.433 112.524 119.275C115.513 127.851 122.515 147.935 128.774 150.62C136.086 153.758 150.645 143.179 152.718 141.627L145.394 124.985L135.513 130.53C135.328 130.633 135.096 130.574 134.983 130.395L120.73 107.817C120.703 107.776 120.685 107.73 120.676 107.682C120.127 104.866 116.486 95.0156 114.286 94.0573C114.059 93.958 113.93 94.0071 113.846 94.0607C111.827 95.3168 112.346 97.6225 112.412 97.8815C112.46 98.0686 112.367 98.2626 112.191 98.3413C112.016 98.42 111.808 98.3607 111.7 98.2009C108.148 92.9392 103.772 87.9981 102.258 88.7351C102.045 88.8401 101.923 88.9998 101.875 89.2371C101.524 90.9826 104.954 95.3625 106.306 96.9026C106.385 96.9928 106.419 97.1126 106.398 97.2301C106.379 97.3476 106.307 97.4503 106.203 97.5084C106.147 97.5404 100.62 100.706 100.73 104.318L100.728 104.321Z" fill="black"/>
<path d="M105.918 96.9916L109.965 101.701C110.626 102.47 110.561 103.609 109.819 104.244C109.078 104.881 107.943 104.773 107.282 104.005L103.234 99.295C102.573 98.526 102.637 97.3852 103.378 96.7497C103.749 96.4303 104.219 96.3002 104.677 96.3435C105.139 96.3869 105.588 96.6082 105.918 96.9916Z" fill="white"/>
<path d="M108.691 105.054C108.062 105.054 107.43 104.785 106.981 104.262L102.934 99.5517C102.132 98.6173 102.215 97.2243 103.12 96.4474C103.561 96.0686 104.123 95.8918 104.715 95.9465C105.297 96.0013 105.831 96.2797 106.218 96.7315L110.265 101.441C111.066 102.374 110.982 103.766 110.077 104.543C109.679 104.885 109.185 105.053 108.69 105.053L108.691 105.054ZM104.506 96.7315C104.184 96.7315 103.879 96.8421 103.637 97.0498C103.064 97.5426 103.019 98.4336 103.536 99.036L107.583 103.746C108.099 104.347 108.986 104.436 109.561 103.943C110.134 103.45 110.181 102.56 109.664 101.958L105.616 97.2483C105.363 96.9539 105.016 96.7725 104.639 96.736C104.594 96.7314 104.549 96.7292 104.505 96.7292L104.506 96.7315Z" fill="black"/>
<path d="M103.332 99.4296L107.236 103.971C107.873 104.713 107.81 105.811 107.095 106.424C106.381 107.038 105.285 106.934 104.648 106.193L100.745 101.651C100.108 100.909 100.168 99.8095 100.883 99.1969C101.241 98.8888 101.694 98.7633 102.135 98.8055C102.58 98.8478 103.014 99.0611 103.331 99.4308L103.332 99.4296Z" fill="white"/>
<path d="M106.01 107.22C105.943 107.22 105.874 107.216 105.806 107.21C105.241 107.157 104.724 106.888 104.348 106.451L100.445 101.909C100.069 101.472 99.8808 100.92 99.9116 100.354C99.9435 99.7811 100.197 99.2631 100.625 98.8958C101.053 98.5284 101.599 98.3561 102.173 98.4097C102.738 98.4634 103.256 98.7338 103.631 99.1707L107.535 103.713C108.313 104.618 108.231 105.969 107.352 106.723C106.976 107.047 106.504 107.22 106.008 107.22H106.01ZM101.972 99.1924C101.665 99.1924 101.374 99.2985 101.143 99.497C100.881 99.7229 100.724 100.042 100.705 100.398C100.684 100.759 100.806 101.112 101.047 101.393L104.951 105.935C105.192 106.214 105.522 106.388 105.881 106.422C106.23 106.455 106.575 106.35 106.838 106.123C107.384 105.653 107.429 104.803 106.935 104.229L103.031 99.6875C102.789 99.4069 102.458 99.2323 102.098 99.1992C102.055 99.1947 102.013 99.1935 101.971 99.1935L101.972 99.1924Z" fill="black"/>
<path d="M101.455 102.495L104.744 106.323C105.281 106.947 105.18 107.913 104.519 108.481C103.859 109.05 102.887 109.003 102.351 108.379L99.3341 104.868C98.7976 104.244 98.6241 102.958 99.285 102.39C99.616 102.106 100.025 101.976 100.416 101.996C100.811 102.014 101.188 102.184 101.456 102.495H101.455Z" fill="white"/>
<path d="M103.463 109.275C103.432 109.275 103.4 109.275 103.369 109.273C102.85 109.248 102.38 109.022 102.049 108.637L99.0328 105.126C98.7098 104.75 98.4974 104.191 98.4643 103.63C98.4255 102.981 98.6253 102.434 99.0271 102.089C99.4231 101.749 99.9196 101.572 100.436 101.599C100.955 101.624 101.425 101.849 101.757 102.236L105.047 106.064C105.725 106.853 105.605 108.072 104.779 108.781C104.406 109.101 103.943 109.274 103.465 109.274L103.463 109.275ZM100.34 102.39C100.051 102.39 99.7701 102.496 99.543 102.691C99.3375 102.868 99.2325 103.193 99.2553 103.585C99.2782 103.972 99.4231 104.365 99.6343 104.61L102.651 108.121C102.839 108.34 103.108 108.468 103.407 108.481C103.707 108.499 104.017 108.39 104.26 108.181C104.755 107.757 104.837 107.039 104.443 106.582L101.153 102.754C100.965 102.534 100.696 102.406 100.397 102.391C100.377 102.391 100.359 102.39 100.34 102.39Z" fill="black"/>
<path d="M112.029 97.9851C112.029 97.9851 111.845 100.955 113.321 102.439C113.321 102.439 112.065 103.891 111.915 105.746C111.764 107.602 113.007 108.718 113.007 108.718" fill="white"/>
<path d="M113.005 109.114C112.911 109.114 112.816 109.081 112.741 109.013C112.684 108.962 111.354 107.742 111.518 105.715C111.641 104.219 112.418 102.986 112.804 102.456C111.474 100.816 111.626 98.0822 111.633 97.9601C111.646 97.7422 111.833 97.5722 112.053 97.5893C112.271 97.603 112.437 97.7901 112.425 98.0092C112.424 98.0377 112.272 100.821 113.601 102.161C113.748 102.308 113.756 102.542 113.621 102.699C113.608 102.713 112.448 104.082 112.309 105.781C112.177 107.407 113.227 108.385 113.272 108.426C113.433 108.574 113.445 108.824 113.299 108.986C113.22 109.072 113.113 109.117 113.005 109.117V109.114Z" fill="black"/>
<path d="M174.377 136.193L147.286 150.187C148.363 140.288 145.296 132.286 137.146 126.611C137.146 126.611 150.313 118.205 155.515 116.53C160.712 114.859 163.874 114.898 163.874 114.898L174.378 136.193H174.377Z" fill="white"/>
<path d="M151.719 147.896L147.284 150.186C148.36 140.285 145.293 132.286 137.144 126.61C137.144 126.61 138.728 125.599 141.013 124.208C149.088 130.038 152.381 138.061 151.721 147.896H151.719Z" fill="#00D094"/>
<path d="M147.285 150.584C147.206 150.584 147.129 150.56 147.061 150.515C146.94 150.433 146.875 150.29 146.891 150.145C147.997 139.972 144.735 132.381 136.919 126.936C136.81 126.861 136.747 126.735 136.749 126.603C136.751 126.471 136.82 126.349 136.931 126.277C137.471 125.932 150.201 117.824 155.391 116.153C160.589 114.48 163.739 114.502 163.877 114.501C164.027 114.503 164.162 114.589 164.228 114.722L174.732 136.018C174.828 136.212 174.75 136.445 174.559 136.545L147.468 150.539C147.411 150.568 147.348 150.583 147.286 150.583L147.285 150.584ZM137.856 126.631C145.292 132.03 148.619 139.719 147.752 149.501L173.85 136.02L163.63 115.299C162.806 115.329 159.904 115.534 155.635 116.908C151.111 118.365 140.304 125.089 137.857 126.631H137.856Z" fill="black"/>
<path d="M175.722 113.888C171.519 114.094 198.02 111.227 204.704 120.762C209.486 127.583 205.293 139.633 205.266 149.399C205.214 167.975 208.957 199.604 208.957 199.604H151.174C151.174 199.604 153.624 174.25 153.969 158.817C154.337 142.356 149.674 127.419 154.918 119.225C158.874 113.044 175.721 113.889 175.721 113.889L175.722 113.888Z" fill="white"/>
<path d="M151.175 200C151.162 200 151.15 200 151.136 199.998C150.918 199.977 150.758 199.783 150.78 199.565C150.804 199.312 153.233 174.05 153.573 158.807C153.704 152.95 153.206 147.402 152.724 142.037C152.312 137.444 151.921 133.106 152.031 129.292C152.038 129.073 152.217 128.893 152.438 128.908C152.658 128.913 152.83 129.096 152.824 129.315C152.716 133.082 153.104 137.397 153.514 141.966C153.975 147.102 154.498 152.924 154.365 158.825C154.025 174.097 151.593 199.389 151.569 199.642C151.549 199.847 151.376 200 151.175 200Z" fill="black"/>
<path d="M208.957 200C208.758 200 208.587 199.852 208.563 199.65C208.525 199.333 204.818 167.784 204.868 149.396C204.876 146.265 205.316 142.864 205.739 139.576C206.631 132.662 207.552 125.513 204.379 120.988C199.005 113.322 179.806 113.821 175.98 114.187C175.915 114.243 175.832 114.277 175.741 114.281C175.54 114.292 175.377 114.3 175.246 114.284C173.332 114.299 166.014 114.443 160.494 115.741C160.285 115.791 160.067 115.659 160.017 115.445C159.967 115.232 160.099 115.018 160.313 114.968C165.923 113.651 173.334 113.506 175.255 113.491C176.23 113.331 181.761 112.973 187.868 113.575C193.888 114.169 201.751 115.857 205.028 120.532C208.377 125.31 207.436 132.613 206.526 139.676C206.104 142.94 205.669 146.316 205.661 149.398C205.611 167.736 209.313 199.239 209.35 199.555C209.376 199.773 209.22 199.969 209.003 199.995C208.987 199.998 208.973 199.998 208.957 199.998V200Z" fill="black"/>
<path d="M185.603 94.2776C185.603 94.2776 186.384 110.892 189.096 114.431C189.096 114.431 176.778 121.482 169.609 120.661C164.954 120.129 167.283 114.473 167.283 114.473C167.283 114.473 173.543 110.194 171.411 103.325C169.278 96.4567 185.604 94.2776 185.604 94.2776H185.603Z" fill="white"/>
<path d="M170.842 121.125C170.403 121.125 169.975 121.102 169.564 121.055C168.268 120.907 167.342 120.374 166.808 119.47C165.636 117.484 166.863 114.451 166.916 114.322C166.945 114.251 166.995 114.189 167.058 114.146C167.304 113.977 173.048 109.943 171.03 103.442C170.637 102.174 170.797 100.967 171.508 99.8553C174.338 95.4276 185.094 93.9456 185.55 93.8851C185.661 93.8703 185.772 93.9023 185.857 93.9741C185.943 94.0449 185.994 94.1487 186 94.2594C186.008 94.4248 186.807 110.789 189.411 114.192C189.481 114.283 189.507 114.399 189.486 114.511C189.463 114.623 189.393 114.72 189.294 114.777C188.816 115.051 178.113 121.126 170.843 121.126L170.842 121.125ZM167.611 114.724C167.42 115.239 166.626 117.602 167.492 119.069C167.893 119.745 168.62 120.149 169.654 120.267C175.925 120.984 186.421 115.448 188.526 114.294C186.185 110.418 185.37 97.3557 185.228 94.734C183.195 95.0568 174.506 96.6347 172.175 100.282C171.589 101.2 171.462 102.156 171.788 103.207C173.827 109.772 168.437 114.107 167.611 114.724Z" fill="black"/>
<path d="M177.629 102.745C173.814 104.666 169.184 105.682 165.028 102.945C158.901 98.9037 159.515 85.2166 163.94 76.4444C166.111 72.1444 169.197 69.0276 172.854 68.8085C181.921 68.2678 187.682 73.0241 188.437 75.8683C189.189 78.7125 186.406 89.6672 186.406 89.6672C186.406 89.6672 188.093 85.7848 190.417 87.0534C192.742 88.3221 191.049 97.4947 185.6 96.8353" fill="white"/>
<path d="M170.646 105.029C168.534 105.029 166.585 104.445 164.81 103.276C158.535 99.1364 158.999 85.3581 163.586 76.2665C166.037 71.4132 169.32 68.6237 172.832 68.4138C182.479 67.8377 188.089 73.0058 188.821 75.7679C189.384 77.8933 188.102 84.1431 187.327 87.5326C187.725 87.1002 188.204 86.7157 188.753 86.5275C189.376 86.313 190.002 86.3735 190.61 86.7066C192.072 87.5052 192.092 90.3414 191.366 92.6038C190.57 95.0841 188.625 97.6008 185.556 97.23C185.339 97.2038 185.184 97.0064 185.21 96.7885C185.236 96.5706 185.432 96.4166 185.652 96.4428C188.912 96.8353 190.272 93.4184 190.611 92.3619C191.314 90.1692 191.14 87.8988 190.23 87.4025C189.819 87.1778 189.421 87.1367 189.012 87.277C187.703 87.7254 186.782 89.8052 186.773 89.8269C186.69 90.0163 186.476 90.111 186.281 90.0437C186.086 89.9764 185.974 89.771 186.025 89.5713C186.052 89.463 188.774 78.684 188.057 75.9721C187.338 73.2625 181.654 68.6853 172.881 69.2067C169.663 69.3995 166.615 72.0338 164.296 76.6258C159.948 85.2451 159.403 98.7611 165.248 102.616C168.63 104.844 172.736 104.769 177.452 102.394C177.648 102.294 177.886 102.374 177.985 102.569C178.084 102.764 178.006 103.003 177.809 103.102C175.255 104.389 172.863 105.032 170.648 105.032L170.646 105.029Z" fill="black"/>
<path d="M185.603 96.8352C191.051 97.4947 192.743 88.322 190.419 87.0534C188.094 85.7847 186.409 89.6671 186.409 89.6671C186.409 89.6671 185.875 90.0265 185.437 89.5451C184.999 89.0625 184.063 81.4939 186.168 76.5003C186.168 76.5003 169.846 79.5818 162.534 77.5533C156.696 75.9344 156.169 73.55 155.683 72.4593C152.288 64.8611 157.99 57.58 162.109 60.2907C166.229 63.0037 179.195 52.146 188.666 57.1157C198.139 62.0899 195.823 68.845 195.823 68.845C195.823 68.845 199.679 69.8615 201.322 76.9909C202.963 84.1225 194.756 101.752 185.605 96.8352H185.603Z" fill="black"/>
<path d="M188.827 98.0823C187.675 98.0823 186.531 97.7834 185.414 97.1844C185.247 97.0943 185.167 96.8969 185.224 96.7155C185.281 96.5341 185.457 96.4189 185.65 96.4417C188.909 96.8342 190.27 93.4173 190.609 92.3608C191.312 90.1681 191.137 87.8977 190.228 87.4014C189.817 87.1767 189.418 87.1356 189.01 87.2759C187.701 87.7243 186.779 89.8041 186.77 89.8258C186.741 89.8942 186.69 89.9536 186.629 89.9958C186.346 90.1863 185.672 90.3939 185.142 89.811C184.556 89.1664 183.773 81.9948 185.54 77.016C182.303 77.5865 168.966 79.7496 162.424 77.9356C156.866 76.3943 155.933 74.1182 155.433 72.8963C155.392 72.7971 155.355 72.7058 155.318 72.6214C153.094 67.646 154.601 62.7722 157.24 60.5315C158.867 59.1499 160.768 58.9366 162.324 59.9611C163.863 60.9742 167.059 59.7797 170.76 58.397C176.276 56.3365 183.142 53.773 188.848 56.7666C197.228 61.167 196.616 67.0642 196.291 68.5987C197.338 69.0516 200.308 70.8382 201.705 76.9042C202.853 81.8864 199.366 91.9763 193.812 96.2124C192.178 97.4582 190.495 98.0846 188.826 98.0846L188.827 98.0823ZM187.349 97.1046C189.325 97.6168 191.33 97.1069 193.332 95.5792C198.529 91.6158 202.02 81.7963 200.934 77.0788C199.374 70.3088 195.754 69.2364 195.718 69.2261C195.613 69.1976 195.523 69.1257 195.471 69.0288C195.42 68.9318 195.411 68.8177 195.446 68.715C195.535 68.4526 197.518 62.2098 188.481 57.4649C183.089 54.6355 176.409 57.1306 171.041 59.1362C166.975 60.6548 163.763 61.8538 161.891 60.6194C160.627 59.7877 159.12 59.9748 157.757 61.1328C155.403 63.1327 154.002 67.7248 156.045 72.2962C156.086 72.3875 156.126 72.4868 156.171 72.594C156.621 73.6904 157.457 75.7326 162.64 77.1701C169.781 79.1506 185.931 76.1398 186.095 76.109C186.238 76.0817 186.385 76.1364 186.477 76.2494C186.568 76.3635 186.59 76.5175 186.534 76.6521C184.494 81.4917 185.422 88.7397 185.752 89.3021C185.869 89.4276 186.006 89.4174 186.106 89.3774C186.35 88.864 187.316 87.0181 188.754 86.5241C189.377 86.3096 190.003 86.3701 190.611 86.7032C192.073 87.5018 192.093 90.338 191.367 92.6004C190.739 94.557 189.397 96.5376 187.35 97.1034L187.349 97.1046Z" fill="black"/>
<path d="M204.881 154.12C204.881 154.12 200.157 154.36 192.184 150.101C186.27 146.943 183.109 142.765 184.012 140.753C185.923 136.492 194.972 137.818 195.666 138.294C196.36 138.769 203.168 139.124 203.278 139.415C203.389 139.706 205.789 143.947 205.828 144.118C205.867 144.289 204.882 154.119 204.882 154.119L204.881 154.12Z" fill="black"/>
<path d="M204.713 154.519C203.743 154.519 199.192 154.293 191.997 150.45C186.22 147.364 182.553 143.034 183.65 140.591C184.243 139.268 185.494 138.329 187.367 137.802C190.734 136.855 195.268 137.541 195.89 137.966C196.236 138.174 198.733 138.428 200.226 138.58C203.405 138.903 203.525 138.95 203.648 139.275C203.71 139.423 204.355 140.588 204.873 141.523C206.069 143.684 206.188 143.914 206.214 144.031C206.232 144.113 206.267 144.265 205.276 154.159C205.256 154.354 205.097 154.505 204.901 154.515C204.882 154.515 204.818 154.518 204.713 154.518V154.519ZM191.307 138.121C189.985 138.121 188.544 138.256 187.301 138.651C185.823 139.121 184.838 139.883 184.373 140.916C183.593 142.657 186.685 146.714 192.371 149.751C198.968 153.274 203.319 153.682 204.522 153.722C204.888 150.069 205.393 144.89 205.43 144.199C205.291 143.915 204.678 142.809 204.179 141.907C203.508 140.693 203.133 140.015 202.98 139.714C202.581 139.616 201.241 139.48 200.145 139.368C197.154 139.064 195.839 138.893 195.44 138.62C195.147 138.446 193.37 138.12 191.305 138.12L191.307 138.121Z" fill="black"/>
<path d="M130.016 163.871C130.016 163.871 124.238 158.885 127.51 157.536C130.785 156.183 138.993 162.374 138.993 162.374" fill="white"/>
<path d="M130.015 164.268C129.923 164.268 129.831 164.236 129.756 164.172C129.348 163.821 125.79 160.681 126.133 158.565C126.202 158.13 126.473 157.536 127.358 157.171C130.802 155.747 138.888 161.8 139.231 162.059C139.406 162.192 139.441 162.44 139.309 162.615C139.177 162.789 138.928 162.824 138.753 162.692C136.521 161.009 130.176 156.864 127.66 157.904C127.215 158.088 126.972 158.346 126.916 158.693C126.685 160.119 129.261 162.699 130.274 163.574C130.439 163.717 130.458 163.968 130.315 164.133C130.236 164.225 130.125 164.27 130.015 164.27V164.268Z" fill="black"/>
<path d="M127.219 181.714L112.452 182.86C109.952 183.054 107.769 181.186 107.575 178.687L105.519 152.21C105.325 149.712 107.194 147.529 109.693 147.335L124.461 146.19C126.96 145.996 129.144 147.863 129.338 150.362L131.394 176.839C131.588 179.338 129.719 181.52 127.219 181.714Z" fill="#00D094"/>
<path d="M112.094 183.269C110.919 183.269 109.795 182.855 108.892 182.084C107.89 181.227 107.283 180.032 107.18 178.717L105.124 152.24C104.913 149.528 106.951 147.15 109.664 146.939L124.43 145.794C127.142 145.583 129.523 147.619 129.733 150.331L131.788 176.809C131.89 178.123 131.475 179.397 130.617 180.399C129.76 181.401 128.564 182.007 127.249 182.109L112.482 183.254C112.352 183.265 112.222 183.269 112.091 183.269H112.094ZM124.816 146.571C124.708 146.571 124.601 146.575 124.492 146.583L109.725 147.729C107.448 147.906 105.738 149.901 105.915 152.177L107.971 178.656C108.057 179.758 108.567 180.762 109.407 181.48C110.248 182.199 111.314 182.549 112.421 182.463L127.189 181.317C128.291 181.232 129.296 180.722 130.015 179.882C130.734 179.041 131.083 177.971 130.997 176.869L128.942 150.39C128.773 148.223 126.955 146.57 124.815 146.57L124.816 146.571Z" fill="black"/>
<path d="M138.993 162.374L178.993 157.645L193.142 131.155L206.752 143.907C206.752 143.907 197.353 171.839 190.366 174.974C178.033 180.515 139.962 179.251 139.962 179.251L139.827 179.24C139.827 179.24 123.241 180.864 118.178 178.505C114.936 176.995 116.88 175.339 116.88 175.339C113.323 173.592 116.521 171.226 116.521 171.226C114.997 170.96 113.565 169.357 114.863 167.97C116.126 166.619 122.967 167.267 123.322 167.302C122.954 167.23 115.114 166.826 116.068 164.463C117.367 161.233 131.28 163.775 131.28 163.775" fill="white"/>
<path d="M128.624 180.187C124.456 180.187 120.212 179.89 118.011 178.864C116.733 178.27 116.03 177.556 115.92 176.745C115.848 176.209 116.052 175.759 116.26 175.456C115.365 174.92 114.879 174.277 114.811 173.539C114.731 172.66 115.285 171.885 115.737 171.407C114.945 171.073 114.3 170.448 114.063 169.74C113.825 169.031 114.007 168.307 114.574 167.701C115.097 167.142 116.355 166.881 117.771 166.776C116.846 166.47 116.117 166.067 115.788 165.53C115.561 165.158 115.53 164.738 115.702 164.316C117.082 160.885 129.896 163.12 131.354 163.387C131.569 163.427 131.712 163.634 131.672 163.848C131.633 164.064 131.425 164.204 131.211 164.167C125.954 163.207 117.295 162.478 116.438 164.612C116.36 164.802 116.369 164.958 116.466 165.116C116.81 165.677 118.218 166.437 122.984 166.869C123.207 166.89 123.355 166.905 123.399 166.914C123.607 166.954 123.746 167.15 123.717 167.36C123.687 167.569 123.504 167.72 123.286 167.698C120.477 167.425 115.995 167.345 115.156 168.243C114.786 168.638 114.673 169.057 114.817 169.489C115.032 170.129 115.778 170.696 116.592 170.838C116.748 170.866 116.873 170.983 116.909 171.137C116.946 171.291 116.888 171.452 116.761 171.547C116.414 171.806 115.529 172.655 115.605 173.47C115.656 174.028 116.145 174.538 117.058 174.987C117.177 175.046 117.26 175.161 117.276 175.294C117.293 175.426 117.241 175.558 117.14 175.645C117.136 175.648 116.632 176.094 116.71 176.647C116.783 177.165 117.35 177.685 118.349 178.15C123.255 180.435 139.626 178.866 139.792 178.85C139.816 178.847 139.841 178.847 139.866 178.85L140.001 178.862C140.359 178.874 178.099 180.059 190.206 174.618C196.618 171.741 205.357 146.76 206.296 144.027L193.25 131.805L179.344 157.838C179.284 157.952 179.17 158.03 179.041 158.045L139.041 162.774C138.823 162.798 138.627 162.643 138.6 162.427C138.575 162.209 138.73 162.013 138.947 161.986L178.742 157.283L192.793 130.975C192.852 130.867 192.957 130.791 193.079 130.771C193.202 130.751 193.324 130.789 193.414 130.872L207.024 143.624C207.137 143.73 207.178 143.892 207.129 144.039C206.744 145.186 197.594 172.172 190.53 175.343C178.256 180.858 141.51 179.706 139.951 179.654L139.831 179.644C139.222 179.703 133.986 180.192 128.626 180.192L128.624 180.187Z" fill="black"/>
<path d="M116.521 171.623C116.303 171.623 116.126 171.448 116.125 171.229C116.124 171.01 116.301 170.832 116.519 170.831L123.631 170.792H123.633C123.851 170.792 124.028 170.967 124.029 171.186C124.03 171.406 123.853 171.584 123.635 171.585L116.523 171.623H116.521Z" fill="black"/>
<path d="M116.88 175.737C116.666 175.737 116.49 175.568 116.484 175.354C116.477 175.135 116.648 174.952 116.867 174.945L124.017 174.718C124.242 174.708 124.42 174.884 124.425 175.102C124.432 175.321 124.261 175.503 124.042 175.51L116.892 175.737C116.892 175.737 116.883 175.737 116.879 175.737H116.88Z" fill="black"/>
<path d="M202.794 118.742C202.794 118.742 208.35 123.175 209.383 130.452C210.818 140.571 204.882 154.12 204.882 154.12C204.882 154.12 199.58 139.951 184.012 140.754L191.37 126.094" fill="white"/>
<path d="M206.751 149.925V149.928C205.15 152.822 204.881 154.122 204.881 154.122C204.881 154.122 199.581 139.951 184.012 140.756L186.227 135.972C199.823 135.568 206.01 146.145 206.751 149.926V149.925Z" fill="#00D094"/>
<path d="M204.882 154.516H204.871C204.71 154.511 204.567 154.41 204.51 154.259C204.457 154.12 199.11 140.379 184.032 141.15C183.883 141.16 183.757 141.09 183.68 140.971C183.602 140.854 183.594 140.703 183.657 140.577L191.015 125.916C191.113 125.72 191.352 125.641 191.547 125.74C191.743 125.838 191.822 126.076 191.724 126.271L184.666 140.332C184.865 140.328 185.064 140.326 185.26 140.326C197.771 140.326 203.424 150.105 204.867 153.113C206.112 149.999 210.187 138.96 208.989 130.508C207.991 123.479 202.6 119.096 202.546 119.053C202.374 118.916 202.347 118.667 202.483 118.496C202.62 118.325 202.869 118.298 203.04 118.433C203.272 118.618 208.73 123.048 209.773 130.398C211.208 140.51 205.302 154.143 205.243 154.28C205.18 154.425 205.037 154.517 204.88 154.517L204.882 154.516Z" fill="black"/>
<path d="M173.597 85.8509C173.521 86.6107 172.988 87.18 172.406 87.1218C171.824 87.0637 171.413 86.4008 171.489 85.641C171.564 84.8812 172.097 84.3119 172.679 84.3701C173.261 84.4282 173.672 85.0911 173.597 85.8509Z" fill="black"/>
<path d="M166.723 84.3245C166.648 85.0844 166.115 85.6537 165.531 85.5955C164.949 85.5373 164.538 84.8745 164.614 84.1146C164.689 83.3548 165.222 82.7855 165.805 82.8437C166.387 82.9019 166.798 83.5647 166.723 84.3245Z" fill="black"/>
<path d="M171.754 81.6434C171.754 81.6434 173.66 80.6531 175.634 82.6747L171.754 81.6434Z" fill="white"/>
<path d="M175.635 83.0705C175.532 83.0705 175.43 83.0306 175.351 82.9508C173.62 81.179 172.004 81.9616 171.935 81.9958C171.739 82.094 171.501 82.0175 171.402 81.8224C171.302 81.6285 171.378 81.3912 171.57 81.2908C171.66 81.244 173.763 80.191 175.917 82.3974C176.07 82.5537 176.066 82.8047 175.91 82.9576C175.832 83.0329 175.733 83.0705 175.633 83.0705H175.635Z" fill="black"/>
<path d="M164.04 80.7091C164.04 80.7091 165.946 79.7188 167.919 81.7404L164.04 80.7091Z" fill="white"/>
<path d="M167.919 82.1362C167.816 82.1362 167.713 82.0963 167.635 82.0164C165.905 80.2435 164.288 81.0273 164.219 81.0603C164.024 81.1573 163.786 81.0809 163.686 80.8869C163.586 80.693 163.662 80.4557 163.855 80.3553C163.944 80.3097 166.046 79.2555 168.201 81.4619C168.354 81.6182 168.351 81.8692 168.194 82.0221C168.117 82.0974 168.017 82.1351 167.917 82.1351L167.919 82.1362Z" fill="black"/>
<path d="M168.223 85.9924C167.605 88.0152 166.988 90.0391 166.37 92.0619C166.269 92.395 166.166 92.7441 166.231 93.0864C166.315 93.5302 166.677 93.8816 167.087 94.0733C167.497 94.2649 167.953 94.3231 168.403 94.379" fill="white"/>
<path d="M168.402 94.7738C168.386 94.7738 168.37 94.7738 168.353 94.7703C167.901 94.7144 167.388 94.6505 166.918 94.4304C166.344 94.1622 165.941 93.6865 165.841 93.1583C165.756 92.7122 165.885 92.2866 165.99 91.9444L167.843 85.8749C167.907 85.665 168.127 85.5475 168.338 85.6114C168.548 85.6753 168.666 85.8966 168.602 86.1065L166.749 92.176C166.666 92.4487 166.572 92.7567 166.62 93.01C166.683 93.3374 166.989 93.5872 167.255 93.7116C167.611 93.8782 168.038 93.9318 168.451 93.9831C168.668 94.0105 168.823 94.2079 168.796 94.4247C168.771 94.6254 168.601 94.7726 168.403 94.7726L168.402 94.7738Z" fill="black"/>
<path d="M171.851 97.4788C170.519 98.6242 168.769 98.9414 167.142 98.1827L171.851 97.4788Z" fill="white"/>
<path d="M168.965 98.9915C168.296 98.9915 167.621 98.8432 166.974 98.5408C166.776 98.4484 166.69 98.2123 166.782 98.0137C166.875 97.8152 167.111 97.7297 167.31 97.8221C168.744 98.4906 170.346 98.2499 171.592 97.1775C171.758 97.0349 172.008 97.0531 172.151 97.2197C172.294 97.3863 172.276 97.6361 172.109 97.7787C171.178 98.5796 170.079 98.9915 168.965 98.9915Z" fill="black"/>
<path d="M186.889 76.0702C186.732 76.0702 186.583 75.9755 186.52 75.8204C186.337 75.3617 185.856 74.9955 185.235 74.8426C184.626 74.6932 183.96 74.7422 183.316 74.7913L172.28 75.6184C169.895 75.7976 167.427 75.9824 165.01 75.477C162.274 74.9054 160.052 73.4439 158.914 71.4679C157.601 69.1896 157.782 66.1275 159.354 64.0192C159.485 63.8435 159.733 63.807 159.909 63.9382C160.085 64.0694 160.121 64.3169 159.99 64.4926C158.602 66.3545 158.442 69.0595 159.601 71.072C160.627 72.853 162.657 74.1752 165.172 74.7C167.48 75.1815 169.89 75.0012 172.221 74.8267L183.257 73.9995C183.931 73.9493 184.693 73.8923 185.425 74.0725C186.293 74.287 186.978 74.8301 187.257 75.526C187.338 75.7291 187.238 75.9596 187.035 76.0417C186.987 76.0611 186.937 76.0702 186.888 76.0702H186.889Z" fill="white"/>
<path d="M193.784 69.2639C193.755 69.2639 193.725 69.2604 193.695 69.2536C193.482 69.2045 193.348 68.9923 193.398 68.779C193.787 67.0825 193.45 65.2012 192.497 63.7455C191.544 62.2897 189.954 61.2275 188.243 60.9047C188.027 60.8647 187.887 60.6571 187.927 60.4415C187.968 60.227 188.177 60.0844 188.39 60.1255C190.309 60.4871 192.092 61.6782 193.16 63.3108C194.228 64.9434 194.606 67.054 194.17 68.9558C194.128 69.1395 193.965 69.2639 193.784 69.2639Z" fill="white"/>
<path d="M199.134 83.8441C199.111 83.8441 199.087 83.8418 199.064 83.8384C198.849 83.7996 198.705 83.5943 198.744 83.3786C199.354 79.9537 198.286 76.2219 195.953 73.6401C195.806 73.477 195.819 73.2271 195.981 73.0799C196.143 72.9339 196.395 72.9453 196.542 73.1085C199.035 75.8682 200.178 79.8567 199.524 83.5178C199.49 83.7095 199.323 83.8441 199.134 83.8441Z" fill="white"/>
<path d="M169.713 72.0863C168.878 72.0863 168.029 72.0247 167.183 71.865C164.81 71.4166 162.829 70.1879 161.747 68.4914C161.629 68.3066 161.684 68.0613 161.869 67.9438C162.052 67.8252 162.298 67.8811 162.416 68.0647C163.38 69.5764 165.172 70.6785 167.33 71.0858C169.203 71.4395 171.124 71.298 173.43 70.9774C173.648 70.9455 173.846 71.0983 173.877 71.3151C173.907 71.5319 173.756 71.7327 173.539 71.7623C172.356 71.9266 171.053 72.0852 169.713 72.0852V72.0863Z" fill="white"/>
<path d="M138.557 67.1461C146.766 67.1461 153.42 60.4946 153.42 52.2896C153.42 44.0846 146.766 37.4331 138.557 37.4331C130.348 37.4331 123.694 44.0846 123.694 52.2896C123.694 60.4946 130.348 67.1461 138.557 67.1461Z" fill="#00D094"/>
<path d="M135.73 65.5318C127.315 65.5318 120.47 58.69 120.47 50.2795C120.47 41.8689 127.317 35.0271 135.73 35.0271C144.143 35.0271 150.989 41.8701 150.989 50.2795C150.989 58.6889 144.143 65.5318 135.73 65.5318ZM135.73 35.8189C127.753 35.8189 121.264 42.3059 121.264 50.2795C121.264 58.253 127.754 64.7389 135.73 64.7389C143.706 64.7389 150.196 58.2519 150.196 50.2795C150.196 42.307 143.706 35.8189 135.73 35.8189Z" fill="black"/>
<path d="M133.792 56.69C133.538 56.69 133.285 56.593 133.091 56.4002L130.213 53.5252C129.826 53.1384 129.826 52.5109 130.213 52.1242C130.6 51.7374 131.228 51.7374 131.615 52.1242L133.791 54.2987L141.619 46.4734C142.006 46.0867 142.634 46.0867 143.021 46.4734C143.408 46.8602 143.408 47.4877 143.021 47.8744L134.491 56.4002C134.297 56.5941 134.044 56.69 133.791 56.69H133.792Z" fill="white"/>
<path d="M181.65 20.0418L184.567 18.3419L182.476 10.9491L180.211 8.67871L179.504 18.5678C179.309 19.7692 180.597 20.6499 181.65 20.0418Z" fill="#FEC524"/>
<path d="M180.924 20.635C180.56 20.635 180.197 20.5255 179.881 20.3076C179.292 19.9014 178.999 19.2112 179.113 18.505L179.816 8.65128C179.826 8.49612 179.928 8.36264 180.073 8.30787C180.218 8.25311 180.381 8.28962 180.492 8.39914L182.757 10.6695C182.805 10.7174 182.839 10.7767 182.858 10.8418L184.949 18.2346C184.998 18.4092 184.924 18.594 184.767 18.6853L181.85 20.3852H181.849C181.559 20.5529 181.241 20.6362 180.924 20.6362V20.635ZM180.544 9.57425L179.899 18.5963C179.83 19.0389 179.992 19.4211 180.331 19.655C180.672 19.89 181.091 19.906 181.45 19.6984L184.102 18.1536L182.123 11.1555L180.544 9.57425Z" fill="black"/>
<path d="M182.472 12.7687L185.741 24.3235L204.279 2.81346C205.131 1.82546 204.361 0.302396 203.06 0.400511L171.997 2.75414L180.368 10.082" fill="#FEC524"/>
<path d="M185.741 24.7194C185.712 24.7194 185.684 24.7159 185.655 24.7102C185.513 24.6783 185.398 24.571 185.36 24.4307L182.091 12.8759C182.031 12.6649 182.153 12.4458 182.365 12.3865C182.576 12.3283 182.795 12.4492 182.854 12.6603L185.922 23.5055L203.979 2.55444C204.323 2.15627 204.279 1.68509 204.123 1.37819C203.968 1.07016 203.609 0.755275 203.09 0.796346L172.969 3.07924L180.629 9.7853C180.793 9.93019 180.81 10.18 180.665 10.3443C180.521 10.5098 180.27 10.5246 180.106 10.382L171.735 3.05414C171.615 2.94918 171.569 2.78147 171.621 2.63087C171.671 2.47914 171.808 2.37304 171.967 2.36163L203.03 0.00571993C203.79 -0.0524647 204.484 0.336574 204.829 1.0211C205.175 1.70562 205.079 2.49169 204.578 3.07239L186.04 24.5825C185.963 24.6714 185.853 24.7205 185.74 24.7205L185.741 24.7194Z" fill="black"/>
<path d="M187.866 9.78761C187.721 9.78761 187.581 9.70775 187.511 9.56856C187.413 9.37233 187.492 9.13503 187.688 9.03691L204.238 0.743892C204.434 0.645776 204.673 0.725638 204.77 0.920727C204.868 1.11696 204.789 1.35426 204.593 1.45238L188.043 9.7454C187.986 9.77392 187.925 9.78761 187.866 9.78761Z" fill="black"/>
</g>
<defs>
<clipPath id="clip0_1208_1726">
<rect width="210" height="200" fill="white"/>
</clipPath>
</defs>
</svg>
