<svg width="258" height="194" viewBox="0 0 258 194" fill="none" xmlns="http://www.w3.org/2000/svg">
<g clip-path="url(#clip0_1208_1393)">
<path d="M199.453 0.378174H50.1635C42.6336 0.378174 36.5294 6.53253 36.5294 14.1243V142.663C36.5294 150.255 42.6336 156.41 50.1635 156.41H199.453C206.983 156.41 213.087 150.255 213.087 142.663V14.1243C213.087 6.53253 206.983 0.378174 199.453 0.378174Z" fill="white"/>
<path d="M199.455 156.79H50.1635C42.4392 156.79 36.1544 150.453 36.1544 142.666V14.1243C36.1544 6.33647 42.4392 0 50.1635 0H199.453C207.177 0 213.462 6.33647 213.462 14.1243V142.666C213.462 150.453 207.177 156.79 199.453 156.79H199.455ZM50.1635 0.758453C42.8533 0.758453 36.9045 6.75613 36.9045 14.1265V142.668C36.9045 150.038 42.8511 156.034 50.1635 156.034H199.453C206.763 156.034 212.712 150.038 212.712 142.668V14.1243C212.712 6.75395 206.763 0.756267 199.453 0.756267H50.1635V0.758453Z" fill="#242B2B"/>
<path d="M60.1121 27.418H59.3599V72.5667H60.1121V27.418Z" fill="#242B2B"/>
<path d="M76.9222 54.3463H76.1699V88.3761H76.9222V54.3463Z" fill="#242B2B"/>
<path d="M93.7302 30.2311H92.9779V75.3798H93.7302V30.2311Z" fill="#242B2B"/>
<path d="M110.54 43.0264H109.788V88.1751H110.54V43.0264Z" fill="#242B2B"/>
<path d="M127.35 17.8423H126.598V58.4075H127.35V17.8423Z" fill="#242B2B"/>
<path d="M144.16 40.6046H143.408V78.936H144.16V40.6046Z" fill="#242B2B"/>
<path d="M160.97 49.9901H160.218V88.175H160.97V49.9901Z" fill="#242B2B"/>
<path d="M177.778 32.2747H177.026V67.0739H177.778V32.2747Z" fill="#242B2B"/>
<path d="M115.017 54.72V80.632C115.017 82.0265 113.898 83.1521 112.517 83.1521H107.809C106.434 83.1521 105.315 82.0243 105.315 80.632V54.72C105.315 53.3255 106.434 52.1998 107.809 52.1998H112.517C113.9 52.1998 115.017 53.3277 115.017 54.72Z" fill="#CAFFEC"/>
<path d="M112.517 83.5324H107.809C106.226 83.5324 104.938 82.2319 104.938 80.6319V54.7199C104.938 53.12 106.226 51.8195 107.809 51.8195H112.517C114.102 51.8195 115.394 53.12 115.394 54.7199V80.6319C115.394 82.2297 114.104 83.5324 112.517 83.5324ZM107.806 52.5779C106.638 52.5779 105.688 53.5396 105.688 54.7199V80.6319C105.688 81.8144 106.638 82.774 107.806 82.774H112.515C113.688 82.774 114.64 81.8122 114.64 80.6319V54.7199C114.64 53.5375 113.686 52.5779 112.515 52.5779H107.806Z" fill="black"/>
<path d="M182.253 39.8111V56.9823C182.253 58.3768 181.134 59.5025 179.76 59.5025H175.051C173.668 59.5025 172.551 58.3746 172.551 56.9823V39.8111C172.551 38.4253 173.67 37.2975 175.051 37.2975H179.76C181.134 37.2975 182.253 38.4253 182.253 39.8111Z" fill="#CAFFEC"/>
<path d="M179.76 59.8827H175.051C173.466 59.8827 172.174 58.5822 172.174 56.9822V39.811C172.174 38.2154 173.464 36.9171 175.051 36.9171H179.76C181.342 36.9171 182.63 38.2154 182.63 39.811V56.9822C182.63 58.5822 181.342 59.8827 179.76 59.8827ZM175.051 37.6756C173.88 37.6756 172.926 38.6329 172.926 39.811V56.9822C172.926 58.1647 173.88 59.1243 175.051 59.1243H179.76C180.928 59.1243 181.878 58.1625 181.878 56.9822V39.811C181.878 38.6329 180.928 37.6756 179.76 37.6756H175.051Z" fill="black"/>
<path d="M148.635 57.8237V71.395C148.635 72.7808 147.516 73.9086 146.135 73.9086H141.433C140.05 73.9086 138.933 72.7808 138.933 71.395V57.8237C138.933 56.4292 140.052 55.3036 141.433 55.3036H146.135C147.518 55.3036 148.635 56.4314 148.635 57.8237Z" fill="#CAFFEC"/>
<path d="M146.135 74.2889H141.433C139.846 74.2889 138.556 72.9906 138.556 71.3972V57.8259C138.556 56.2259 139.846 54.9254 141.433 54.9254H146.135C147.72 54.9254 149.012 56.2259 149.012 57.8259V71.3972C149.012 72.9906 147.722 74.2889 146.135 74.2889ZM141.433 55.6817C140.26 55.6817 139.308 56.6434 139.308 57.8237V71.395C139.308 72.5731 140.262 73.5305 141.433 73.5305H146.135C147.308 73.5305 148.26 72.5731 148.26 71.395V57.8237C148.26 56.6412 147.306 55.6817 146.135 55.6817H141.433Z" fill="black"/>
<path d="M81.399 61.5002V81.2243C81.399 82.6101 80.2803 83.7379 78.8993 83.7379H74.1906C72.8162 83.7379 71.6975 82.6101 71.6975 81.2243V61.5002C71.6975 60.1057 72.8162 58.9866 74.1906 58.9866H78.8993C80.2825 58.9866 81.399 60.1079 81.399 61.5002Z" fill="#CAFFEC"/>
<path d="M78.8972 84.116H74.1884C72.6059 84.116 71.3181 82.8177 71.3181 81.2221V61.4979C71.3181 59.9023 72.6059 58.6062 74.1884 58.6062H78.8972C80.4841 58.6062 81.774 59.9045 81.774 61.4979V81.2221C81.774 82.8177 80.4841 84.116 78.8972 84.116ZM74.1884 59.3647C73.0199 59.3647 72.0704 60.322 72.0704 61.5001V81.2243C72.0704 82.4024 73.0199 83.3597 74.1884 83.3597H78.8972C80.07 83.3597 81.0217 82.4024 81.0217 81.2243V61.5001C81.0217 60.322 80.0678 59.3647 78.8972 59.3647H74.1884Z" fill="black"/>
<path d="M194.588 14.2205H193.836V54.3463H194.588V14.2205Z" fill="#242B2B"/>
<path d="M199.063 21.7636V42.786C199.063 44.1806 197.944 45.3062 196.57 45.3062H191.861C190.478 45.3062 189.361 44.1784 189.361 42.786V21.7636C189.361 20.3691 190.48 19.2434 191.861 19.2434H196.57C197.944 19.2434 199.063 20.3713 199.063 21.7636Z" fill="#00D094"/>
<path d="M196.57 45.6843H191.861C190.274 45.6843 188.984 44.3838 188.984 42.7838V21.7635C188.984 20.1657 190.274 18.863 191.861 18.863H196.57C198.152 18.863 199.44 20.1636 199.44 21.7635V42.7838C199.44 44.3838 198.152 45.6843 196.57 45.6843ZM191.861 19.6215C190.688 19.6215 189.737 20.5832 189.737 21.7635V42.7838C189.737 43.9663 190.69 44.9258 191.861 44.9258H196.57C197.738 44.9258 198.688 43.9641 198.688 42.7838V21.7635C198.688 20.581 197.738 19.6215 196.57 19.6215H191.861Z" fill="black"/>
<path d="M165.445 62.2851V75.8804C165.445 77.2662 164.326 78.394 162.945 78.394H158.243C156.86 78.394 155.744 77.2662 155.744 75.8804V62.2851C155.744 60.8993 156.862 59.7715 158.243 59.7715H162.945C164.328 59.7715 165.445 60.8993 165.445 62.2851Z" fill="#00D094"/>
<path d="M162.943 78.7743H158.241C156.654 78.7743 155.364 77.476 155.364 75.8804V62.285C155.364 60.6894 156.654 59.3911 158.241 59.3911H162.943C164.53 59.3911 165.82 60.6894 165.82 62.285V75.8804C165.82 77.476 164.53 78.7743 162.943 78.7743ZM158.241 60.1496C157.07 60.1496 156.116 61.1069 156.116 62.285V75.8804C156.116 77.0585 157.07 78.0158 158.241 78.0158H162.943C164.116 78.0158 165.068 77.0585 165.068 75.8804V62.285C165.068 61.1069 164.114 60.1496 162.943 60.1496H158.241Z" fill="black"/>
<path d="M131.827 32.3207V50.8646C131.827 52.2591 130.708 53.3847 129.327 53.3847H124.625C123.242 53.3847 122.126 52.2569 122.126 50.8646V32.3207C122.126 30.935 123.244 29.8071 124.625 29.8071H129.327C130.711 29.8071 131.827 30.935 131.827 32.3207Z" fill="#00D094"/>
<path d="M129.325 53.765H124.623C123.038 53.765 121.746 52.4645 121.746 50.8645V32.3207C121.746 30.7251 123.036 29.4268 124.623 29.4268H129.325C130.912 29.4268 132.202 30.7251 132.202 32.3207V50.8645C132.202 52.4645 130.912 53.765 129.325 53.765ZM124.623 30.1852C123.452 30.1852 122.498 31.1426 122.498 32.3207V50.8645C122.498 52.0448 123.452 53.0066 124.623 53.0066H129.325C130.498 53.0066 131.45 52.0448 131.45 50.8645V32.3207C131.45 31.1426 130.496 30.1852 129.325 30.1852H124.623Z" fill="black"/>
<path d="M98.2068 40.185V67.839C98.2068 69.2247 97.0882 70.3526 95.7072 70.3526H90.9985C89.624 70.3526 88.5054 69.2247 88.5054 67.839V40.185C88.5054 38.7905 89.624 37.6648 90.9985 37.6648H95.7072C97.0903 37.6648 98.2068 38.7926 98.2068 40.185Z" fill="#00D094"/>
<path d="M95.7072 70.7328H90.9985C89.4159 70.7328 88.1282 69.4345 88.1282 67.8389V40.1849C88.1282 38.5871 89.4159 37.2844 90.9985 37.2844H95.7072C97.2941 37.2844 98.5841 38.5849 98.5841 40.1849V67.8389C98.5841 69.4345 97.2941 70.7328 95.7072 70.7328ZM90.9985 38.0429C89.83 38.0429 88.8804 39.0046 88.8804 40.1849V67.8389C88.8804 69.017 89.83 69.9744 90.9985 69.9744H95.7072C96.8801 69.9744 97.8318 69.017 97.8318 67.8389V40.1849C97.8318 39.0024 96.8779 38.0429 95.7072 38.0429H90.9985Z" fill="black"/>
<path d="M64.5824 34.9545V65.026C64.5824 66.4117 63.4703 67.5396 62.0893 67.5396H57.3806C56.0061 67.5396 54.8875 66.4117 54.8875 65.026V34.9545C54.8875 33.5688 56.0061 32.4409 57.3806 32.4409H62.0893C63.4724 32.4409 64.5824 33.5688 64.5824 34.9545Z" fill="#00D094"/>
<path d="M62.0893 67.9198H57.3806C55.798 67.9198 54.5103 66.6215 54.5103 65.0259V34.9545C54.5103 33.3589 55.798 32.0605 57.3806 32.0605H62.0893C63.6719 32.0605 64.9596 33.3589 64.9596 34.9545V65.0259C64.9596 66.6215 63.6719 67.9198 62.0893 67.9198ZM57.3806 32.819C56.2121 32.819 55.2625 33.7764 55.2625 34.9545V65.0259C55.2625 66.204 56.2121 67.1614 57.3806 67.1614H62.0893C63.2578 67.1614 64.2074 66.204 64.2074 65.0259V34.9545C64.2074 33.7764 63.2578 32.819 62.0893 32.819H57.3806Z" fill="black"/>
<path d="M41.3358 5.37256H7.24519C3.24378 5.37256 0 8.64301 0 12.6773V24.5131C0 28.5474 3.24378 31.8179 7.24519 31.8179H41.3358C45.3372 31.8179 48.581 28.5474 48.581 24.5131V12.6773C48.581 8.64301 45.3372 5.37256 41.3358 5.37256Z" fill="#CAFFEC"/>
<path d="M9.44129 21.7701C9.95075 22.0848 10.6922 22.3493 11.4748 22.3493C12.6346 22.3493 13.3132 21.7307 13.3132 20.8367C13.3132 20.0084 12.8449 19.5362 11.6569 19.075C10.2239 18.5614 9.33723 17.8139 9.33723 16.5636C9.33723 15.1822 10.4711 14.1593 12.1794 14.1593C13.0791 14.1593 13.7316 14.3691 14.1218 14.5921L13.8075 15.5254C13.5213 15.368 12.9338 15.1057 12.1382 15.1057C10.9393 15.1057 10.4819 15.8292 10.4819 16.4325C10.4819 17.2609 11.0174 17.6674 12.2292 18.1417C13.7143 18.7188 14.4709 19.4422 14.4709 20.7428C14.4709 22.111 13.4671 23.2935 11.3946 23.2935C10.5469 23.2935 9.62123 23.0443 9.15295 22.7274L9.43912 21.7679L9.44129 21.7701Z" fill="#242B2B"/>
<path d="M20.5778 19.0095H17.1634V22.2029H20.9702V23.1624H16.0295V14.3036H20.7751V15.2631H17.1634V18.0631H20.5778V19.0095Z" fill="#242B2B"/>
<path d="M22.4445 14.3036H23.5783V22.2029H27.3331V23.1624H22.4445V14.3036Z" fill="#242B2B"/>
<path d="M28.5992 14.3036H29.7331V22.2029H33.4879V23.1624H28.5992V14.3036Z" fill="#242B2B"/>
<path d="M238.237 57.1747H200.606C196.605 57.1747 193.361 60.4451 193.361 64.4794V78.2431C193.361 82.2774 196.605 85.5478 200.606 85.5478H238.237C242.239 85.5478 245.482 82.2774 245.482 78.2431V64.4794C245.482 60.4451 242.239 57.1747 238.237 57.1747Z" fill="#00D094"/>
<path d="M206.21 66.8815C206.742 66.7701 207.581 66.6848 208.435 66.6848C209.651 66.6848 210.436 66.8946 211.023 67.3755C211.513 67.7427 211.808 68.3066 211.808 69.0542C211.808 69.97 211.205 70.7743 210.212 71.1415V71.17C211.108 71.3951 212.157 72.1426 212.157 73.5546C212.157 74.3721 211.836 74.9928 211.359 75.4584C210.702 76.066 209.638 76.348 208.099 76.348C207.26 76.348 206.616 76.2912 206.21 76.2365V66.8859V66.8815ZM207.429 70.7743H208.534C209.822 70.7743 210.577 70.0968 210.577 69.1809C210.577 68.0662 209.738 67.6291 208.506 67.6291C207.947 67.6291 207.624 67.6706 207.429 67.7143V70.7743ZM207.429 75.3294C207.667 75.371 208.016 75.3863 208.45 75.3863C209.709 75.3863 210.869 74.9207 210.869 73.5393C210.869 72.241 209.764 71.7055 208.435 71.7055H207.427V75.3294H207.429Z" fill="white"/>
<path d="M215.012 66.7548V72.383C215.012 74.512 215.949 75.4147 217.208 75.4147C218.607 75.4147 219.502 74.4835 219.502 72.383V66.7548H220.733V72.2978C220.733 75.218 219.209 76.4157 217.167 76.4157C215.235 76.4157 213.783 75.301 213.783 72.3546V66.7548H215.014H215.012Z" fill="white"/>
<path d="M224.946 76.2606V72.2279L221.967 66.7548H223.352L224.681 69.3777C225.045 70.0968 225.325 70.6738 225.618 71.3383H225.646C225.913 70.7175 226.233 70.0968 226.598 69.3777L227.955 66.7548H229.34L226.179 72.2126V76.2606H224.948H224.946Z" fill="white"/>
<path d="M99.2545 120.869C100.926 107.754 91.7348 95.756 78.7263 94.0712C65.7179 92.3864 53.8178 101.653 52.1468 114.768C50.4757 127.884 59.6665 139.881 72.675 141.566C85.6834 143.251 97.5835 133.985 99.2545 120.869Z" fill="#242B2B"/>
<path d="M75.7017 142.137C75.5846 142.137 75.4697 142.137 75.3548 142.137C62.0546 141.944 51.3884 130.88 51.577 117.471C51.6681 110.974 54.2631 104.905 58.8851 100.376C63.5071 95.8491 69.6293 93.4317 76.042 93.4973C89.3422 93.6896 100.008 104.754 99.8198 118.163C99.6312 131.455 88.8458 142.139 75.7038 142.139L75.7017 142.137ZM75.6887 94.2513C69.573 94.2513 63.8041 96.6098 59.4076 100.916C54.9308 105.302 52.416 111.184 52.3271 117.477C52.2383 123.772 54.5861 129.722 58.9371 134.237C63.2882 138.751 69.122 141.286 75.3635 141.376C75.4762 141.376 75.5889 141.378 75.7017 141.378C88.4361 141.378 98.8854 131.029 99.0675 118.15C99.2518 105.158 88.9173 94.4371 76.0312 94.2535C75.9163 94.2535 75.8014 94.2513 75.6887 94.2513Z" fill="#242B2B"/>
<path d="M101.292 119.367C102.132 106.171 92.2019 94.7872 79.1135 93.9408C66.025 93.0944 54.7342 103.106 53.8947 116.302C53.0552 129.498 62.9849 140.881 76.0733 141.728C89.1618 142.574 100.453 132.563 101.292 119.367Z" fill="white"/>
<path d="M96.1278 119.784C97.0992 109.669 89.7532 100.674 79.7199 99.6948C69.6867 98.7154 60.7657 106.122 59.7943 116.238C58.8229 126.353 66.169 135.348 76.2022 136.327C86.2354 137.306 95.1564 129.9 96.1278 119.784Z" fill="#00D094"/>
<path d="M77.6029 142.165C77.4859 142.165 77.371 142.165 77.2561 142.163C63.9559 141.971 53.2897 130.906 53.4783 117.497C53.5693 111.001 56.1644 104.931 60.7864 100.402C65.4084 95.8733 71.5197 93.4449 77.9433 93.5236C84.3864 93.6154 90.4088 96.2339 94.8986 100.892C99.3905 105.55 101.812 111.694 101.721 118.19C101.532 131.481 90.747 142.165 77.6051 142.165H77.6029ZM77.5899 94.2777C71.4742 94.2777 65.7054 96.6361 61.3088 100.944C56.8321 105.331 54.3173 111.213 54.2284 117.506C54.0441 130.498 64.3786 141.219 77.2647 141.404C90.1834 141.588 100.785 131.171 100.967 118.179C101.056 111.884 98.7076 105.934 94.3588 101.418C90.0078 96.9049 84.1739 94.3695 77.9325 94.2798C77.8176 94.2798 77.7027 94.2777 77.5899 94.2777Z" fill="#242B2B"/>
<path d="M84.8092 121.838C84.8395 119.722 83.1876 117.973 81.102 117.895C82.1318 117.884 83.064 117.464 83.749 116.793C84.458 116.098 84.9024 115.127 84.9176 114.054C84.9479 111.903 83.2439 110.137 81.1107 110.107L80.1633 110.094L80.198 107.571L78.3618 107.545L78.3271 110.067L76.725 110.043L76.7597 107.521L74.9234 107.495L74.8888 110.017H75.0969L73.2368 109.993L70.4423 109.954L70.4163 111.805L73.1436 111.844L72.9766 123.706L70.2494 123.667L70.2234 125.518L73.0178 125.558L75.4698 125.593L74.6698 125.582L74.6351 128.104L76.4713 128.13L76.506 125.608L78.1081 125.632L78.0734 128.154L79.9097 128.181L79.9443 125.658L80.8917 125.671C81.9605 125.687 82.9296 125.267 83.6407 124.572C84.3496 123.877 84.794 122.911 84.8092 121.833V121.838ZM76.0356 111.971L79.6755 112.024C80.8614 112.041 81.8109 113.027 81.7957 114.222C81.7871 114.821 81.5399 115.361 81.1432 115.75C80.7595 116.122 80.2435 116.356 79.6712 116.365C79.6495 116.36 79.6322 116.36 79.6148 116.36L75.9749 116.308L76.0356 111.973V111.971ZM81.3513 122.795C80.9459 123.188 80.3996 123.438 79.7904 123.442C79.7687 123.438 79.7514 123.438 79.7297 123.438L75.873 123.383L75.938 118.788L79.7948 118.843C81.0543 118.861 82.0602 119.905 82.0429 121.175C82.0342 121.809 81.7741 122.38 81.3513 122.795Z" fill="white"/>
<path d="M133.052 99.1081V109.75C133.052 111.923 131.302 113.696 129.139 113.696H115.598C113.434 113.696 111.685 111.921 111.685 109.75V99.1081C111.685 96.9355 113.434 95.1628 115.598 95.1628H129.139C131.304 95.1628 133.052 96.9377 133.052 99.1081Z" fill="#E6FFF5"/>
<path d="M185.624 97.7333H139.417V102.616H185.624V97.7333Z" fill="#E6FFF5"/>
<path d="M133.052 125.934V136.576C133.052 138.749 131.302 140.521 129.139 140.521H115.598C113.434 140.521 111.685 138.747 111.685 136.576V125.934C111.685 123.761 113.434 121.989 115.598 121.989H129.139C131.304 121.989 133.052 123.763 133.052 125.934Z" fill="#E6FFF5"/>
<path d="M197.604 106.242H139.417V111.114H197.604V106.242Z" fill="#E6FFF5"/>
<path d="M197.604 133.068H139.417V137.94H197.604V133.068Z" fill="#E6FFF5"/>
<path d="M185.624 124.559H139.417V129.442H185.624V124.559Z" fill="#E6FFF5"/>
<path d="M246.584 127.84H200.563C194.46 127.84 189.513 132.828 189.513 138.981V182.483C189.513 188.636 194.46 193.624 200.563 193.624H246.584C252.678 193.624 257.625 188.636 257.625 182.483V138.981C257.625 132.828 252.678 127.84 246.584 127.84Z" fill="white"/>
<path d="M246.584 194H200.563C194.263 194 189.138 188.833 189.138 182.481V138.978C189.138 132.627 194.263 127.459 200.563 127.459H246.584C252.879 127.459 258 132.627 258 138.978V182.481C258 188.833 252.879 194 246.584 194ZM200.563 128.218C194.677 128.218 189.89 133.046 189.89 138.978V182.481C189.89 188.415 194.679 193.242 200.563 193.242H246.584C252.465 193.242 257.25 188.413 257.25 182.481V138.978C257.25 133.044 252.465 128.218 246.584 128.218H200.563Z" fill="#242B2B"/>
<path d="M209.053 174.661H201.656V182.785H209.053V174.661Z" fill="#CAFFEC"/>
<path d="M221.195 158.635H213.798V182.787H221.195V158.635Z" fill="#00D094"/>
<path d="M233.34 165.647H225.943V182.787H233.34V165.647Z" fill="#CAFFEC"/>
<path d="M245.482 154.071H238.085V182.787H245.482V154.071Z" fill="#00D094"/>
<path d="M204.197 167.056L202.714 166.805C203.199 163.896 203.702 160.89 204.951 158.11C206.388 154.915 208.641 152.585 211.297 151.549C214.501 150.296 217.861 151.031 220.116 151.868C222.255 152.663 224.239 153.82 226.158 154.941C226.684 155.247 227.211 155.555 227.74 155.855C228.653 156.373 229.691 156.853 230.463 156.482C231.04 156.204 231.398 155.472 231.74 154.681L237.854 140.6L239.23 141.208L233.117 155.288C232.768 156.093 232.239 157.306 231.107 157.85C229.709 158.517 228.18 157.841 227.003 157.175C226.468 156.871 225.937 156.561 225.403 156.25C223.541 155.162 221.614 154.038 219.595 153.288C217.584 152.541 214.605 151.879 211.839 152.961C209.554 153.852 207.592 155.905 206.319 158.735C205.15 161.334 204.665 164.243 204.194 167.054L204.197 167.056Z" fill="#242B2B"/>
<path d="M240.531 145.372L234.227 142.532C232.935 141.951 232.846 140.135 234.075 139.429L239.148 136.513C240.162 135.929 241.446 136.508 241.693 137.66L242.924 143.415C243.224 144.81 241.823 145.955 240.531 145.374V145.372Z" fill="#242B2B"/>
</g>
<defs>
<clipPath id="clip0_1208_1393">
<rect width="258" height="194" fill="white"/>
</clipPath>
</defs>
</svg>
