<svg width="136" height="200" viewBox="0 0 136 200" fill="none" xmlns="http://www.w3.org/2000/svg">
<g clip-path="url(#clip0_1208_1631)">
<path d="M85.667 3.98676V11.9736C85.667 14.1719 83.8732 15.9604 81.6533 15.9604H54.9931C52.7799 15.9604 50.9794 14.1719 50.9794 11.9736V3.98676C50.9794 1.78848 52.7799 0 54.9931 0H81.6533C83.8732 0 85.667 1.78848 85.667 3.98676Z" fill="#00D094"/>
<path d="M77.9795 15.9603H58.5818V27.5052H77.9795V15.9603Z" fill="white"/>
<path d="M78.1106 27.6349H58.4517V15.8301H78.1106V27.6349ZM58.7124 27.3754H77.8488V16.0896H58.7124V27.3754Z" fill="black"/>
<path d="M77.9795 15.9603H58.5818V18.9659H77.9795V15.9603Z" fill="black"/>
<path d="M78.1106 19.0957H58.4517V15.8306H78.1106V19.0957ZM58.7124 18.8361H77.8488V16.0901H58.7124V18.8361Z" fill="black"/>
<path d="M55.892 0H55.6307V15.9599H55.892V0Z" fill="black"/>
<path d="M60.9168 0H60.6555V15.9599H60.9168V0Z" fill="black"/>
<path d="M65.9415 0H65.6802V15.9599H65.9415V0Z" fill="black"/>
<path d="M70.9662 0H70.705V15.9599H70.9662V0Z" fill="black"/>
<path d="M75.9909 0H75.7296V15.9599H75.9909V0Z" fill="black"/>
<path d="M81.0157 0H80.7544V15.9599H81.0157V0Z" fill="black"/>
<path d="M120.052 28.074L117.482 32.0941C116.775 33.2005 115.296 33.5313 114.179 32.8266L100.76 24.3632C99.646 23.6606 99.315 22.1891 100.022 21.0822L102.592 17.0621C103.3 15.9558 104.781 15.627 105.895 16.3297L119.314 24.793C120.432 25.4978 120.759 26.9672 120.052 28.074H120.052Z" fill="#00D094"/>
<path d="M112.335 31.6566L102.571 25.4994L98.8562 31.3108L108.62 37.468L112.335 31.6566Z" fill="white"/>
<path d="M108.656 37.6508L98.6716 31.354L102.526 25.3239L112.51 31.6207L108.656 37.6508ZM99.0321 31.2735L108.575 37.2923L112.15 31.7002L102.607 25.6813L99.0321 31.2735Z" fill="black"/>
<path d="M112.334 31.6567L102.57 25.4995L101.603 27.0124L111.367 33.1696L112.334 31.6567Z" fill="black"/>
<path d="M111.404 33.3523L101.419 27.0554L102.526 25.3234L112.51 31.6202L111.404 33.3523ZM101.78 26.9754L111.323 32.9943L112.15 31.7007L102.607 25.6819L101.78 26.9754Z" fill="black"/>
<path d="M106.176 16.5088L101.044 24.5442L101.264 24.6832L106.396 16.6479L106.176 16.5088Z" fill="black"/>
<path d="M108.705 18.1039L103.573 26.1393L103.794 26.278L108.926 18.2427L108.705 18.1039Z" fill="black"/>
<path d="M111.226 19.6913L106.094 27.7267L106.314 27.8654L111.446 19.8301L111.226 19.6913Z" fill="black"/>
<path d="M113.755 21.2864L108.623 29.3218L108.844 29.4605L113.975 21.4252L113.755 21.2864Z" fill="black"/>
<path d="M116.293 22.89L111.161 30.9258L111.382 31.0648L116.514 23.029L116.293 22.89Z" fill="black"/>
<path d="M118.822 24.485L113.69 32.5208L113.911 32.6598L119.043 24.624L118.822 24.485Z" fill="black"/>
<path d="M16.5536 28.074L19.1235 32.0941C19.8309 33.2005 21.3092 33.5313 22.4267 32.8266L35.8459 24.3632C36.9597 23.6606 37.2907 22.1891 36.5832 21.0822L34.0133 17.0621C33.3059 15.9558 31.8244 15.627 30.7101 16.3297L17.2909 24.793C16.1735 25.4978 15.8461 26.9672 16.5536 28.074Z" fill="#00D094"/>
<path d="M27.9904 37.4692L37.7544 31.312L34.04 25.5006L24.2761 31.6578L27.9904 37.4692Z" fill="white"/>
<path d="M27.9496 37.6508L24.095 31.6207L24.2055 31.5515L34.0793 25.3239L37.934 31.354L37.8235 31.4232L27.9496 37.6508ZM24.4559 31.7007L28.0302 37.2928L37.5736 31.274L33.9988 25.6819L24.4559 31.7007Z" fill="black"/>
<path d="M25.2422 33.1711L35.0062 27.0139L34.0392 25.501L24.2753 31.6582L25.2422 33.1711Z" fill="black"/>
<path d="M25.2021 33.3523L24.095 31.6202L24.2055 31.551L34.0793 25.3234L35.1864 27.0554L35.0759 27.1247L25.2021 33.3523ZM24.4559 31.7007L25.2826 32.9943L34.826 26.9754L33.9988 25.6819L24.4559 31.7007Z" fill="black"/>
<path d="M30.4342 16.5065L30.2136 16.6456L35.3483 24.6792L35.5689 24.5401L30.4342 16.5065Z" fill="black"/>
<path d="M27.9045 18.1013L27.6843 18.2401L32.819 26.2737L33.0391 26.1349L27.9045 18.1013Z" fill="black"/>
<path d="M25.3757 19.6965L25.1552 19.8356L30.2898 27.8691L30.5104 27.73L25.3757 19.6965Z" fill="black"/>
<path d="M22.8464 21.2914L22.6259 21.4305L27.7605 29.4641L27.9811 29.325L22.8464 21.2914Z" fill="black"/>
<path d="M20.3168 22.8862L20.0967 23.025L25.2313 31.0586L25.4515 30.9198L20.3168 22.8862Z" fill="black"/>
<path d="M17.787 24.4818L17.5669 24.6206L22.7016 32.6542L22.9217 32.5153L17.787 24.4818Z" fill="black"/>
<path d="M68.0003 23.1712C30.4447 23.1712 0 53.4117 0 90.7147C0 111.802 9.7293 130.631 24.9713 143.018C25.104 142.889 25.2434 142.766 25.39 142.651C26.0345 142.144 26.6696 141.712 27.3868 141.321C27.7612 141.117 28.1355 140.914 28.4918 140.68C28.5879 140.592 28.6798 140.5 28.7671 140.403C29.001 140.095 29.2457 139.792 29.5318 139.534C29.9309 139.173 30.3673 138.848 30.8149 138.549C31.3045 138.221 31.8301 137.95 32.3062 137.602C32.9331 137.145 33.5604 136.744 34.3376 136.554C34.9257 136.411 35.5934 136.365 36.2063 136.482C36.3767 136.425 36.5548 136.396 36.7407 136.395C37.3443 136.314 37.0294 136.336 37.2054 136.337C37.3965 136.338 37.9428 136.411 38.1272 136.462C38.3249 136.516 38.7876 136.711 38.9647 136.811C39.2275 136.96 39.5187 137.187 39.731 137.397C39.749 137.415 39.7635 137.436 39.7805 137.454C39.9732 137.664 40.188 137.932 40.3377 138.176C40.5525 138.527 40.6966 138.927 40.8329 139.312C40.8928 139.482 40.9377 139.656 40.9775 139.831C41.1949 140.795 41.3059 141.789 41.3869 142.775C42.1362 142.369 43.0171 142.244 43.8707 142.478C44.4356 142.635 44.9256 142.919 45.3418 143.329C45.4011 143.389 45.4574 143.449 45.5111 143.512C45.6511 143.451 45.7962 143.403 45.9475 143.368C46.5335 143.236 47.1341 143.236 47.7201 143.368C48.4183 143.526 49.0265 144.008 49.452 144.555C49.7469 144.875 49.9457 145.25 50.0489 145.682C50.0887 145.975 50.1284 146.268 50.1682 146.562C50.1357 147.514 49.9105 148.149 49.4995 148.999C49.421 149.162 49.3332 149.32 49.2475 149.479C49.1567 150.981 48.8122 152.472 48.317 153.889C48.159 154.341 47.9897 154.788 47.8167 155.234C49.7071 155.816 51.6331 156.319 53.5901 156.739C53.5886 156.708 53.587 156.678 53.586 156.647C53.5772 156.408 53.6025 156.168 53.6314 155.932C53.7053 155.33 53.8065 154.736 53.8979 154.139C53.9929 153.359 54.074 152.575 54.1607 151.796C54.2113 151.344 54.2516 150.891 54.2738 150.438C54.2351 150.207 54.2056 149.972 54.1798 149.73C54.1623 149.568 54.1571 149.413 54.1695 149.25C54.1943 148.927 54.2268 148.584 54.3027 148.258C54.3208 148.114 54.3456 147.97 54.3781 147.829C54.5717 146.984 55.1986 146.305 55.9102 145.849C56.6186 145.396 57.6813 145.297 58.4791 145.515C58.7119 145.579 58.9345 145.671 59.1446 145.784C59.3424 145.589 59.5644 145.418 59.8123 145.273C60.1949 145.031 60.608 144.9 61.0521 144.88C61.4951 144.781 61.9382 144.801 62.3817 144.939C62.9466 145.096 63.4366 145.38 63.8528 145.79C64.2107 146.227 64.5752 146.662 64.8179 147.174C64.8282 147.196 64.8381 147.218 64.8484 147.24C65.1861 147.207 65.5243 147.243 65.862 147.348C66.036 147.421 66.2095 147.494 66.3835 147.567C66.429 147.494 66.4765 147.421 66.5271 147.351C66.8235 146.853 67.2221 146.458 67.723 146.163C68.243 145.864 68.8037 145.713 69.4058 145.711C70.0074 145.713 70.5686 145.863 71.0886 146.163C71.5895 146.458 71.9881 146.853 72.2845 147.351C72.3883 147.588 72.488 147.825 72.5835 148.063C72.7157 148.046 72.8494 148.036 72.9837 148.035C73.1799 148.034 73.7412 148.113 73.9291 148.166C74.1507 148.229 74.5823 148.405 74.776 148.528C74.9675 148.649 75.1514 148.8 75.3279 148.936C75.7648 149.272 76.0953 149.602 76.3963 150.083C76.5961 150.402 76.7366 150.769 76.8543 151.121C76.8641 151.15 76.8729 151.179 76.8812 151.208C77.0278 151.323 77.1667 151.448 77.2865 151.582C77.571 151.902 77.8241 152.242 78.0435 152.604C78.3378 152.74 78.5996 152.93 78.8294 153.176C79.2203 153.599 79.5089 154.091 79.6866 154.637C79.7103 154.713 79.7294 154.788 79.7459 154.863C79.8482 155.029 79.9313 155.206 79.9928 155.394C80.1435 155.653 80.2195 155.931 80.2205 156.23C80.2907 156.541 80.3 156.852 80.251 157.164C111.959 151.433 136 123.863 136 90.7142C136 53.4106 105.555 23.1702 67.9997 23.1702L68.0003 23.1712Z" fill="#00D094"/>
<path d="M68.0003 31.4961C35.0739 31.4961 8.38159 58.0094 8.38159 90.7148C8.38159 109.952 17.6162 127.045 31.922 137.862C32.0527 137.779 32.1812 137.693 32.3062 137.602C32.9331 137.144 33.5604 136.744 34.3376 136.554C34.9257 136.41 35.5934 136.364 36.2063 136.482C36.3767 136.424 36.5548 136.395 36.7407 136.395C37.3444 136.314 37.0294 136.336 37.2054 136.337C37.3965 136.338 37.9428 136.411 38.1272 136.461C38.3249 136.515 38.7876 136.71 38.9647 136.811C39.2275 136.959 39.5188 137.186 39.731 137.396C39.749 137.414 39.7635 137.435 39.7805 137.454C39.9732 137.663 40.188 137.931 40.3377 138.176C40.5525 138.526 40.6966 138.926 40.8329 139.312C40.8928 139.481 40.9377 139.656 40.9775 139.831C41.1949 140.794 41.3059 141.788 41.3869 142.775C42.1362 142.368 43.0171 142.244 43.8707 142.478C44.4356 142.635 44.9256 142.919 45.3418 143.329C45.4011 143.388 45.4574 143.449 45.5111 143.512C45.6511 143.451 45.7962 143.402 45.9475 143.368C46.5335 143.235 47.1341 143.235 47.7201 143.368C48.4183 143.526 49.0265 144.007 49.452 144.555C49.7469 144.875 49.9457 145.25 50.0489 145.681C50.0887 145.974 50.1284 146.268 50.1682 146.561C50.1599 146.798 50.1403 147.015 50.1083 147.22C51.4782 147.648 52.8698 148.027 54.2805 148.357C54.2872 148.324 54.2945 148.291 54.3017 148.258C54.3198 148.114 54.3445 147.97 54.3771 147.829C54.5707 146.984 55.1976 146.305 55.9091 145.849C56.6176 145.396 57.6802 145.297 58.478 145.515C58.7109 145.579 58.9335 145.671 59.1436 145.784C59.3414 145.589 59.5634 145.418 59.8113 145.273C60.1939 145.031 60.607 144.9 61.0511 144.88C61.4941 144.781 61.9371 144.801 62.3807 144.939C62.9456 145.096 63.4356 145.38 63.8518 145.79C64.2096 146.227 64.5742 146.662 64.8169 147.174C64.8272 147.196 64.837 147.218 64.8474 147.24C65.1851 147.207 65.5233 147.243 65.861 147.349C66.035 147.421 66.2085 147.494 66.3825 147.567C66.4279 147.494 66.4754 147.421 66.526 147.351C66.8224 146.854 67.2211 146.458 67.7219 146.163C68.2419 145.864 68.8027 145.713 69.4048 145.711C70.0063 145.713 70.5676 145.863 71.0876 146.163C71.5885 146.458 71.9871 146.854 72.2835 147.351C72.3873 147.588 72.4869 147.826 72.5825 148.063C72.7147 148.046 72.8484 148.036 72.9826 148.035C73.1789 148.034 73.7401 148.113 73.9281 148.166C74.1496 148.229 74.5813 148.405 74.7749 148.528C74.9665 148.649 75.1503 148.801 75.3269 148.936C75.5314 149.093 75.7121 149.249 75.8779 149.42C105.08 145.59 127.618 120.767 127.618 90.7143C127.618 58.0089 100.926 31.4956 67.9997 31.4956L68.0003 31.4961Z" fill="white"/>
<path d="M50.0883 147.339C51.4576 147.767 52.8482 148.148 54.2579 148.478C54.2708 148.405 54.2852 148.331 54.3023 148.258C54.3038 148.246 54.3059 148.235 54.3075 148.223C52.8942 147.892 51.5005 147.51 50.128 147.08C50.1167 147.168 50.1032 147.255 50.0883 147.339Z" fill="black"/>
<path d="M67.9998 31.3663C35.0538 31.3663 8.25049 57.9904 8.25049 90.7153C8.25049 109.946 17.5073 127.07 31.8271 137.922C31.9056 137.873 31.983 137.823 32.0599 137.773C17.7603 126.971 8.51125 109.896 8.51125 90.7158C8.51125 58.134 35.1974 31.6264 67.9993 31.6264C100.801 31.6264 127.488 58.134 127.488 90.7158C127.488 120.686 104.908 145.515 75.7592 149.304C75.8377 149.378 75.9125 149.455 75.9848 149.535C105.169 145.647 127.749 120.752 127.749 90.7158C127.749 57.9909 100.945 31.3668 67.9993 31.3668L67.9998 31.3663Z" fill="black"/>
<path d="M66.5034 35.7875H70.0152C70.0952 35.7875 70.1603 35.8521 70.1603 35.9316V47.7734C70.1603 47.8529 70.0952 47.9175 70.0152 47.9175H66.5034C66.4233 47.9175 66.3583 47.8529 66.3583 47.7734V35.9316C66.3583 35.8521 66.4233 35.7875 66.5034 35.7875Z" fill="black"/>
<path d="M94.9176 42.4684L97.9518 44.2247C98.021 44.2647 98.0444 44.3531 98.0041 44.4217L92.0019 54.6532C91.9616 54.7219 91.8726 54.7452 91.8034 54.7052L88.7692 52.9489C88.7001 52.9089 88.6766 52.8205 88.7169 52.7518L94.7192 42.5204C94.7595 42.4517 94.8485 42.4284 94.9176 42.4684Z" fill="white"/>
<path d="M91.3972 54.3713C91.1235 54.3713 90.8477 54.3021 90.5952 54.1554L89.846 53.722C89.0849 53.2809 88.8262 52.3074 89.2697 51.5514L93.9402 43.5897C94.3843 42.8332 95.3649 42.5772 96.1255 43.0173L96.8747 43.4507C97.2434 43.6641 97.5067 44.0072 97.6157 44.4175C97.7241 44.8273 97.6663 45.2551 97.451 45.6213L92.7805 53.583C92.4841 54.0887 91.9471 54.3708 91.3972 54.3708V54.3713ZM90.7264 53.9318C91.3646 54.3006 92.1831 54.0851 92.5543 53.4527L97.2248 45.491C97.4045 45.1848 97.4536 44.8268 97.3627 44.4842C97.2713 44.1411 97.0513 43.8538 96.7425 43.6754L95.9933 43.242C95.3556 42.8732 94.5366 43.0891 94.1654 43.721L89.4949 51.6827C89.1241 52.3151 89.3405 53.1296 89.9772 53.4984L90.7264 53.9318Z" fill="black"/>
<path d="M31.3433 67.9889L29.5752 71.0028C29.5349 71.0715 29.446 71.0948 29.3768 71.0547L19.0763 65.0927C19.0071 65.0527 18.9837 64.9643 19.024 64.8956L20.7921 61.8818C20.8323 61.8131 20.9213 61.7898 20.9905 61.8298L31.291 67.7918C31.3602 67.8318 31.3836 67.9202 31.3433 67.9889Z" fill="white"/>
<path d="M28.971 70.72C28.6922 70.72 28.4164 70.6467 28.1691 70.5036L20.1536 65.8644C19.3925 65.4233 19.1343 64.4498 19.5779 63.6938L20.0142 62.9496C20.229 62.5834 20.5744 62.3218 20.9875 62.2141C21.4001 62.1064 21.8307 62.1639 22.1994 62.3777L30.2149 67.0174C30.5836 67.2308 30.8464 67.5739 30.9554 67.9842C31.0638 68.394 31.0055 68.8218 30.7907 69.188L30.3543 69.9322C30.1395 70.2984 29.7941 70.56 29.381 70.6677C29.2452 70.7031 29.1078 70.721 28.971 70.721V70.72ZM21.397 62.4203C21.2829 62.4203 21.1677 62.4352 21.0541 62.4649C20.7087 62.5552 20.4195 62.7737 20.2398 63.0804L19.8035 63.8246C19.4328 64.457 19.6486 65.2715 20.2853 65.6403L28.3008 70.2794C28.609 70.4574 28.9689 70.5061 29.3144 70.4159C29.6598 70.3256 29.949 70.1071 30.1287 69.8004L30.565 69.0567C30.7447 68.7505 30.7938 68.393 30.7024 68.0499C30.6115 67.7067 30.3915 67.4195 30.0827 67.241L22.0672 62.6014C21.8602 62.4819 21.6299 62.4203 21.3965 62.4203H21.397Z" fill="black"/>
<path d="M116.087 62.4513L117.819 65.4861C117.858 65.5553 117.834 65.6434 117.764 65.6826L107.392 71.5209C107.322 71.5601 107.234 71.5358 107.194 71.4666L105.463 68.4318C105.423 68.3626 105.448 68.2746 105.517 68.2354L115.89 62.397C115.959 62.3578 116.048 62.3821 116.087 62.4513Z" fill="white"/>
<path d="M107.815 71.1929C107.672 71.1929 107.528 71.1734 107.387 71.1349C106.975 71.0221 106.633 70.7564 106.422 70.3876L105.995 69.6383C105.785 69.2695 105.731 68.8418 105.846 68.433C105.959 68.0247 106.227 67.6842 106.598 67.4754L114.669 62.9322C115.434 62.5003 116.412 62.7691 116.847 63.5302L117.274 64.2801C117.708 65.0417 117.438 66.0121 116.672 66.4435L108.6 70.9867C108.357 71.1237 108.088 71.1939 107.815 71.1939V71.1929ZM106.649 70.2594C106.826 70.5677 107.112 70.7903 107.456 70.8846C107.8 70.979 108.161 70.9354 108.471 70.76L116.542 66.2168C117.184 65.8557 117.409 65.0438 117.046 64.4067L116.619 63.6574C116.255 63.0204 115.438 62.7962 114.797 63.1568L106.725 67.7001C106.415 67.875 106.191 68.1596 106.096 68.5012C106.001 68.8433 106.046 69.2013 106.222 69.5096L106.649 70.2589L106.649 70.2594Z" fill="black"/>
<path d="M48.2178 52.7063L45.1625 54.4261C45.0928 54.4653 45.0042 54.4409 44.9647 54.3718L39.0869 44.0693C39.0474 44.0001 39.072 43.912 39.1416 43.8728L42.1969 42.153C42.2665 42.1138 42.3552 42.1382 42.3947 42.2074L48.2725 52.5099C48.3119 52.579 48.2874 52.6671 48.2178 52.7063Z" fill="white"/>
<path d="M45.5923 54.0964C45.0346 54.0964 44.493 53.8071 44.1992 53.2922L39.6252 45.2751C39.191 44.5139 39.461 43.5435 40.2273 43.1116L40.9817 42.687C41.7475 42.2566 42.7249 42.5239 43.1597 43.285L47.7331 51.3026C48.1674 52.0638 47.8973 53.0342 47.1311 53.466L46.3767 53.8907C46.1288 54.0307 45.8582 54.0969 45.5918 54.0969L45.5923 54.0964ZM40.3574 43.3368C39.7161 43.6984 39.4899 44.5103 39.8529 45.1468L44.4269 53.1639C44.7904 53.8004 45.6073 54.0246 46.2491 53.6645L47.0035 53.2404C47.6448 52.8793 47.8705 52.0674 47.5075 51.4303L42.9341 43.4132C42.57 42.7762 41.7531 42.551 41.1118 42.9126L40.3574 43.3368Z" fill="black"/>
<path d="M67.5779 89.5023L27.4132 66.2341C26.2225 65.5443 25.8682 63.9979 26.6407 62.8644L26.6707 62.8203C27.3739 61.7878 28.7624 61.4749 29.8458 62.1037L69.9805 85.416C71.0603 86.0433 71.4677 87.3932 70.9136 88.5067C70.3022 89.7356 68.7702 90.1926 67.5779 89.5023Z" fill="#00D094"/>
<path d="M74.5734 100.657C78.6903 96.5672 78.6903 89.9372 74.5734 85.8479C70.4565 81.7585 63.7816 81.7585 59.6647 85.8479C55.5478 89.9372 55.5478 96.5672 59.6647 100.657C63.7816 104.746 70.4565 104.746 74.5734 100.657Z" fill="black"/>
<path d="M102.255 74.1502L102.27 74.201C102.722 75.3657 102.186 76.6736 101.044 77.1958L72.1957 90.4126L72.1616 90.4224C71.0318 90.9281 69.7063 90.485 69.111 89.4038C68.8951 89.017 68.8037 88.5954 68.8187 88.1831C68.8497 87.3255 69.3511 86.5069 70.1964 86.1192L99.297 72.7495C99.3027 72.7438 99.3083 72.7443 99.314 72.7443C100.495 72.3684 101.793 72.9669 102.255 74.1492V74.1502Z" fill="#00D094"/>
<path d="M75.6583 97.3754C79.7755 93.2859 79.7755 86.6555 75.6584 82.566C71.5412 78.4765 64.866 78.4765 60.7489 82.566C56.6318 86.6555 56.6318 93.2859 60.7489 97.3754C64.866 101.465 71.5412 101.465 75.6583 97.3754Z" fill="white"/>
<path d="M68.2033 100.698C62.2486 100.698 57.4041 95.8853 57.4041 89.9711C57.4041 84.0568 62.2486 79.2433 68.2033 79.2433C74.1579 79.2433 79.003 84.0558 79.003 89.9711C79.003 95.8863 74.1579 100.698 68.2033 100.698ZM68.2033 79.7541C62.532 79.7541 57.9184 84.3369 57.9184 89.9711C57.9184 95.6053 62.532 100.187 68.2033 100.187C73.8745 100.187 78.4887 95.6042 78.4887 89.9711C78.4887 84.3379 73.875 79.7541 68.2033 79.7541Z" fill="black"/>
<path d="M49.9969 124.873C47.7961 125.921 46.1515 127.128 44.178 128.612C45.9667 125.791 45.9166 126.192 46.9286 124.873H49.9969Z" fill="#ECECEC"/>
<path d="M64.5541 103.933C63.5265 104.408 63.1506 105.06 62.7205 106.016C60.6592 110.587 61.3423 112.047 61.7441 114.94C61.774 115.159 61.821 115.974 61.8633 116.998C60.0607 119.497 59.4912 120.277 58.6309 121.386H49.3932C49.9942 120.49 50.586 119.592 51.1922 118.701C53.1058 115.884 53.8726 115.154 55.9825 111.711C57.1231 109.868 58.6634 107.464 60.1738 106.055C61.3811 104.932 62.9766 104.091 64.5541 103.933Z" fill="#00D094"/>
<path d="M77.439 103.505C77.439 103.505 77.4364 103.5 77.4292 103.493C77.3471 103.35 77.2004 103.268 77.0393 103.217C77.0341 103.217 76.9902 103.199 76.9324 103.189C76.73 103.089 71.0572 102.737 71.0738 102.938C71.1233 103.458 70.86 103.834 70.4975 104.172C69.549 105.047 67.971 104.898 67.2326 104.06C67.1355 103.952 66.9119 103.673 66.8825 103.476C66.8701 103.406 66.8081 103.355 66.7332 103.367C63.9552 103.8 63.398 104.51 62.7206 106.015C60.6587 110.586 61.3424 112.046 61.7441 114.939C61.8071 115.403 61.9858 119.229 61.9502 121.385H76.383C76.3236 119.255 76.3133 117.123 76.3608 114.993" fill="#00D094"/>
<path d="M76.9148 103.185C77.2277 103.234 77.4389 103.506 77.4389 103.506L90.7265 113.61L102.145 105.16C101.154 109.264 99.8842 113.279 98.7564 117.339C98.6248 117.815 98.4859 118.302 98.2122 118.721C97.5265 119.782 96.6368 119.355 95.7873 118.711C94.6617 117.858 92.4831 116.815 91.1138 117.097C88.8005 117.556 87.9087 120.206 87.4119 122.524C83.0043 119.486 75.7695 114.594 75.7695 114.594" fill="#00D094"/>
<path d="M125.984 166.239C124.298 161.944 118.808 161.776 114.572 162.031C111.88 162.193 107.155 162.535 106.117 160.059C105.42 158.394 106.85 153.998 107.444 152.094C107.95 150.474 108.472 148.797 108.775 147.1C109.493 143.074 107.365 141.921 103.365 142.438C97.0958 143.197 95.4507 143.731 93.9527 142.812C92.8719 142.15 92.2766 140.724 92.4361 139.179C92.5017 138.53 92.6773 137.909 92.9132 137.3C93.8876 137.132 95.2988 136.888 95.3143 136.886C95.5038 136.853 95.6494 135.29 95.7181 134.718C97.1898 133.958 98.554 132.981 99.848 131.97C106.514 126.77 108.634 120.639 110.54 111.878L110.558 111.794C111.559 111.981 112.086 111.263 112.463 110.332C113.306 108.253 113.376 106.018 113.109 104.936C113.436 104.121 113.673 103.261 113.812 102.376C114.033 101.005 113.343 100.458 112.751 100.649C112.524 100.721 112.327 100.913 112.159 101.157C112.193 98.8817 111.913 96.9281 111.299 95.2078C109.928 91.3575 106.923 88.2344 102.838 86.4152C101.566 85.8433 100.662 85.5822 99.4896 86.369C98.3604 87.1379 97.3695 88.2585 96.6233 89.6105C94.8062 92.93 93.9191 96.4536 94.1887 99.2782C94.3121 100.636 94.9906 102.259 96.2283 102.822C96.9274 103.14 97.6798 103.097 98.3882 103.002C99.8723 102.811 102.746 102.037 102.034 105.087L90.728 113.453L84.0437 108.37L83.6053 104.962C83.5965 104.894 83.5351 104.847 83.4664 104.855L79.997 105.293L77.5282 103.416C77.4358 103.265 77.2308 103.112 76.9422 103.063C76.6313 102.994 76.2724 102.977 75.6358 102.932C75.7587 101.194 77.1182 101.65 77.8019 101.093C78.309 100.678 78.2914 99.8711 77.9806 99.2935C77.6702 98.7186 77.143 98.2939 76.7062 97.8077C76.2688 97.3189 75.896 96.6896 76.0107 96.0459C76.212 94.9031 77.7126 94.4959 78.2816 93.4839C78.7262 92.6869 78.498 91.6698 78.043 90.8805C77.5861 90.0906 76.9277 89.4321 76.448 88.6545C75.1695 86.586 76.7268 84.8852 76.0034 82.7203C75.563 77.1907 69.7931 75.2868 66.8545 77.3395C66.6919 77.4528 65.1123 78.9894 65.3684 79.1454C61.6584 76.8866 57.2595 81.2985 59.3833 85.732C58.6929 86.269 57.4237 86.8988 57.2925 88.0324C57.2605 88.3114 57.3075 88.5258 57.2404 88.7899C57.1608 89.1058 57.0018 89.4069 56.9171 89.7254C56.5866 90.9692 56.6238 92.314 57.086 93.5209C57.5853 94.8149 58.4543 95.8699 56.5541 98.1631C56.0326 98.7899 55.0236 99.5623 54.9839 100.449C54.9441 101.29 55.5983 102.054 55.5529 102.909C55.5209 103.472 55.1279 103.982 54.6188 104.212C54.405 104.311 54.1045 104.286 53.963 104.444C53.789 104.642 53.757 105.298 53.6945 105.562C53.3764 106.875 53.0635 108.28 53.5303 109.548C53.9093 110.568 54.8047 111.378 55.8596 111.673L55.5735 112.137C53.7601 115.084 53.6047 114.883 49.3271 121.26H30.6281C30.6462 121.22 30.5248 121.692 32.7927 112.329H49.1283C49.3116 112.329 49.4614 112.182 49.4614 112.001V86.2413C49.4614 86.0592 49.3121 85.9105 49.1283 85.9105H10.0206C9.83831 85.9105 9.69011 86.0587 9.69011 86.2413V112.001C9.69011 112.182 9.83831 112.329 10.0206 112.329H23.6247C21.0986 121.797 21.2215 121.176 21.2597 121.26H14.3539C14.2852 121.26 14.2295 121.316 14.2295 121.384V124.871C14.2295 124.939 14.2852 124.995 14.3539 124.995H17.3157C16.7555 126.027 11.422 165.525 11.1788 167.316C11.1571 167.477 11.4029 167.514 11.4251 167.349C13.3496 153.13 17.0839 126.096 17.4975 125.143C17.5321 125.105 17.5445 125.048 17.512 124.995H46.6715C45.68 126.236 45.679 126.019 44.086 128.525C43.0507 129.303 42.0288 130.077 40.9935 130.771C37.7079 132.977 34.7115 135.609 31.5715 137.976C29.2365 139.738 27.0239 141.695 24.9946 143.794C24.993 143.795 24.991 143.796 24.9899 143.797C23.3804 145.459 21.8613 147.237 20.4749 149.082C19.9022 149.844 27.8418 154.177 28.6959 154.646L23.8658 163.078L18.6443 168.729C16.4508 170.319 15.8137 170.638 14.4892 171.322C14.4654 171.326 14.4443 171.338 14.4262 171.355C13.7802 171.69 12.9551 172.133 11.6105 172.955C10.0376 171.964 6.76079 171.856 4.94371 172.823C3.40856 173.639 2.54314 174.364 2.06809 176.08L2.05983 176.112C0.789058 176.324 0.447227 178.002 1.56412 178.675L11.2366 184.467C11.4256 184.578 11.6389 184.647 11.8578 184.662L29.9129 185.972C30.6332 186.024 31.2746 185.526 31.3964 184.82L31.4336 184.598C31.5534 183.892 31.1191 183.228 30.4536 183.033C33.7954 170.303 33.8559 170.554 33.5884 170.562L35.375 164.388L39.0572 158.219C39.3644 158.282 46.9673 159.711 47.0608 159.323C48.6331 152.786 49.9364 146.378 52.3112 140.065C52.6298 139.219 52.8828 138.28 53.2969 137.484C53.8055 136.466 53.7121 136.402 55.4749 136.198C54.3632 141.641 54.2542 147.393 53.8349 152.809C53.6155 155.665 53.6165 158.548 53.8349 161.381C53.8112 161.412 53.7792 161.442 53.7838 161.499C53.9666 163.797 54.2966 166.106 54.7644 168.361C54.9596 169.296 63.4801 166.277 64.4111 165.949L67.5511 175.134L67.942 183.108C67.8795 183.7 66.6536 189.968 66.6743 191.103C66.6345 191.086 66.5912 191.092 66.5571 191.114C64.8572 190.803 63.0117 191.633 62.1592 193.138C61.1348 194.948 61.8262 197.371 62.8558 197.911C62.2217 198.965 63.2596 200.305 64.4761 199.939L75.1323 198.853C75.3409 198.791 75.5299 198.68 75.6838 198.532L88.3176 186.328C88.8665 185.797 88.9114 184.933 88.4219 184.331C87.966 183.771 87.2038 183.622 86.5971 183.912L82.3309 177.557L80.1173 173.248C80.0708 173.158 79.9407 173.148 79.8849 173.271L76.1795 167.455L73.9793 160.627C74.8333 159.993 79.6964 156.141 80.0878 155.669C80.1916 155.668 80.2438 155.556 80.188 155.477C75.6802 149.08 72.5433 145.028 68.984 138.439L77.0568 136.905C78.7737 143.25 81.4066 152.938 85.442 167.737C85.4849 167.895 85.7244 167.83 85.6816 167.672C85.6062 167.396 80.7064 149.428 77.3021 136.859L82.8948 135.797L87.6159 166.423C87.8121 167.712 89.0989 168.613 90.429 168.291C91.595 168.007 92.3349 166.905 92.1495 165.729L87.4026 135.374C88.424 136.261 90.0418 136.268 91.39 136.107C91.5098 136.369 92.006 137.457 92.006 137.457C92.006 137.457 92.2631 137.413 92.6339 137.349C92.417 137.933 92.2518 138.535 92.1893 139.154C92.0199 140.793 92.6613 142.311 93.8231 143.023C95.4047 143.992 97.0524 143.448 103.398 142.682C110.195 141.805 109.108 145.928 107.208 152.022C106.587 154.015 105.16 158.415 105.889 160.154C106.99 162.781 111.735 162.45 114.589 162.278C118.728 162.028 124.1 162.114 125.754 166.329C125.814 166.481 126.046 166.391 125.986 166.239H125.984ZM26.317 121.09C27.0693 121.06 29.7849 121.046 30.4293 121.042L30.4179 121.09H26.317ZM9.93848 112.003V86.2428C9.93848 86.1967 9.97514 86.1587 10.0206 86.1587H49.1273C49.1732 86.1587 49.212 86.1972 49.212 86.2428V112.003C49.212 112.048 49.1743 112.084 49.1273 112.084H32.8521L34.6464 104.665C34.665 104.587 34.6061 104.512 34.5256 104.512H25.8171C25.7681 104.512 25.7257 104.542 25.7061 104.585L14.5047 112.084H10.0201C9.97411 112.084 9.93796 112.048 9.93796 112.002L9.93848 112.003ZM25.9127 104.76H34.3681L31.2663 117.581C30.3818 118.243 26.3898 120.889 26.1373 121.09H21.5313L25.9127 104.76ZM112.232 110.241C111.424 112.235 110.512 111.542 109.264 111.036C108.787 110.843 108.059 110.314 108.01 109.793C107.971 109.393 108.46 108.883 109.244 108.964C109.604 109.093 109.969 109.211 110.334 109.317C110.481 109.361 110.56 109.148 110.419 109.086C109.188 108.547 109.841 108.989 108.321 108.335C108.002 108.198 107.676 108.041 107.505 107.76C107.314 107.448 107.373 106.99 107.641 106.719C107.939 106.417 108.422 106.393 108.943 106.496C109.618 106.773 110.316 107.044 111.062 107.319C111.21 107.373 111.301 107.16 111.16 107.092C110.516 106.779 109.771 106.419 109.034 106.266C108.406 106.008 108.538 106.052 108.155 105.914C107.663 105.737 107.106 105.536 106.95 105.073C106.817 104.683 106.986 104.2 107.333 103.975C108.052 103.508 109.234 104.335 111.274 105.311C111.422 105.382 111.53 105.16 111.382 105.088C111.382 105.088 111.382 105.088 111.381 105.088C110.741 104.782 109.81 104.208 109.083 103.935C108.85 103.793 108.668 103.621 108.635 103.391C108.571 102.953 109.052 102.48 109.959 102.713C110.577 102.872 112.074 103.35 112.623 104.352C112.928 104.911 112.981 105.575 112.993 106.091C113.025 107.499 112.762 108.934 112.232 110.241H112.232ZM112.827 100.885C113.195 100.767 113.767 101.094 113.566 102.339C113.446 103.101 113.248 103.843 112.986 104.554C112.789 104.044 112.444 103.56 111.626 103.099C111.648 103.082 111.665 103.06 111.673 103.031C111.885 102.144 112.315 101.05 112.827 100.885ZM83.374 105.117L83.7664 108.162L80.2768 105.508L83.374 105.116V105.117ZM76.6969 103.27C77.1962 103.347 76.2229 102.784 90.6511 113.708C90.695 113.741 90.7559 113.741 90.8008 113.709L101.94 105.465C100.956 109.477 99.7106 113.441 98.6371 117.306C98.1048 119.23 97.4516 119.817 95.8632 118.613C94.8775 117.867 93.7616 117.368 92.8265 117.114C91.7798 116.832 90.8881 116.81 89.8905 117.47C88.3827 118.467 87.7279 120.568 87.3303 122.318C82.9588 119.307 75.911 114.541 75.8397 114.493C75.7044 114.401 75.5635 114.605 75.6998 114.697C75.7112 114.705 75.9043 114.835 76.2358 115.06C76.1924 117.072 76.1986 119.158 76.2559 121.263H62.0766C62.0942 119.828 62.0234 117.87 61.9893 117.036C61.8949 115.229 61.9563 115.403 61.7059 113.898C61.2835 111.368 61.1348 109.837 62.8341 106.067C63.542 104.493 64.1529 103.881 66.7595 103.496C66.7972 103.744 67.06 104.055 67.1395 104.144C67.6177 104.686 68.4026 104.957 69.2391 104.869C70.4107 104.739 71.2281 103.783 71.2033 103.019C71.8596 102.925 76.2652 103.203 76.6974 103.271L76.6969 103.27ZM76.0571 132.261C75.0177 128.41 74.2752 125.636 74.1187 124.996H76.5301C77.6346 127.217 77.7234 130.367 76.0571 132.261ZM77.4565 130.934C77.4565 130.756 77.3893 130.514 77.3552 130.296C77.7973 128.642 77.5861 126.636 76.8038 124.996H79.762C79.8307 124.996 79.8865 124.94 79.8865 124.872V121.385C79.8865 121.317 79.8307 121.261 79.762 121.261H76.5048C76.449 119.214 76.4418 117.185 76.4816 115.224C78.1401 116.347 82.1347 119.054 85.4523 121.326L86.3761 128.524C86.2816 129.762 86.2821 130.498 86.2656 131.049L76.9979 132.81C77.3016 132.307 77.4523 131.53 77.4565 130.933V130.934ZM86.4809 127.394L85.726 121.515C86.2671 121.886 86.7882 122.243 87.2741 122.579C87.0866 123.466 86.6622 125.717 86.4809 127.394ZM58.8819 121.262C59.8346 120.026 60.0086 119.761 61.7534 117.359C61.7895 118.304 61.8432 119.992 61.8277 121.262H58.8819ZM61.4451 87.8528C61.4792 87.8887 61.5318 87.901 61.5778 87.8836C61.6129 87.8641 61.7374 87.8569 61.7415 87.7426C61.7446 87.6564 61.7528 87.5702 61.7606 87.4841C62.8785 87.3446 64.1911 86.6993 64.7875 86.2736C66.0113 85.4007 66.8932 84.0676 67.2149 82.6059C70.3565 85.1396 73.4867 85.076 74.5839 85.2381C75.0549 86.3521 75.3213 87.6266 75.3554 89.012C75.4008 90.8282 75.248 96.8798 71.3815 98.5027C68.7103 99.6403 65.1381 98.4237 63.2358 95.2478C62.9968 94.8534 62.1381 93.1993 62.1634 92.9177C62.2527 92.8064 62.1102 92.6572 61.9935 92.7408C60.778 93.6096 59.4256 92.9905 58.8106 91.7637C58.207 90.5671 58.2297 88.8043 59.4597 87.8923C59.9807 87.5041 61.0206 87.4071 61.4466 87.8518L61.4451 87.8528ZM67.137 99.2541C67.3765 99.2674 67.3533 99.2576 67.7349 99.3115C68.4883 100.091 69.8329 100.829 70.8677 101.192L70.8011 103.614C70.0735 104.871 68.1728 104.941 67.3254 103.979C67.1984 103.837 67.0611 103.639 67.0192 103.5L67.1364 99.2541H67.137ZM55.7853 112.267C58.0103 108.766 60.0974 104.987 63.9154 104.159C63.242 104.638 62.9446 105.215 62.6069 105.965C61.0237 109.478 61.0294 111.199 61.3537 113.284C61.6077 114.917 61.6346 114.483 61.7374 116.961C59.8237 119.61 59.3972 120.195 58.57 121.263H49.6256C53.6119 115.308 53.9558 115.241 55.7858 112.267H55.7853ZM14.4778 121.509H79.6381V124.749H14.4778V121.509ZM46.3296 125.798C46.547 125.542 46.7716 125.277 46.9895 124.996H49.4645C47.7331 125.869 46.2155 126.933 44.6685 128.088C44.6943 128.05 45.2995 127.009 46.3291 125.797L46.3296 125.798ZM39.0298 146.368C39.0386 146.376 39.0474 146.384 39.0587 146.39C39.0737 146.397 39.0892 146.4 39.1052 146.401C42.54 147.94 45.7079 150.2 48.3026 152.969C47.8229 154.981 47.3639 156.984 46.8775 159.016C41.2951 152.027 29.8556 148.994 20.8244 149.032C22.1566 147.276 23.6019 145.591 25.1381 144.003C29.7084 143.649 34.3283 144.387 38.5016 146.138C38.6787 146.212 38.8542 146.289 39.0298 146.368ZM31.3319 150.543C34.6567 151.354 38.1577 152.643 41.0612 154.375L35.1927 164.208C31.5069 163.819 27.8082 163.431 24.1684 163.049L31.3319 150.543V150.543ZM30.7665 171.29L33.483 164.277L35.0982 164.446L33.3065 170.638C32.5438 170.864 31.6835 171.093 30.766 171.29H30.7665ZM26.8762 171.824C27.3012 170.784 29.8169 164.63 30.1045 163.922L31.7166 164.091C31.5033 164.617 30.3415 167.459 28.6246 171.662C28.0468 171.738 27.4617 171.795 26.8762 171.823V171.824ZM22.9632 171.496C23.7269 169.638 25.9963 164.107 26.2364 163.515L27.9606 163.696C27.7308 164.257 25.2812 170.228 24.6424 171.78C24.0672 171.726 23.5054 171.633 22.9637 171.496H22.9632ZM20.4449 170.386C24.8035 162.886 24.5211 163.382 24.5236 163.335L25.9793 163.488C25.6318 164.342 23.4346 169.696 22.7205 171.434C21.8969 171.203 21.1286 170.861 20.4449 170.386ZM18.2855 172.677C18.3041 171.644 17.8171 170.757 16.9455 170.212C17.4118 169.908 17.9715 169.522 18.696 168.998C19.3053 169.865 20.117 170.562 21.0981 171.065L18.2855 172.678V172.677ZM24.0155 163.282L24.2691 163.308C23.9763 163.816 21.2189 168.561 20.2425 170.241C19.7323 169.857 19.2759 169.391 18.8865 168.832L24.0155 163.281V163.282ZM28.211 163.722L29.8479 163.894C29.4394 164.897 26.8514 171.227 26.6041 171.833C26.0319 171.852 25.4619 171.844 24.9016 171.801C25.0183 171.518 28.2043 163.767 28.211 163.722V163.722ZM31.9737 164.118L33.2269 164.25L30.4763 171.351C29.9666 171.455 29.4415 171.549 28.9081 171.625C29.0083 171.38 31.8405 164.446 31.9737 164.118ZM16.7188 170.359C17.5843 170.855 18.0655 171.706 18.0381 172.701C18.0371 172.739 18.0541 172.771 18.0805 172.795L17.3245 173.228L15.9247 173.968C15.9613 173.009 15.5059 172.058 14.7443 171.47C15.4713 171.096 15.9458 170.853 16.7188 170.36V170.359ZM14.5021 171.595C15.2715 172.137 15.7326 173.075 15.6778 174.011C15.6763 174.039 15.6861 174.065 15.7011 174.086L12.0034 176.041C12.0545 175.089 11.9337 174.13 11.6321 173.219C11.7721 173.191 12.5755 172.595 14.5026 171.595L14.5021 171.595ZM2.31129 176.129C2.76105 174.507 3.55624 173.841 5.06041 173.041C6.69934 172.17 9.75207 172.208 11.3239 173.079C12.2528 175.608 11.6951 178.572 9.93951 180.613C7.4398 179.328 3.84334 177.129 2.29787 176.182L2.31181 176.129H2.31129ZM32.139 175.686C30.4344 175.67 28.7217 176.273 27.4958 177.446C26.1239 178.762 25.4552 180.783 25.8156 182.629L12.2533 181.587C11.8501 181.525 11.0956 181.198 10.1677 180.729C11.2144 179.493 11.8366 177.936 11.9817 176.335C12.1449 176.253 12.1759 176.253 12.2063 176.213L17.4459 173.444C18.5922 172.785 21.3274 171.223 21.3599 171.194C24.8175 172.803 29.743 171.96 33.4154 170.864L32.1395 175.686H32.139ZM53.0743 137.373C52.6499 138.189 52.3969 139.129 52.0773 139.98C50.4745 144.24 49.3478 148.597 48.3718 152.684C45.7957 149.966 42.6727 147.74 39.2875 146.21C42.1574 140.419 45.9914 135.219 50.6872 130.755C51.5599 129.926 52.5941 129.039 53.8344 129.01C53.9986 129.006 53.9924 128.761 53.8288 128.763C52.5632 128.792 51.4881 129.653 50.5158 130.577C45.7962 135.064 41.9431 140.29 39.0598 146.111C38.9064 146.044 38.753 145.975 38.5987 145.91C34.4729 144.18 29.9155 143.434 25.3963 143.74C28.9163 140.141 30.9653 138.829 35.1452 135.492C41.2006 130.658 39.7285 132.107 43.7106 129.118L43.7096 129.119C45.9083 127.483 47.5415 126.183 50.0257 124.996H60.0256C57.83 127.936 56.2799 132.378 55.524 135.945C53.5628 136.165 53.6258 136.269 53.0743 137.373V137.373ZM76.164 150.272C77.3615 151.966 78.5491 153.615 79.7703 155.346C70.7845 154.852 60.906 161.379 54.9994 168.021C54.5661 165.864 54.2573 163.646 54.0875 161.459C59.3611 154.586 67.3858 150.477 76.164 150.273V150.272ZM70.8558 182.75C68.0592 174.4 68.2141 174.85 68.181 174.818L69.2628 173.838C69.6992 174.714 72.6987 180.764 73.15 181.673C72.408 182.148 71.6402 182.515 70.8558 182.75ZM73.3596 181.536C73.1128 181.038 69.758 174.274 69.4539 173.664L72.1364 171.234C76.2358 179.445 75.9678 179.031 76.0948 179.031C76.1862 179.031 76.2471 178.935 76.2058 178.853C76.1692 178.779 72.6987 171.803 72.3269 171.061L73.5244 169.976C73.9369 170.802 76.8611 176.674 77.3258 177.611C76.1563 179.188 74.8096 180.563 73.3591 181.536H73.3596ZM77.4911 177.384C76.8611 176.117 73.9726 170.316 73.7159 169.803L74.6469 168.959L78.3627 176.089C78.0859 176.531 77.7947 176.964 77.4911 177.384V177.384ZM67.7287 174.893L63.0985 161.348C65.8977 159.44 69.1797 157.678 72.4379 156.659L75.9223 167.469L67.7287 174.893V174.893ZM67.9921 174.989C68.1867 175.572 69.8757 180.604 70.6167 182.817C69.8179 183.028 69.0036 183.098 68.1836 183L67.7989 175.163L67.9915 174.989L67.9921 174.989ZM68.1718 183.25C69.2499 183.377 70.2971 183.235 71.3009 182.89C71.0778 183.914 70.8367 184.715 70.6074 185.631C70.6033 185.605 70.5925 185.58 70.5718 185.56C69.7652 184.809 69.2298 184.695 68.1841 185.05C68.0292 185.103 68.1082 185.335 68.2647 185.283C69.2236 184.958 69.663 185.052 70.4024 185.74C70.4525 185.787 70.5377 185.788 70.5857 185.722C70.4221 186.383 70.2171 187.3 70.0947 188.079C69.3837 187.465 68.5482 187.274 67.6058 187.52C67.4468 187.562 67.5103 187.8 67.6693 187.759C68.5797 187.521 69.379 187.728 70.0508 188.369C69.8324 189.866 69.7353 191.261 69.4012 192.677C68.637 192.098 67.7814 191.653 66.9356 191.232C66.9314 191.226 66.9299 191.218 66.9252 191.214C66.7931 190.656 68.0287 184.217 68.1733 183.249L68.1718 183.25ZM86.3369 183.971L86.3312 183.977L82.0877 177.652C80.8918 178.916 80.1741 180.632 80.2448 182.364C80.3254 184.278 81.4262 186.138 83.0869 187.086L73.3746 196.396C72.7565 196.905 71.5637 196.906 70.7866 196.99C68.2874 197.268 66.9067 197.246 65.3158 197.614C64.3088 197.847 63.1274 198.143 62.5439 197.317C61.7528 196.19 61.6816 194.483 62.374 193.26C63.1971 191.807 65.0323 190.989 66.7146 191.4C67.7561 191.917 68.8208 192.46 69.6976 193.239C70.2878 193.763 71.287 194.862 71.3479 196.332C71.3546 196.496 71.603 196.485 71.5963 196.322C71.5508 195.222 70.9839 193.96 69.6114 192.845C69.6134 192.839 69.6191 192.837 69.6207 192.831C69.6831 192.597 69.711 192.565 69.6955 192.508C69.8949 191.596 70.0079 190.668 70.1174 189.767C70.5909 185.873 71.0634 185.232 71.5777 182.789C75.1452 181.42 78.1334 177.491 79.9211 173.774C80.0068 173.86 80.0842 173.782 80.1106 173.78L82.1161 177.682L86.3369 183.97V183.971ZM78.514 175.843L74.837 168.787L76.039 167.698L79.7584 173.536C79.3877 174.318 78.9709 175.093 78.514 175.843V175.843ZM76.0137 150.031C71.7646 150.151 67.3998 151.21 63.4326 153.282C63.35 153.009 58.4796 145.035 61.0248 134.417C61.063 134.258 60.8213 134.201 60.7831 134.36C59.2655 140.69 60.149 147.62 63.2059 153.375C63.21 153.383 63.2178 153.386 63.2235 153.393C59.69 155.276 56.549 157.913 54.0616 161.091C53.7146 156.271 54.056 153.56 54.356 148.75C55.0009 138.414 55.6045 137.163 55.7486 136.082C56.818 130.982 58.7254 127.084 60.3385 124.996H73.8755C73.9705 125.407 74.3562 126.901 75.8578 132.472C75.2134 133.126 74.3449 133.667 73.3059 134.051C71.8178 134.604 70.5042 134.685 68.686 134.518C67.5712 134.19 66.4373 133.926 65.2801 133.948C66.3903 134.76 67.3043 135.957 67.5857 136.27C67.6895 136.513 67.8919 136.92 68.0261 137.179C70.5062 142.001 72.9383 145.67 76.0137 150.031ZM68.8596 138.212C68.6391 137.807 68.4299 137.42 68.2668 137.104C72.4679 136.534 74.0758 135.397 76.1712 133.637C76.4175 134.549 76.6897 135.555 76.9902 136.667L68.859 138.212L68.8596 138.212ZM76.3824 133.465C76.5353 133.346 76.6556 133.248 76.7842 133.103L86.2584 131.302C86.215 132.622 86.1861 133.688 86.8987 134.785L77.2365 136.621C76.9386 135.521 76.6525 134.463 76.3829 133.465H76.3824ZM90.3691 168.052C89.1784 168.339 88.0347 167.532 87.8601 166.386L83.1654 135.931L87.9933 140.762L91.9027 165.768C92.068 166.817 91.4081 167.799 90.3686 168.052H90.3691ZM89.6214 135.921C89.6695 134.008 89.0658 132.596 89.8223 128.434C90.2865 125.881 91.1586 123.399 92.415 121.123C92.7712 120.478 94.1453 118.284 93.7745 117.707C93.9078 117.771 94.7117 118.051 95.7119 118.809C96.7297 119.58 97.6307 119.849 98.3165 118.788C98.6087 118.34 98.7507 117.825 98.8762 117.372C99.9988 113.333 101.277 109.282 102.266 105.189C102.664 103.544 102.119 102.507 100.382 102.52C99.7199 102.527 99.0719 102.665 98.3939 102.755C98.5963 101.441 97.751 96.708 98.664 93.1901C99.0678 91.6303 99.7922 90.164 100.533 88.736C100.87 88.0842 101.581 87.1789 101.858 86.2875C102.139 86.3788 102.446 86.5121 102.736 86.6429C106.759 88.435 109.717 91.5067 111.065 95.2929C111.709 97.0983 111.983 99.1633 111.903 101.606C111.638 102.155 111.437 102.901 111.431 102.995C110.925 102.739 110.403 102.573 110.021 102.475C108.745 102.146 108.093 103.085 108.504 103.735C108.088 103.593 107.633 103.486 107.197 103.769C106.752 104.058 106.545 104.653 106.715 105.153C106.928 105.784 107.645 105.988 108.237 106.208C107.937 106.237 107.669 106.339 107.464 106.547C107.115 106.901 107.041 107.479 107.292 107.89C107.561 108.33 108.154 108.543 108.686 108.754C108.205 108.872 107.712 109.295 107.762 109.817C107.826 110.482 108.659 111.058 109.17 111.265C109.531 111.411 109.917 111.617 110.316 111.736C108.449 120.296 106.425 126.526 99.6931 131.778C96.6233 134.177 93.5215 136.093 89.6209 135.922L89.6214 135.921Z" fill="black"/>
<path d="M68.4185 87.2055C69.2261 87.0819 69.8401 86.7213 69.7905 86.4008C69.7409 86.0797 69.0459 85.9202 68.2383 86.0438C67.4307 86.1674 66.8168 86.528 66.8663 86.8485C66.9159 87.1696 67.6109 87.3291 68.4185 87.2055Z" fill="black"/>
<path d="M73.5491 87.3763C74.208 87.5133 74.7961 87.3687 74.8622 87.0537C74.9288 86.7383 74.4481 86.3721 73.7897 86.2352C73.1309 86.0982 72.5427 86.2428 72.4766 86.5578C72.41 86.8727 72.8907 87.2394 73.5491 87.3763Z" fill="black"/>
<path d="M60.0276 88.8058C60.4707 89.0258 61.0304 89.5351 60.9994 89.8162C60.987 89.9285 60.8765 90.0429 60.7113 90.1152C60.5388 90.1901 60.3333 90.2173 60.134 90.2434C60.0235 90.2583 59.9874 90.3983 60.0757 90.464C60.2739 90.6127 60.4526 90.7794 60.606 90.9594C60.6752 91.041 60.6705 91.062 60.67 91.0625C60.6659 91.0723 60.6287 91.0984 60.5683 91.103C60.403 91.1159 60.3018 91.0128 60.213 91.0902C60.182 91.1174 60.1655 91.1569 60.1707 91.1979C60.1402 91.2246 60.1247 91.2646 60.1299 91.3051C60.1634 91.5821 60.3881 91.7519 60.6354 91.916C60.7717 92.0057 60.9101 91.8011 60.7733 91.7108C60.5987 91.5954 60.4392 91.479 60.3901 91.3344C60.7986 91.4169 61.0919 91.1487 60.796 90.8004C60.6896 90.6758 60.5729 90.5573 60.4464 90.4465C60.813 90.3783 61.207 90.205 61.2473 89.8434C61.2984 89.3787 60.5874 88.8073 60.1397 88.5852C59.992 88.5124 59.8815 88.7329 60.0287 88.8058H60.0276Z" fill="black"/>
<path d="M72.6284 92.4515C73.1902 92.3069 73.3415 91.5781 72.884 91.2242C72.7544 91.1236 72.6016 91.3185 72.7312 91.4191C73.026 91.6473 72.9284 92.1192 72.5659 92.213C72.4059 92.2541 72.4704 92.4936 72.6284 92.452V92.4515Z" fill="black"/>
<path d="M68.7357 93.3301C68.6928 93.1721 68.4532 93.2373 68.4961 93.3947C68.7677 94.3908 69.631 94.9447 69.7699 94.9447C69.898 94.9447 69.9424 94.7744 69.8298 94.7134C69.3021 94.4246 68.8932 93.9076 68.7357 93.3301Z" fill="black"/>
<path d="M69.2463 89.2135C69.5612 89.2135 69.8164 88.96 69.8164 88.6473C69.8164 88.3346 69.5612 88.0811 69.2463 88.0811C68.9315 88.0811 68.6763 88.3346 68.6763 88.6473C68.6763 88.96 68.9315 89.2135 69.2463 89.2135Z" fill="black"/>
<path d="M73.0994 88.1775C72.7844 88.1775 72.5293 88.4309 72.5293 88.7437C72.5293 89.0566 72.7844 89.31 73.0994 89.31C73.4143 89.31 73.6694 89.0566 73.6694 88.7437C73.6694 88.4309 73.4143 88.1775 73.0994 88.1775Z" fill="black"/>
<path d="M56.9703 70.8998H63.3061C63.9051 71.6055 65.0576 72.9703 65.0824 73.0247C65.1149 73.0247 65.2089 71.6922 65.2564 70.8998H68.3995C70.5956 70.8998 72.3724 69.1251 72.3724 66.9535C72.3724 64.7819 70.6224 63.0001 68.3995 63.0001H56.9703C54.7763 63.0001 53 64.7722 53 66.9535C53 69.1349 54.8006 70.8998 56.9703 70.8998Z" fill="#00D094"/>
<path d="M65.9891 66.8054C65.9891 66.0447 66.6124 65.4257 67.3782 65.4257C68.1439 65.4257 68.7672 66.0447 68.7672 66.8054C68.7672 67.566 68.1439 68.1851 67.3782 68.1851C66.6124 68.1851 65.9891 67.566 65.9891 66.8054Z" fill="#CAFFEC"/>
<path d="M57.2761 66.8449C57.2761 66.0843 57.8994 65.4652 58.6651 65.4652C59.4309 65.4652 60.0542 66.0843 60.0542 66.8449C60.0542 67.6055 59.4309 68.2246 58.6651 68.2246C57.8994 68.2246 57.2761 67.6055 57.2761 66.8449Z" fill="#CAFFEC"/>
<path d="M61.6342 66.8449C61.6342 66.0843 62.2574 65.4652 63.0232 65.4652C63.7889 65.4652 64.4122 66.0843 64.4122 66.8449C64.4122 67.6055 63.7889 68.2246 63.0232 68.2246C62.2574 68.2246 61.6342 67.6055 61.6342 66.8449Z" fill="#CAFFEC"/>
</g>
<defs>
<clipPath id="clip0_1208_1631">
<rect width="136" height="200" fill="white"/>
</clipPath>
</defs>
</svg>
