<svg width="164" height="258" viewBox="0 0 164 258" fill="none" xmlns="http://www.w3.org/2000/svg">
<g clip-path="url(#clip0_1208_1539)">
<path d="M142.818 106.409V174.028C142.818 175.92 141.286 177.453 139.396 177.453H97.4235C95.5333 177.453 94.0012 175.92 94.0012 174.028V106.409C94.0012 103.656 96.2944 101.423 99.1229 101.423H137.698C140.527 101.423 142.82 103.656 142.82 106.409H142.818Z" fill="white"/>
<path d="M139.396 177.745H97.4235C95.3756 177.745 93.7092 176.077 93.7092 174.028V106.409C93.7092 103.498 96.1367 101.13 99.1229 101.13H137.698C140.683 101.13 143.112 103.498 143.112 106.409V174.028C143.112 176.077 141.446 177.745 139.398 177.745H139.396ZM99.121 101.713C96.4579 101.713 94.2913 103.819 94.2913 106.407V174.026C94.2913 175.754 95.6948 177.159 97.4215 177.159H139.394C141.121 177.159 142.524 175.754 142.524 174.026V106.407C142.524 103.817 140.358 101.713 137.694 101.713H99.1191H99.121Z" fill="#292929"/>
<path d="M137.163 121.946H99.6583C98.7473 121.946 98.0037 121.203 98.0037 120.289V111.775C98.0037 110.863 98.7453 110.119 99.6583 110.119H137.163C138.074 110.119 138.818 110.861 138.818 111.775V120.289C138.818 121.201 138.076 121.946 137.163 121.946ZM99.6564 110.705C99.0665 110.705 98.5857 111.186 98.5857 111.777V120.291C98.5857 120.882 99.0665 121.363 99.6564 121.363H137.161C137.751 121.363 138.232 120.882 138.232 120.291V111.777C138.232 111.186 137.751 110.705 137.161 110.705H99.6564Z" fill="#292929"/>
<path d="M106.509 138.278H99.9892C98.6382 138.278 97.5403 137.179 97.5403 135.826V128.705C97.5403 127.353 98.6382 126.254 99.9892 126.254H106.509C107.86 126.254 108.958 127.353 108.958 128.705V135.826C108.958 137.179 107.86 138.278 106.509 138.278ZM99.9892 126.838C98.9614 126.838 98.1243 127.676 98.1243 128.705V135.826C98.1243 136.855 98.9614 137.693 99.9892 137.693H106.509C107.536 137.693 108.374 136.855 108.374 135.826V128.705C108.374 127.676 107.536 126.838 106.509 126.838H99.9892Z" fill="#292929"/>
<path d="M121.438 138.278H114.918C113.567 138.278 112.469 137.179 112.469 135.826V128.705C112.469 127.353 113.567 126.254 114.918 126.254H121.438C122.789 126.254 123.887 127.353 123.887 128.705V135.826C123.887 137.179 122.789 138.278 121.438 138.278ZM114.918 126.838C113.891 126.838 113.053 127.676 113.053 128.705V135.826C113.053 136.855 113.891 137.693 114.918 137.693H121.438C122.466 137.693 123.303 136.855 123.303 135.826V128.705C123.303 127.676 122.466 126.838 121.438 126.838H114.918Z" fill="#292929"/>
<path d="M136.367 138.278H129.847C128.496 138.278 127.399 137.179 127.399 135.826V128.705C127.399 127.353 128.496 126.254 129.847 126.254H136.367C137.718 126.254 138.816 127.353 138.816 128.705V135.826C138.816 137.179 137.718 138.278 136.367 138.278ZM129.847 126.838C128.82 126.838 127.983 127.676 127.983 128.705V135.826C127.983 136.855 128.82 137.693 129.847 137.693H136.367C137.395 137.693 138.232 136.855 138.232 135.826V128.705C138.232 127.676 137.395 126.838 136.367 126.838H129.847Z" fill="#292929"/>
<path d="M106.509 152.427H99.9892C98.6382 152.427 97.5403 151.328 97.5403 149.976V142.854C97.5403 141.502 98.6382 140.403 99.9892 140.403H106.509C107.86 140.403 108.958 141.502 108.958 142.854V149.976C108.958 151.328 107.86 152.427 106.509 152.427ZM99.9892 140.988C98.9614 140.988 98.1243 141.826 98.1243 142.854V149.976C98.1243 151.005 98.9614 151.843 99.9892 151.843H106.509C107.536 151.843 108.374 151.005 108.374 149.976V142.854C108.374 141.826 107.536 140.988 106.509 140.988H99.9892Z" fill="#292929"/>
<path d="M121.438 152.427H114.918C113.567 152.427 112.469 151.328 112.469 149.976V142.854C112.469 141.502 113.567 140.403 114.918 140.403H121.438C122.789 140.403 123.887 141.502 123.887 142.854V149.976C123.887 151.328 122.789 152.427 121.438 152.427ZM114.918 140.988C113.891 140.988 113.053 141.826 113.053 142.854V149.976C113.053 151.005 113.891 151.843 114.918 151.843H121.438C122.466 151.843 123.303 151.005 123.303 149.976V142.854C123.303 141.826 122.466 140.988 121.438 140.988H114.918Z" fill="#292929"/>
<path d="M136.367 152.427H129.847C128.496 152.427 127.399 151.328 127.399 149.976V142.854C127.399 141.502 128.496 140.403 129.847 140.403H136.367C137.718 140.403 138.816 141.502 138.816 142.854V149.976C138.816 151.328 137.718 152.427 136.367 152.427ZM129.847 140.988C128.82 140.988 127.983 141.826 127.983 142.854V149.976C127.983 151.005 128.82 151.843 129.847 151.843H136.367C137.395 151.843 138.232 151.005 138.232 149.976V142.854C138.232 141.826 137.395 140.988 136.367 140.988H129.847Z" fill="#292929"/>
<path d="M106.509 166.575H99.9892C98.6382 166.575 97.5403 165.476 97.5403 164.124V157.002C97.5403 155.65 98.6382 154.551 99.9892 154.551H106.509C107.86 154.551 108.958 155.65 108.958 157.002V164.124C108.958 165.476 107.86 166.575 106.509 166.575ZM99.9892 155.138C98.9614 155.138 98.1243 155.975 98.1243 157.004V164.126C98.1243 165.154 98.9614 165.992 99.9892 165.992H106.509C107.536 165.992 108.374 165.154 108.374 164.126V157.004C108.374 155.975 107.536 155.138 106.509 155.138H99.9892Z" fill="#292929"/>
<path d="M121.438 166.575H114.918C113.567 166.575 112.469 165.476 112.469 164.124V157.002C112.469 155.65 113.567 154.551 114.918 154.551H121.438C122.789 154.551 123.887 155.65 123.887 157.002V164.124C123.887 165.476 122.789 166.575 121.438 166.575ZM114.918 155.138C113.891 155.138 113.053 155.975 113.053 157.004V164.126C113.053 165.154 113.891 165.992 114.918 165.992H121.438C122.466 165.992 123.303 165.154 123.303 164.126V157.004C123.303 155.975 122.466 155.138 121.438 155.138H114.918Z" fill="#292929"/>
<path d="M136.131 173.619H130.085C128.604 173.619 127.399 172.412 127.399 170.93V157.24C127.399 155.757 128.604 154.551 130.085 154.551H136.131C137.613 154.551 138.818 155.757 138.818 157.24V170.93C138.818 172.412 137.613 173.619 136.131 173.619ZM130.085 155.138C128.927 155.138 127.983 156.081 127.983 157.242V170.932C127.983 172.091 128.925 173.036 130.085 173.036H136.131C137.29 173.036 138.234 172.093 138.234 170.932V157.242C138.234 156.083 137.292 155.138 136.131 155.138H130.085Z" fill="#292929"/>
<path d="M116.18 118.676L116.885 117.663C117.523 118.15 118.173 118.47 118.911 118.47C119.801 118.47 120.227 118.058 120.227 117.363C120.227 115.656 116.519 115.892 116.519 113.468C116.519 112.067 117.57 111.145 119.156 111.145C120.281 111.145 121.008 111.59 121.605 112.19L120.799 113.053C120.297 112.609 119.879 112.359 119.226 112.359C118.481 112.359 118.035 112.731 118.035 113.394C118.035 114.945 121.743 114.635 121.743 117.258C121.743 118.69 120.706 119.684 118.909 119.684C117.992 119.684 116.888 119.29 116.178 118.674L116.18 118.676ZM118.545 109.877H119.627V111.64H118.545V109.877ZM118.545 119.105H119.627V120.952H118.545V119.105Z" fill="#00D094"/>
<path d="M123.458 118.676L124.163 117.663C124.802 118.15 125.452 118.47 126.19 118.47C127.079 118.47 127.506 118.058 127.506 117.363C127.506 115.656 123.797 115.892 123.797 113.468C123.797 112.067 124.848 111.145 126.435 111.145C127.56 111.145 128.286 111.59 128.884 112.19L128.078 113.053C127.576 112.609 127.157 112.359 126.505 112.359C125.759 112.359 125.314 112.731 125.314 113.394C125.314 114.945 129.022 114.635 129.022 117.258C129.022 118.69 127.985 119.684 126.188 119.684C125.271 119.684 124.167 119.29 123.457 118.674L123.458 118.676ZM125.824 109.877H126.906V111.64H125.824V109.877ZM125.824 119.105H126.906V120.952H125.824V119.105Z" fill="#00D094"/>
<path d="M130.735 118.676L131.44 117.663C132.078 118.15 132.728 118.47 133.466 118.47C134.356 118.47 134.782 118.058 134.782 117.363C134.782 115.656 131.074 115.892 131.074 113.468C131.074 112.067 132.125 111.145 133.712 111.145C134.837 111.145 135.563 111.59 136.16 112.19L135.355 113.053C134.852 112.609 134.434 112.359 133.782 112.359C133.036 112.359 132.59 112.731 132.59 113.394C132.59 114.945 136.299 114.635 136.299 117.258C136.299 118.69 135.261 119.684 133.464 119.684C132.547 119.684 131.444 119.29 130.733 118.674L130.735 118.676ZM133.1 109.877H134.183V111.64H133.1V109.877ZM133.1 119.105H134.183V120.952H133.1V119.105Z" fill="#00D094"/>
<path d="M104.196 168.65C104.116 168.65 104.036 168.65 103.957 168.648C99.8763 168.615 95.9947 169.544 92.5315 171.222C84.0537 175.333 78.0949 183.934 77.9042 193.904C77.6219 208.447 88.7744 220.179 103.182 220.553C103.25 220.557 103.32 220.557 103.388 220.559C105.798 220.603 108.142 220.313 110.373 219.729C121.321 216.878 129.555 207.013 129.748 195.252C129.99 180.641 118.714 168.907 104.196 168.652V168.65Z" fill="#00D094"/>
<path d="M103.859 216.878C103.723 216.878 103.587 216.878 103.451 216.874H103.427C103.373 216.874 103.318 216.872 103.266 216.868C90.8672 216.547 81.3401 206.502 81.5815 194.003C81.6613 189.87 82.9092 185.851 85.1926 182.383C87.4118 179.01 90.5031 176.298 94.1337 174.538C97.1627 173.071 100.398 172.329 103.752 172.329C103.815 172.329 103.877 172.329 103.939 172.329H104.144V172.331C110.169 172.436 115.748 174.848 119.855 179.125C123.963 183.4 126.168 189.093 126.069 195.155C125.907 205.018 119.069 213.655 109.442 216.161C107.628 216.636 105.751 216.876 103.857 216.876L103.859 216.878ZM103.75 172.913C100.486 172.913 97.336 173.636 94.3868 175.064C87.003 178.645 82.3193 185.907 82.1636 194.015C81.928 206.189 91.2059 215.972 103.287 216.286C103.342 216.288 103.388 216.29 103.435 216.29H103.46C105.44 216.327 107.402 216.093 109.296 215.596C118.672 213.154 125.329 204.745 125.487 195.145C125.689 182.893 116.31 173.127 104.134 172.915H103.933C103.873 172.911 103.813 172.911 103.752 172.911L103.75 172.913Z" fill="white"/>
<path d="M110.149 194.888C114.741 197.81 114.404 203.853 109.579 206.391C108.714 206.845 107.759 207.237 106.801 207.379C105.86 207.52 105.605 207.905 105.662 208.761C105.703 209.38 105.639 210.008 105.621 210.692C104.036 210.651 102.59 210.614 101.167 210.575C101.111 210.446 101.039 210.366 101.054 210.306C101.609 207.888 100.449 206.75 98.2042 206.224C97.3905 206.033 96.6644 205.431 95.9285 204.967C95.4633 204.675 95.0545 204.297 94.6573 203.983C95.8292 202.845 96.9583 201.748 97.8888 200.84C99.6584 201.573 101.284 202.383 102.999 202.894C103.803 203.134 104.831 202.954 105.666 202.684C107.702 202.019 108.113 199.837 106.335 198.678C104.8 197.676 102.977 197.119 101.321 196.289C99.7343 195.492 98.029 194.812 96.6741 193.709C92.7905 190.547 93.721 184.686 98.3307 182.716C99.1561 182.363 100.098 182.293 100.945 181.979C101.28 181.855 101.687 181.459 101.739 181.134C101.872 180.321 101.819 179.481 101.844 178.515C103.435 178.558 104.856 178.593 106.466 178.636C106.443 179.483 106.466 180.306 106.388 181.116C106.316 181.872 106.575 182.162 107.309 182.461C109.123 183.201 110.856 184.14 112.802 185.089C111.549 186.492 110.529 187.634 109.629 188.641C107.877 187.912 106.24 187.162 104.548 186.564C103.953 186.354 103.217 186.449 102.557 186.517C101.438 186.63 100.589 187.199 100.318 188.343C100.046 189.5 100.608 190.414 101.551 190.964C102.666 191.616 103.881 192.105 105.068 192.633C106.762 193.387 108.603 193.902 110.147 194.886L110.149 194.888Z" fill="white"/>
<path d="M119.954 220.753H57.2966V233.011H119.954V220.753Z" fill="#00D094"/>
<path d="M117.108 233.101H50.4521V245.358H117.108V233.101Z" fill="#00D094"/>
<path d="M121.379 245.45H58.7216V257.708H121.379V245.45Z" fill="#00D094"/>
<path d="M142.55 245.45H90.8672V257.708H142.55V245.45Z" fill="#00D094"/>
<path d="M113.092 258C112.931 258 112.8 257.869 112.8 257.708V249.203C112.8 249.041 112.931 248.91 113.092 248.91C113.254 248.91 113.384 249.041 113.384 249.203V257.708C113.384 257.869 113.254 258 113.092 258Z" fill="white"/>
<path d="M117.583 258C117.422 258 117.291 257.869 117.291 257.708V249.203C117.291 249.041 117.422 248.91 117.583 248.91C117.745 248.91 117.875 249.041 117.875 249.203V257.708C117.875 257.869 117.745 258 117.583 258Z" fill="white"/>
<path d="M129.694 258C129.532 258 129.402 257.869 129.402 257.708V249.203C129.402 249.041 129.532 248.91 129.694 248.91C129.855 248.91 129.986 249.041 129.986 249.203V257.708C129.986 257.869 129.855 258 129.694 258Z" fill="white"/>
<path d="M79.8878 258C79.7263 258 79.5958 257.869 79.5958 257.708V249.203C79.5958 249.041 79.7263 248.91 79.8878 248.91C80.0494 248.91 80.1798 249.041 80.1798 249.203V257.708C80.1798 257.869 80.0494 258 79.8878 258Z" fill="white"/>
<path d="M84.3807 258C84.2192 258 84.0887 257.869 84.0887 257.708V249.203C84.0887 249.041 84.2192 248.91 84.3807 248.91C84.5423 248.91 84.6727 249.041 84.6727 249.203V257.708C84.6727 257.869 84.5423 258 84.3807 258Z" fill="white"/>
<path d="M96.4891 258C96.3276 258 96.1971 257.869 96.1971 257.708V249.203C96.1971 249.041 96.3276 248.91 96.4891 248.91C96.6507 248.91 96.7811 249.041 96.7811 249.203V257.708C96.7811 257.869 96.6507 258 96.4891 258Z" fill="white"/>
<path d="M92.5841 233.268C92.4225 233.268 92.2921 233.138 92.2921 232.976V224.471C92.2921 224.309 92.4225 224.179 92.5841 224.179C92.7457 224.179 92.8761 224.309 92.8761 224.471V232.976C92.8761 233.138 92.7457 233.268 92.5841 233.268Z" fill="white"/>
<path d="M97.0751 233.268C96.9135 233.268 96.7831 233.138 96.7831 232.976V224.471C96.7831 224.309 96.9135 224.179 97.0751 224.179C97.2367 224.179 97.3671 224.309 97.3671 224.471V232.976C97.3671 233.138 97.2367 233.268 97.0751 233.268Z" fill="white"/>
<path d="M109.185 233.268C109.024 233.268 108.893 233.138 108.893 232.976V224.471C108.893 224.309 109.024 224.179 109.185 224.179C109.347 224.179 109.477 224.309 109.477 224.471V232.976C109.477 233.138 109.347 233.268 109.185 233.268Z" fill="white"/>
<path d="M72.8565 233.268C72.6949 233.268 72.5645 233.138 72.5645 232.976V224.471C72.5645 224.309 72.6949 224.179 72.8565 224.179C73.018 224.179 73.1485 224.309 73.1485 224.471V232.976C73.1485 233.138 73.018 233.268 72.8565 233.268Z" fill="white"/>
<path d="M77.3496 233.268C77.188 233.268 77.0576 233.138 77.0576 232.976V224.471C77.0576 224.309 77.188 224.179 77.3496 224.179C77.5112 224.179 77.6416 224.309 77.6416 224.471V232.976C77.6416 233.138 77.5112 233.268 77.3496 233.268Z" fill="white"/>
<path d="M89.4578 233.268C89.2962 233.268 89.1658 233.138 89.1658 232.976V224.471C89.1658 224.309 89.2962 224.179 89.4578 224.179C89.6193 224.179 89.7498 224.309 89.7498 224.471V232.976C89.7498 233.138 89.6193 233.268 89.4578 233.268Z" fill="white"/>
<path d="M98.7064 245.39C98.5449 245.39 98.4144 245.259 98.4144 245.097V236.592C98.4144 236.431 98.5449 236.3 98.7064 236.3C98.868 236.3 98.9984 236.431 98.9984 236.592V245.097C98.9984 245.259 98.868 245.39 98.7064 245.39Z" fill="white"/>
<path d="M103.485 245.39C103.324 245.39 103.193 245.259 103.193 245.097V236.592C103.193 236.431 103.324 236.3 103.485 236.3C103.647 236.3 103.777 236.431 103.777 236.592V245.097C103.777 245.259 103.647 245.39 103.485 245.39Z" fill="white"/>
<path d="M89.1482 245.39C88.9866 245.39 88.8562 245.259 88.8562 245.097V236.592C88.8562 236.431 88.9866 236.3 89.1482 236.3C89.3098 236.3 89.4402 236.431 89.4402 236.592V245.097C89.4402 245.259 89.3098 245.39 89.1482 245.39Z" fill="white"/>
<path d="M93.9273 245.39C93.7657 245.39 93.6353 245.259 93.6353 245.097V236.592C93.6353 236.431 93.7657 236.3 93.9273 236.3C94.0888 236.3 94.2193 236.431 94.2193 236.592V245.097C94.2193 245.259 94.0888 245.39 93.9273 245.39Z" fill="white"/>
<path d="M120.178 221.046H55.0269C54.8653 221.046 54.7349 220.915 54.7349 220.753C54.7349 220.592 54.8653 220.461 55.0269 220.461H120.178C120.34 220.461 120.47 220.592 120.47 220.753C120.47 220.915 120.34 221.046 120.178 221.046Z" fill="white"/>
<path d="M120.178 233.393H49.8175C49.6559 233.393 49.5255 233.262 49.5255 233.101C49.5255 232.939 49.6559 232.808 49.8175 232.808H120.178C120.34 232.808 120.47 232.939 120.47 233.101C120.47 233.262 120.34 233.393 120.178 233.393Z" fill="white"/>
<path d="M143.237 245.742H49.8175C49.6559 245.742 49.5255 245.612 49.5255 245.45C49.5255 245.288 49.6559 245.158 49.8175 245.158H143.237C143.398 245.158 143.529 245.288 143.529 245.45C143.529 245.612 143.398 245.742 143.237 245.742Z" fill="white"/>
<path d="M99.0451 0.292297H3.80186C1.86341 0.292297 0.291992 1.86515 0.291992 3.80535V106.602C0.291992 108.542 1.86341 110.115 3.80186 110.115H99.0451C100.984 110.115 102.555 108.542 102.555 106.602V3.80535C102.555 1.86515 100.984 0.292297 99.0451 0.292297Z" fill="white"/>
<path d="M99.0451 110.407H3.80187C1.70529 110.407 0 108.7 0 106.602V3.80532C0 1.70684 1.70529 0 3.80187 0H99.0451C101.142 0 102.847 1.70684 102.847 3.80532V106.602C102.847 108.7 101.142 110.407 99.0451 110.407ZM3.80187 0.584535C2.02844 0.584535 0.584004 2.03028 0.584004 3.80532V106.602C0.584004 108.379 2.02844 109.822 3.80187 109.822H99.0451C100.82 109.822 102.263 108.377 102.263 106.602V3.80532C102.263 2.02834 100.819 0.584535 99.0451 0.584535H3.80187Z" fill="#292929"/>
<path d="M49.1031 32.5644C49.1031 41.7027 41.7018 49.1107 32.5719 49.1107C23.4419 49.1107 16.0621 41.7241 16.0406 32.6034H32.2234V16.024C32.3383 16.0221 32.4551 16.0201 32.5699 16.0201C41.6998 16.0201 49.1011 23.4281 49.1011 32.5664L49.1031 32.5644Z" fill="#00D094"/>
<path d="M32.5738 49.401C23.3193 49.401 15.772 41.8644 15.7506 32.6034C15.7506 32.5255 15.7818 32.4514 15.8363 32.3969C15.8908 32.3423 15.9647 32.3112 16.0426 32.3112H31.9334V16.0241C31.9334 15.8643 32.0599 15.7357 32.2195 15.7318C32.3363 15.7299 32.4551 15.7279 32.5719 15.7279C41.8478 15.7279 49.3951 23.282 49.3951 32.5664C49.3951 41.8508 41.8478 49.4049 32.5719 49.4049L32.5738 49.401ZM16.3385 32.8937C16.5157 41.7007 23.7378 48.8165 32.5738 48.8165C41.4098 48.8165 48.813 41.5254 48.813 32.5625C48.813 23.5996 41.5285 16.3085 32.5738 16.3085C32.5563 16.3085 32.5368 16.3085 32.5193 16.3085V32.5995C32.5193 32.7612 32.3889 32.8918 32.2273 32.8918H16.3385V32.8937Z" fill="#292929"/>
<path d="M29.134 13.4228V30.0022H12.9513V29.9632C12.9513 20.94 20.1657 13.606 29.134 13.4209V13.4228Z" fill="white"/>
<path d="M29.1341 30.2965H12.9513C12.7897 30.2965 12.6593 30.1659 12.6593 30.0042V29.9652C12.6593 25.5286 14.3685 21.3414 17.4715 18.1752C20.5706 15.0128 24.7093 13.2222 29.1302 13.1306C29.2139 13.1267 29.2839 13.1598 29.3404 13.2144C29.3969 13.269 29.428 13.3449 29.428 13.4229V30.0022C29.428 30.164 29.2976 30.2945 29.136 30.2945L29.1341 30.2965ZM13.2433 29.7119H28.8401V13.7249C20.2961 14.0581 13.3757 21.1446 13.2433 29.7119Z" fill="#292929"/>
<path d="M91.9572 99.0124H57.0182C56.8566 99.0124 56.7262 98.8818 56.7262 98.7201V68.8582C56.7262 68.6965 56.8566 68.5659 57.0182 68.5659C57.1798 68.5659 57.3102 68.6965 57.3102 68.8582V98.4279H91.9572C92.1188 98.4279 92.2492 98.5584 92.2492 98.7201C92.2492 98.8818 92.1188 99.0124 91.9572 99.0124Z" fill="#292929"/>
<path d="M18.3494 55.106H16.1906V57.2668H18.3494V55.106Z" fill="#00D094"/>
<path d="M29.2449 55.2035H19.823V57.3643H29.2449V55.2035Z" fill="#292929"/>
<path d="M21.5887 76.8137H15.5034V78.9746H21.5887V76.8137Z" fill="#292929"/>
<path d="M31.9937 76.8137H23.3563V78.9746H31.9937V76.8137Z" fill="#292929"/>
<path d="M27.0842 81.9225H15.5034V84.0834H27.0842V81.9225Z" fill="#292929"/>
<path d="M39.0581 81.9225H34.3472V84.0834H39.0581V81.9225Z" fill="#292929"/>
<path d="M32.9728 81.9225H28.2618V84.0834H32.9728V81.9225Z" fill="#292929"/>
<path d="M26.8876 87.0294H15.5034V89.1902H26.8876V87.0294Z" fill="#292929"/>
<path d="M36.3095 87.0294H28.6552V89.1902H36.3095V87.0294Z" fill="#292929"/>
<path d="M27.8687 92.1382H15.5034V94.2991H27.8687V92.1382Z" fill="#292929"/>
<path d="M71.4451 22.524H65.3597V24.6849H71.4451V22.524Z" fill="#292929"/>
<path d="M81.8481 22.524H73.2107V24.6849H81.8481V22.524Z" fill="#292929"/>
<path d="M76.9405 27.6329H65.3597V29.7938H76.9405V27.6329Z" fill="#292929"/>
<path d="M88.9146 27.6329H84.2036V29.7938H88.9146V27.6329Z" fill="#292929"/>
<path d="M82.8292 27.6329H78.1183V29.7938H82.8292V27.6329Z" fill="#292929"/>
<path d="M76.7439 32.7398H65.3597V34.9006H76.7439V32.7398Z" fill="#292929"/>
<path d="M86.1659 32.7398H78.5116V34.9006H86.1659V32.7398Z" fill="#292929"/>
<path d="M77.725 37.8486H65.3597V40.0095H77.725V37.8486Z" fill="#292929"/>
<path d="M39.1556 55.106H36.9967V57.2668H39.1556V55.106Z" fill="#00D094"/>
<path d="M47.1058 55.2035H40.6292V57.3643H47.1058V55.2035Z" fill="#292929"/>
<path d="M60.5514 55.106H58.3926V57.2668H60.5514V55.106Z" fill="#00D094"/>
<path d="M73.8006 55.2035H62.0232V57.3643H73.8006V55.2035Z" fill="#292929"/>
<path d="M63.6914 91.5459C63.6116 91.5459 63.5318 91.5128 63.4754 91.4504C63.3664 91.3316 63.3761 91.1465 63.4968 91.0374L71.7468 83.5729C71.8169 83.5105 71.9103 83.4852 72.0038 83.5047C72.0953 83.5241 72.1712 83.5865 72.2101 83.6722L74.4469 88.6934L86.4754 77.0943C86.5922 76.9832 86.7771 76.9851 86.8881 77.1021C87.001 77.219 86.9971 77.4041 86.8803 77.5151L74.552 89.4026C74.4838 89.4689 74.3865 89.4961 74.2931 89.4786C74.1996 89.4611 74.1218 89.3968 74.0828 89.311L71.8403 84.2762L63.8881 91.4719C63.8316 91.5225 63.7615 91.5479 63.6914 91.5479V91.5459Z" fill="#00D094"/>
<path d="M84.301 75.5375L89.6018 73.9651L87.8343 79.4656L84.301 75.5375Z" fill="#00D094"/>
<path d="M72.4087 128.927H14.5359C13.6823 128.927 12.9902 129.62 12.9902 130.474V168.229C12.9902 169.084 13.6823 169.776 14.5359 169.776H72.4087C73.2624 169.776 73.9544 169.084 73.9544 168.229V130.474C73.9544 129.62 73.2624 128.927 72.4087 128.927Z" fill="white"/>
<path d="M72.4107 170.066H14.5359C13.5236 170.066 12.6982 169.242 12.6982 168.227V130.47C12.6982 129.457 13.5217 128.631 14.5359 128.631H72.4107C73.423 128.631 74.2484 129.455 74.2484 130.47V168.227C74.2484 169.24 73.4249 170.066 72.4107 170.066ZM14.5359 129.219C13.8448 129.219 13.2822 129.782 13.2822 130.474V168.231C13.2822 168.923 13.8448 169.486 14.5359 169.486H72.4107C73.1018 169.486 73.6644 168.923 73.6644 168.231V130.474C73.6644 129.782 73.1018 129.219 72.4107 129.219H14.5359Z" fill="#292929"/>
<path d="M64.0302 136.175H58.8442V151.453H64.0302V136.175Z" fill="#E9FFF8"/>
<path d="M64.0302 148.877H58.8442V164.726H64.0302V148.877Z" fill="#00D094"/>
<path d="M55.0483 143.168H49.8623V154.9H55.0483V143.168Z" fill="#E9FFF8"/>
<path d="M55.0483 152.994H49.8623V164.726H55.0483V152.994Z" fill="#00D094"/>
<path d="M46.0643 148.877H40.8783V157.503H46.0643V148.877Z" fill="#E9FFF8"/>
<path d="M46.0643 156.1H40.8783V164.726H46.0643V156.1Z" fill="#00D094"/>
<path d="M37.0823 147.878H31.8964V157.047H37.0823V147.878Z" fill="#E9FFF8"/>
<path d="M37.0823 155.556H31.8964V164.726H37.0823V155.556Z" fill="#00D094"/>
<path d="M28.1004 154.015H22.9144V159.845H28.1004V154.015Z" fill="#E9FFF8"/>
<path d="M28.1004 158.896H22.9144V164.726H28.1004V158.896Z" fill="#00D094"/>
<path d="M68.4024 199.359H41.764V180.407H42.348V198.775H68.4024V199.359Z" fill="#292929"/>
<path d="M163.708 258H26.0154C25.8538 258 25.7234 257.869 25.7234 257.708C25.7234 257.546 25.8538 257.415 26.0154 257.415H163.708C163.87 257.415 164 257.546 164 257.708C164 257.869 163.87 258 163.708 258Z" fill="#292929"/>
</g>
<defs>
<clipPath id="clip0_1208_1539">
<rect width="164" height="258" fill="white"/>
</clipPath>
</defs>
</svg>
