<svg width="108" height="141" viewBox="0 0 108 141" fill="none" xmlns="http://www.w3.org/2000/svg">
<path d="M68.4 61.4777H64.8V65.0931H68.4V61.4777Z" fill="#D9D9D9"/>
<path d="M68.4 57.8624H64.8V61.4777H68.4V57.8624Z" fill="#D9D9D9"/>
<path d="M68.4 43.4008H64.8V47.0162H68.4V43.4008Z" fill="#D9D9D9"/>
<path d="M68.4 39.7854H64.8V43.4008H68.4V39.7854Z" fill="#D9D9D9"/>
<path d="M64.8 65.0931H61.2V68.7085H64.8V65.0931Z" fill="#D9D9D9"/>
<path d="M64.8 61.4777H61.2V65.0931H64.8V61.4777Z" fill="#D9D9D9"/>
<path d="M64.8 57.8624H61.2V61.4777H64.8V57.8624Z" fill="#D9D9D9"/>
<path d="M64.8 54.247H61.2V57.8624H64.8V54.247Z" fill="#D9D9D9"/>
<path d="M64.8 47.0162H61.2V50.6316H64.8V47.0162Z" fill="#D9D9D9"/>
<path d="M64.8 43.4008H61.2V47.0162H64.8V43.4008Z" fill="#D9D9D9"/>
<path d="M64.8 39.7854H61.2V43.4008H64.8V39.7854Z" fill="#D9D9D9"/>
<path d="M64.8 36.1701H61.2V39.7854H64.8V36.1701Z" fill="#D9D9D9"/>
<path d="M57.6 75.9393H54V79.5547H57.6V75.9393Z" fill="#D9D9D9"/>
<path d="M57.6 72.3239H54V75.9393H57.6V72.3239Z" fill="#D9D9D9"/>
<path d="M61.2 68.7085H57.6V72.3239H61.2V68.7085Z" fill="#D9D9D9"/>
<path d="M61.2 65.0931H57.6V68.7085H61.2V65.0931Z" fill="#D9D9D9"/>
<path d="M61.2 54.247H57.6V57.8624H61.2V54.247Z" fill="#D9D9D9"/>
<path d="M61.2 50.6316H57.6V54.247H61.2V50.6316Z" fill="#D9D9D9"/>
<path d="M61.2 47.0162H57.6V50.6316H61.2V47.0162Z" fill="#D9D9D9"/>
<path d="M61.2 36.1701H57.6V39.7854H61.2V36.1701Z" fill="#D9D9D9"/>
<path d="M61.2 32.5547H57.6V36.1701H61.2V32.5547Z" fill="#D9D9D9"/>
<path d="M57.6 28.9393H54V32.5547H57.6V28.9393Z" fill="#D9D9D9"/>
<path d="M57.6 25.3239H54V28.9393H57.6V25.3239Z" fill="#D9D9D9"/>
<path d="M57.6 68.7085H54V72.3239H57.6V68.7085Z" fill="#D9D9D9"/>
<path d="M57.6 50.6316H54V54.247H57.6V50.6316Z" fill="#D9D9D9"/>
<path d="M57.6 32.5547H54V36.1701H57.6V32.5547Z" fill="#D9D9D9"/>
<path d="M50.4 75.9393H46.8V79.5547H50.4V75.9393Z" fill="#D9D9D9"/>
<path d="M50.4 72.3239H46.8V75.9393H50.4V72.3239Z" fill="#D9D9D9"/>
<path d="M54 68.7085H50.4V72.3239H54V68.7085Z" fill="#D9D9D9"/>
<path d="M54 50.6316H50.4V54.247H54V50.6316Z" fill="#D9D9D9"/>
<path d="M54 32.5547H50.4V36.1701H54V32.5547Z" fill="#D9D9D9"/>
<path d="M50.4 28.9393H46.8V32.5547H50.4V28.9393Z" fill="#D9D9D9"/>
<path d="M50.4 25.3239H46.8V28.9393H50.4V25.3239Z" fill="#D9D9D9"/>
<path d="M50.4 68.7085H46.8V72.3239H50.4V68.7085Z" fill="#D9D9D9"/>
<path d="M50.4 65.0931H46.8V68.7085H50.4V65.0931Z" fill="#D9D9D9"/>
<path d="M50.4 54.247H46.8V57.8624H50.4V54.247Z" fill="#D9D9D9"/>
<path d="M50.4 50.6316H46.8V54.247H50.4V50.6316Z" fill="#D9D9D9"/>
<path d="M50.4 47.0162H46.8V50.6316H50.4V47.0162Z" fill="#D9D9D9"/>
<path d="M50.4 36.1701H46.8V39.7854H50.4V36.1701Z" fill="#D9D9D9"/>
<path d="M50.4 32.5547H46.8V36.1701H50.4V32.5547Z" fill="#D9D9D9"/>
<path d="M46.8 68.7085H43.2V72.3239H46.8V68.7085Z" fill="#D9D9D9"/>
<path d="M46.8 65.0931H43.2V68.7085H46.8V65.0931Z" fill="#D9D9D9"/>
<path d="M46.8 61.4777H43.2V65.0931H46.8V61.4777Z" fill="#D9D9D9"/>
<path d="M46.8 57.8624H43.2V61.4777H46.8V57.8624Z" fill="#D9D9D9"/>
<path d="M46.8 54.247H43.2V57.8624H46.8V54.247Z" fill="#D9D9D9"/>
<path d="M46.8 50.6316H43.2V54.247H46.8V50.6316Z" fill="#D9D9D9"/>
<path d="M46.8 47.0162H43.2V50.6316H46.8V47.0162Z" fill="#D9D9D9"/>
<path d="M46.8 43.4008H43.2V47.0162H46.8V43.4008Z" fill="#D9D9D9"/>
<path d="M46.8 39.7854H43.2V43.4008H46.8V39.7854Z" fill="#D9D9D9"/>
<path d="M46.8 36.1701H43.2V39.7854H46.8V36.1701Z" fill="#D9D9D9"/>
<path d="M46.8 32.5547H43.2V36.1701H46.8V32.5547Z" fill="#D9D9D9"/>
<path d="M43.2 68.7085H39.6V72.3239H43.2V68.7085Z" fill="#D9D9D9"/>
<path d="M43.2 32.5547H39.6V36.1701H43.2V32.5547Z" fill="#D9D9D9"/>
<path d="M32.4 133.769H28.8V137.385H32.4V133.769Z" fill="#D9D9D9"/>
<path d="M28.8 133.769H25.2V137.385H28.8V133.769Z" fill="#D9D9D9"/>
<path d="M36 133.769H32.4V137.385H36V133.769Z" fill="#D9D9D9"/>
<path d="M79.2 133.769H75.6V137.385H79.2V133.769Z" fill="#D9D9D9"/>
<path d="M75.6 133.769H72V137.385H75.6V133.769Z" fill="#D9D9D9"/>
<path d="M57.6 137.385H54V141H57.6V137.385Z" fill="#D9D9D9"/>
<path d="M54 137.385H50.4V141H54V137.385Z" fill="#D9D9D9"/>
<path d="M39.6 133.769H36V137.385H39.6V133.769Z" fill="#D9D9D9"/>
<path d="M46.8 137.385H43.2V141H46.8V137.385Z" fill="#D9D9D9"/>
<path d="M64.8 137.385H61.2V141H64.8V137.385Z" fill="#D9D9D9"/>
<path d="M72 133.769H68.4V137.385H72V133.769Z" fill="#D9D9D9"/>
<path d="M61.2 137.385H57.6V141H61.2V137.385Z" fill="#D9D9D9"/>
<path d="M50.4 137.385H46.8V141H50.4V137.385Z" fill="#D9D9D9"/>
<path d="M104.4 119.308H100.8V122.923H104.4V119.308Z" fill="#D9D9D9"/>
<path d="M108 115.692H104.4V119.308H108V115.692Z" fill="#D9D9D9"/>
<path d="M108 112.077H104.4V115.692H108V112.077Z" fill="#D9D9D9"/>
<path d="M108 108.462H104.4V112.077H108V108.462Z" fill="#D9D9D9"/>
<path d="M108 104.846H104.4V108.462H108V104.846Z" fill="#D9D9D9"/>
<path d="M108 101.231H104.4V104.846H108V101.231Z" fill="#D9D9D9"/>
<path d="M108 57.8462H104.4V61.4615H108V57.8462Z" fill="#D9D9D9"/>
<path d="M108 54.2308H104.4V57.8462H108V54.2308Z" fill="#D9D9D9"/>
<path d="M108 50.6154H104.4V54.2308H108V50.6154Z" fill="#D9D9D9"/>
<path d="M108 47H104.4V50.6154H108V47Z" fill="#D9D9D9"/>
<path d="M104.4 122.923H100.8V126.538H104.4V122.923Z" fill="#D9D9D9"/>
<path d="M104.4 108.462H100.8V112.077H104.4V108.462Z" fill="#D9D9D9"/>
<path d="M104.4 97.6154H100.8V101.231H104.4V97.6154Z" fill="#D9D9D9"/>
<path d="M104.4 68.6923H100.8V72.3077H104.4V68.6923Z" fill="#D9D9D9"/>
<path d="M104.4 65.0769H100.8V68.6923H104.4V65.0769Z" fill="#D9D9D9"/>
<path d="M104.4 61.4615H100.8V65.0769H104.4V61.4615Z" fill="#D9D9D9"/>
<path d="M104.4 43.3846H100.8V47H104.4V43.3846Z" fill="#D9D9D9"/>
<path d="M104.4 39.7692H100.8V43.3846H104.4V39.7692Z" fill="#D9D9D9"/>
<path d="M104.4 36.1538H100.8V39.7692H104.4V36.1538Z" fill="#D9D9D9"/>
<path d="M100.8 126.538H97.2V130.154H100.8V126.538Z" fill="#D9D9D9"/>
<path d="M100.8 112.077H97.2V115.692H100.8V112.077Z" fill="#D9D9D9"/>
<path d="M100.8 97.6154H97.2V101.231H100.8V97.6154Z" fill="#D9D9D9"/>
<path d="M100.8 75.9231H97.2V79.5385H100.8V75.9231Z" fill="#D9D9D9"/>
<path d="M100.8 72.3077H97.2V75.9231H100.8V72.3077Z" fill="#D9D9D9"/>
<path d="M100.8 54.2308H97.2V57.8462H100.8V54.2308Z" fill="#D9D9D9"/>
<path d="M100.8 50.6154H97.2V54.2308H100.8V50.6154Z" fill="#D9D9D9"/>
<path d="M100.8 32.5385H97.2V36.1538H100.8V32.5385Z" fill="#D9D9D9"/>
<path d="M100.8 28.9231H97.2V32.5385H100.8V28.9231Z" fill="#D9D9D9"/>
<path d="M97.2 126.538H93.6V130.154H97.2V126.538Z" fill="#D9D9D9"/>
<path d="M97.2 115.692H93.6V119.308H97.2V115.692Z" fill="#D9D9D9"/>
<path d="M97.2 94H93.6V97.6154H97.2V94Z" fill="#D9D9D9"/>
<path d="M97.2 83.1538H93.6V86.7692H97.2V83.1538Z" fill="#D9D9D9"/>
<path d="M97.2 79.5385H93.6V83.1538H97.2V79.5385Z" fill="#D9D9D9"/>
<path d="M97.2 65.0769H93.6V68.6923H97.2V65.0769Z" fill="#D9D9D9"/>
<path d="M97.2 61.4615H93.6V65.0769H97.2V61.4615Z" fill="#D9D9D9"/>
<path d="M97.2 57.8462H93.6V61.4615H97.2V57.8462Z" fill="#D9D9D9"/>
<path d="M97.2 47H93.6V50.6154H97.2V47Z" fill="#D9D9D9"/>
<path d="M97.2 43.3846H93.6V47H97.2V43.3846Z" fill="#D9D9D9"/>
<path d="M97.2 39.7692H93.6V43.3846H97.2V39.7692Z" fill="#D9D9D9"/>
<path d="M97.2 25.3077H93.6V28.9231H97.2V25.3077Z" fill="#D9D9D9"/>
<path d="M97.2 21.6923H93.6V25.3077H97.2V21.6923Z" fill="#D9D9D9"/>
<path d="M93.6 126.538H90V130.154H93.6V126.538Z" fill="#D9D9D9"/>
<path d="M93.6 122.923H90V126.538H93.6V122.923Z" fill="#D9D9D9"/>
<path d="M93.6 119.308H90V122.923H93.6V119.308Z" fill="#D9D9D9"/>
<path d="M93.6 115.692H90V119.308H93.6V115.692Z" fill="#D9D9D9"/>
<path d="M93.6 94H90V97.6154H93.6V94Z" fill="#D9D9D9"/>
<path d="M93.6 86.7692H90V90.3846H93.6V86.7692Z" fill="#D9D9D9"/>
<path d="M93.6 72.3077H90V75.9231H93.6V72.3077Z" fill="#D9D9D9"/>
<path d="M93.6 68.6923H90V72.3077H93.6V68.6923Z" fill="#D9D9D9"/>
<path d="M93.6 36.1538H90V39.7692H93.6V36.1538Z" fill="#D9D9D9"/>
<path d="M93.6 32.5385H90V36.1538H93.6V32.5385Z" fill="#D9D9D9"/>
<path d="M93.6 18.0769H90V21.6923H93.6V18.0769Z" fill="#D9D9D9"/>
<path d="M90 130.154H86.4V133.769H90V130.154Z" fill="#D9D9D9"/>
<path d="M90 115.692H86.4V119.308H90V115.692Z" fill="#D9D9D9"/>
<path d="M90 104.846H86.4V108.462H90V104.846Z" fill="#D9D9D9"/>
<path d="M90 90.3846H86.4V94H90V90.3846Z" fill="#D9D9D9"/>
<path d="M90 79.5385H86.4V83.1538H90V79.5385Z" fill="#D9D9D9"/>
<path d="M90 75.9231H86.4V79.5385H90V75.9231Z" fill="#D9D9D9"/>
<path d="M90 28.9231H86.4V32.5385H90V28.9231Z" fill="#D9D9D9"/>
<path d="M90 25.3077H86.4V28.9231H90V25.3077Z" fill="#D9D9D9"/>
<path d="M90 14.4615H86.4V18.0769H90V14.4615Z" fill="#D9D9D9"/>
<path d="M86.4 130.154H82.8V133.769H86.4V130.154Z" fill="#D9D9D9"/>
<path d="M86.4 119.308H82.8V122.923H86.4V119.308Z" fill="#D9D9D9"/>
<path d="M86.4 104.846H82.8V108.462H86.4V104.846Z" fill="#D9D9D9"/>
<path d="M86.4 101.231H82.8V104.846H86.4V101.231Z" fill="#D9D9D9"/>
<path d="M86.4 94H82.8V97.6154H86.4V94Z" fill="#D9D9D9"/>
<path d="M86.4 90.3846H82.8V94H86.4V90.3846Z" fill="#D9D9D9"/>
<path d="M86.4 83.1538H82.8V86.7692H86.4V83.1538Z" fill="#D9D9D9"/>
<path d="M86.4 21.6923H82.8V25.3077H86.4V21.6923Z" fill="#D9D9D9"/>
<path d="M86.4 14.4615H82.8V18.0769H86.4V14.4615Z" fill="#D9D9D9"/>
<path d="M86.4 10.8462H82.8V14.4615H86.4V10.8462Z" fill="#D9D9D9"/>
<path d="M82.8 130.154H79.2V133.769H82.8V130.154Z" fill="#D9D9D9"/>
<path d="M82.8 126.538H79.2V130.154H82.8V126.538Z" fill="#D9D9D9"/>
<path d="M82.8 122.923H79.2V126.538H82.8V122.923Z" fill="#D9D9D9"/>
<path d="M82.8 119.308H79.2V122.923H82.8V119.308Z" fill="#D9D9D9"/>
<path d="M82.8 108.462H79.2V112.077H82.8V108.462Z" fill="#D9D9D9"/>
<path d="M82.8 101.231H79.2V104.846H82.8V101.231Z" fill="#D9D9D9"/>
<path d="M82.8 94H79.2V97.6154H82.8V94Z" fill="#D9D9D9"/>
<path d="M82.8 83.1538H79.2V86.7692H82.8V83.1538Z" fill="#D9D9D9"/>
<path d="M82.8 21.6923H79.2V25.3077H82.8V21.6923Z" fill="#D9D9D9"/>
<path d="M82.8 10.8462H79.2V14.4615H82.8V10.8462Z" fill="#D9D9D9"/>
<path d="M79.2 119.308H75.6V122.923H79.2V119.308Z" fill="#D9D9D9"/>
<path d="M79.2 108.462H75.6V112.077H79.2V108.462Z" fill="#D9D9D9"/>
<path d="M79.2 97.6154H75.6V101.231H79.2V97.6154Z" fill="#D9D9D9"/>
<path d="M79.2 86.7692H75.6V90.3846H79.2V86.7692Z" fill="#D9D9D9"/>
<path d="M79.2 18.0769H75.6V21.6923H79.2V18.0769Z" fill="#D9D9D9"/>
<path d="M79.2 7.23077H75.6V10.8462H79.2V7.23077Z" fill="#D9D9D9"/>
<path d="M75.6 119.308H72V122.923H75.6V119.308Z" fill="#D9D9D9"/>
<path d="M75.6 108.462H72V112.077H75.6V108.462Z" fill="#D9D9D9"/>
<path d="M75.6 97.6154H72V101.231H75.6V97.6154Z" fill="#D9D9D9"/>
<path d="M75.6 90.3846H72V94H75.6V90.3846Z" fill="#D9D9D9"/>
<path d="M75.6 14.4615H72V18.0769H75.6V14.4615Z" fill="#D9D9D9"/>
<path d="M75.6 7.23077H72V10.8462H75.6V7.23077Z" fill="#D9D9D9"/>
<path d="M72 122.923H68.4V126.538H72V122.923Z" fill="#D9D9D9"/>
<path d="M72 112.077H68.4V115.692H72V112.077Z" fill="#D9D9D9"/>
<path d="M72 101.231H68.4V104.846H72V101.231Z" fill="#D9D9D9"/>
<path d="M72 90.3846H68.4V94H72V90.3846Z" fill="#D9D9D9"/>
<path d="M72 14.4615H68.4V18.0769H72V14.4615Z" fill="#D9D9D9"/>
<path d="M72 3.61538H68.4V7.23077H72V3.61538Z" fill="#D9D9D9"/>
<path d="M68.4 133.769H64.8V137.385H68.4V133.769Z" fill="#D9D9D9"/>
<path d="M68.4 130.154H64.8V133.769H68.4V130.154Z" fill="#D9D9D9"/>
<path d="M68.4 126.538H64.8V130.154H68.4V126.538Z" fill="#D9D9D9"/>
<path d="M68.4 122.923H64.8V126.538H68.4V122.923Z" fill="#D9D9D9"/>
<path d="M68.4 112.077H64.8V115.692H68.4V112.077Z" fill="#D9D9D9"/>
<path d="M68.4 101.231H64.8V104.846H68.4V101.231Z" fill="#D9D9D9"/>
<path d="M68.4 94H64.8V97.6154H68.4V94Z" fill="#D9D9D9"/>
<path d="M68.4 10.8462H64.8V14.4615H68.4V10.8462Z" fill="#D9D9D9"/>
<path d="M68.4 3.61538H64.8V7.23077H68.4V3.61538Z" fill="#D9D9D9"/>
<path d="M64.8 133.769H61.2V137.385H64.8V133.769Z" fill="#D9D9D9"/>
<path d="M64.8 122.923H61.2V126.538H64.8V122.923Z" fill="#D9D9D9"/>
<path d="M64.8 115.692H61.2V119.308H64.8V115.692Z" fill="#D9D9D9"/>
<path d="M64.8 101.231H61.2V104.846H64.8V101.231Z" fill="#D9D9D9"/>
<path d="M64.8 94H61.2V97.6154H64.8V94Z" fill="#D9D9D9"/>
<path d="M64.8 10.8462H61.2V14.4615H64.8V10.8462Z" fill="#D9D9D9"/>
<path d="M64.8 3.61538H61.2V7.23077H64.8V3.61538Z" fill="#D9D9D9"/>
<path d="M61.2 122.923H57.6V126.538H61.2V122.923Z" fill="#D9D9D9"/>
<path d="M61.2 115.692H57.6V119.308H61.2V115.692Z" fill="#D9D9D9"/>
<path d="M61.2 104.846H57.6V108.462H61.2V104.846Z" fill="#D9D9D9"/>
<path d="M61.2 101.231H57.6V104.846H61.2V101.231Z" fill="#D9D9D9"/>
<path d="M61.2 94H57.6V97.6154H61.2V94Z" fill="#D9D9D9"/>
<path d="M61.2 10.8462H57.6V14.4615H61.2V10.8462Z" fill="#D9D9D9"/>
<path d="M61.2 3.61538H57.6V7.23077H61.2V3.61538Z" fill="#D9D9D9"/>
<path d="M61.2 0H57.6V3.61538H61.2V0Z" fill="#D9D9D9"/>
<path d="M57.6 122.923H54V126.538H57.6V122.923Z" fill="#D9D9D9"/>
<path d="M57.6 115.692H54V119.308H57.6V115.692Z" fill="#D9D9D9"/>
<path d="M57.6 104.846H54V108.462H57.6V104.846Z" fill="#D9D9D9"/>
<path d="M57.6 97.6154H54V101.231H57.6V97.6154Z" fill="#D9D9D9"/>
<path d="M57.6 7.23077H54V10.8462H57.6V7.23077Z" fill="#D9D9D9"/>
<path d="M57.6 0H54V3.61538H57.6V0Z" fill="#D9D9D9"/>
<path d="M54 122.923H50.4V126.538H54V122.923Z" fill="#D9D9D9"/>
<path d="M54 115.692H50.4V119.308H54V115.692Z" fill="#D9D9D9"/>
<path d="M54 104.846H50.4V108.462H54V104.846Z" fill="#D9D9D9"/>
<path d="M54 97.6154H50.4V101.231H54V97.6154Z" fill="#D9D9D9"/>
<path d="M54 7.23077H50.4V10.8462H54V7.23077Z" fill="#D9D9D9"/>
<path d="M54 0H50.4V3.61538H54V0Z" fill="#D9D9D9"/>
<path d="M50.4 122.923H46.8V126.538H50.4V122.923Z" fill="#D9D9D9"/>
<path d="M50.4 115.692H46.8V119.308H50.4V115.692Z" fill="#D9D9D9"/>
<path d="M50.4 104.846H46.8V108.462H50.4V104.846Z" fill="#D9D9D9"/>
<path d="M50.4 101.231H46.8V104.846H50.4V101.231Z" fill="#D9D9D9"/>
<path d="M50.4 94H46.8V97.6154H50.4V94Z" fill="#D9D9D9"/>
<path d="M50.4 10.8462H46.8V14.4615H50.4V10.8462Z" fill="#D9D9D9"/>
<path d="M50.4 3.61538H46.8V7.23077H50.4V3.61538Z" fill="#D9D9D9"/>
<path d="M50.4 0H46.8V3.61538H50.4V0Z" fill="#D9D9D9"/>
<path d="M46.8 133.769H43.2V137.385H46.8V133.769Z" fill="#D9D9D9"/>
<path d="M46.8 122.923H43.2V126.538H46.8V122.923Z" fill="#D9D9D9"/>
<path d="M46.8 115.692H43.2V119.308H46.8V115.692Z" fill="#D9D9D9"/>
<path d="M46.8 101.231H43.2V104.846H46.8V101.231Z" fill="#D9D9D9"/>
<path d="M46.8 94H43.2V97.6154H46.8V94Z" fill="#D9D9D9"/>
<path d="M46.8 10.8462H43.2V14.4615H46.8V10.8462Z" fill="#D9D9D9"/>
<path d="M46.8 3.61538H43.2V7.23077H46.8V3.61538Z" fill="#D9D9D9"/>
<path d="M43.2 133.769H39.6V137.385H43.2V133.769Z" fill="#D9D9D9"/>
<path d="M43.2 130.154H39.6V133.769H43.2V130.154Z" fill="#D9D9D9"/>
<path d="M43.2 126.538H39.6V130.154H43.2V126.538Z" fill="#D9D9D9"/>
<path d="M43.2 122.923H39.6V126.538H43.2V122.923Z" fill="#D9D9D9"/>
<path d="M43.2 112.077H39.6V115.692H43.2V112.077Z" fill="#D9D9D9"/>
<path d="M43.2 101.231H39.6V104.846H43.2V101.231Z" fill="#D9D9D9"/>
<path d="M43.2 94H39.6V97.6154H43.2V94Z" fill="#D9D9D9"/>
<path d="M43.2 10.8462H39.6V14.4615H43.2V10.8462Z" fill="#D9D9D9"/>
<path d="M43.2 3.61538H39.6V7.23077H43.2V3.61538Z" fill="#D9D9D9"/>
<path d="M39.6 122.923H36V126.538H39.6V122.923Z" fill="#D9D9D9"/>
<path d="M39.6 112.077H36V115.692H39.6V112.077Z" fill="#D9D9D9"/>
<path d="M39.6 101.231H36V104.846H39.6V101.231Z" fill="#D9D9D9"/>
<path d="M39.6 90.3846H36V94H39.6V90.3846Z" fill="#D9D9D9"/>
<path d="M39.6 14.4615H36V18.0769H39.6V14.4615Z" fill="#D9D9D9"/>
<path d="M39.6 3.61538H36V7.23077H39.6V3.61538Z" fill="#D9D9D9"/>
<path d="M36 119.308H32.4V122.923H36V119.308Z" fill="#D9D9D9"/>
<path d="M36 108.462H32.4V112.077H36V108.462Z" fill="#D9D9D9"/>
<path d="M36 97.6154H32.4V101.231H36V97.6154Z" fill="#D9D9D9"/>
<path d="M36 90.3846H32.4V94H36V90.3846Z" fill="#D9D9D9"/>
<path d="M36 14.4615H32.4V18.0769H36V14.4615Z" fill="#D9D9D9"/>
<path d="M36 7.23077H32.4V10.8462H36V7.23077Z" fill="#D9D9D9"/>
<path d="M32.4 119.308H28.8V122.923H32.4V119.308Z" fill="#D9D9D9"/>
<path d="M32.4 108.462H28.8V112.077H32.4V108.462Z" fill="#D9D9D9"/>
<path d="M32.4 97.6154H28.8V101.231H32.4V97.6154Z" fill="#D9D9D9"/>
<path d="M32.4 86.7692H28.8V90.3846H32.4V86.7692Z" fill="#D9D9D9"/>
<path d="M32.4 18.0769H28.8V21.6923H32.4V18.0769Z" fill="#D9D9D9"/>
<path d="M32.4 7.23077H28.8V10.8462H32.4V7.23077Z" fill="#D9D9D9"/>
<path d="M28.8 130.154H25.2V133.769H28.8V130.154Z" fill="#D9D9D9"/>
<path d="M28.8 126.538H25.2V130.154H28.8V126.538Z" fill="#D9D9D9"/>
<path d="M28.8 122.923H25.2V126.538H28.8V122.923Z" fill="#D9D9D9"/>
<path d="M28.8 119.308H25.2V122.923H28.8V119.308Z" fill="#D9D9D9"/>
<path d="M28.8 108.462H25.2V112.077H28.8V108.462Z" fill="#D9D9D9"/>
<path d="M28.8 101.231H25.2V104.846H28.8V101.231Z" fill="#D9D9D9"/>
<path d="M28.8 94H25.2V97.6154H28.8V94Z" fill="#D9D9D9"/>
<path d="M28.8 83.1538H25.2V86.7692H28.8V83.1538Z" fill="#D9D9D9"/>
<path d="M28.8 21.6923H25.2V25.3077H28.8V21.6923Z" fill="#D9D9D9"/>
<path d="M28.8 10.8462H25.2V14.4615H28.8V10.8462Z" fill="#D9D9D9"/>
<path d="M25.2 130.154H21.6V133.769H25.2V130.154Z" fill="#D9D9D9"/>
<path d="M25.2 119.308H21.6V122.923H25.2V119.308Z" fill="#D9D9D9"/>
<path d="M25.2 104.846H21.6V108.462H25.2V104.846Z" fill="#D9D9D9"/>
<path d="M25.2 101.231H21.6V104.846H25.2V101.231Z" fill="#D9D9D9"/>
<path d="M25.2 94H21.6V97.6154H25.2V94Z" fill="#D9D9D9"/>
<path d="M25.2 90.3846H21.6V94H25.2V90.3846Z" fill="#D9D9D9"/>
<path d="M25.2 83.1538H21.6V86.7692H25.2V83.1538Z" fill="#D9D9D9"/>
<path d="M25.2 21.6923H21.6V25.3077H25.2V21.6923Z" fill="#D9D9D9"/>
<path d="M25.2 14.4615H21.6V18.0769H25.2V14.4615Z" fill="#D9D9D9"/>
<path d="M25.2 10.8462H21.6V14.4615H25.2V10.8462Z" fill="#D9D9D9"/>
<path d="M21.6 130.154H18V133.769H21.6V130.154Z" fill="#D9D9D9"/>
<path d="M21.6 115.692H18V119.308H21.6V115.692Z" fill="#D9D9D9"/>
<path d="M21.6 104.846H18V108.462H21.6V104.846Z" fill="#D9D9D9"/>
<path d="M21.6 90.3846H18V94H21.6V90.3846Z" fill="#D9D9D9"/>
<path d="M21.6 79.5385H18V83.1538H21.6V79.5385Z" fill="#D9D9D9"/>
<path d="M21.6 75.9231H18V79.5385H21.6V75.9231Z" fill="#D9D9D9"/>
<path d="M21.6 28.9231H18V32.5385H21.6V28.9231Z" fill="#D9D9D9"/>
<path d="M21.6 25.3077H18V28.9231H21.6V25.3077Z" fill="#D9D9D9"/>
<path d="M21.6 14.4615H18V18.0769H21.6V14.4615Z" fill="#D9D9D9"/>
<path d="M18 126.538H14.4V130.154H18V126.538Z" fill="#D9D9D9"/>
<path d="M18 122.923H14.4V126.538H18V122.923Z" fill="#D9D9D9"/>
<path d="M18 119.308H14.4V122.923H18V119.308Z" fill="#D9D9D9"/>
<path d="M18 115.692H14.4V119.308H18V115.692Z" fill="#D9D9D9"/>
<path d="M18 94H14.4V97.6154H18V94Z" fill="#D9D9D9"/>
<path d="M18 86.7692H14.4V90.3846H18V86.7692Z" fill="#D9D9D9"/>
<path d="M18 72.3077H14.4V75.9231H18V72.3077Z" fill="#D9D9D9"/>
<path d="M18 68.6923H14.4V72.3077H18V68.6923Z" fill="#D9D9D9"/>
<path d="M18 36.1538H14.4V39.7692H18V36.1538Z" fill="#D9D9D9"/>
<path d="M18 32.5385H14.4V36.1538H18V32.5385Z" fill="#D9D9D9"/>
<path d="M18 18.0769H14.4V21.6923H18V18.0769Z" fill="#D9D9D9"/>
<path d="M14.4 126.538H10.8V130.154H14.4V126.538Z" fill="#D9D9D9"/>
<path d="M14.4 115.692H10.8V119.308H14.4V115.692Z" fill="#D9D9D9"/>
<path d="M14.4 94H10.8V97.6154H14.4V94Z" fill="#D9D9D9"/>
<path d="M14.4 83.1538H10.8V86.7692H14.4V83.1538Z" fill="#D9D9D9"/>
<path d="M14.4 79.5385H10.8V83.1538H14.4V79.5385Z" fill="#D9D9D9"/>
<path d="M14.4 65.0769H10.8V68.6923H14.4V65.0769Z" fill="#D9D9D9"/>
<path d="M14.4 61.4615H10.8V65.0769H14.4V61.4615Z" fill="#D9D9D9"/>
<path d="M14.4 57.8462H10.8V61.4615H14.4V57.8462Z" fill="#D9D9D9"/>
<path d="M14.4 47H10.8V50.6154H14.4V47Z" fill="#D9D9D9"/>
<path d="M14.4 43.3846H10.8V47H14.4V43.3846Z" fill="#D9D9D9"/>
<path d="M14.4 39.7692H10.8V43.3846H14.4V39.7692Z" fill="#D9D9D9"/>
<path d="M14.4 25.3077H10.8V28.9231H14.4V25.3077Z" fill="#D9D9D9"/>
<path d="M14.4 21.6923H10.8V25.3077H14.4V21.6923Z" fill="#D9D9D9"/>
<path d="M10.8 126.538H7.2V130.154H10.8V126.538Z" fill="#D9D9D9"/>
<path d="M10.8 112.077H7.2V115.692H10.8V112.077Z" fill="#D9D9D9"/>
<path d="M10.8 97.6154H7.2V101.231H10.8V97.6154Z" fill="#D9D9D9"/>
<path d="M10.8 75.9231H7.2V79.5385H10.8V75.9231Z" fill="#D9D9D9"/>
<path d="M10.8 72.3077H7.2V75.9231H10.8V72.3077Z" fill="#D9D9D9"/>
<path d="M10.8 54.2308H7.2V57.8462H10.8V54.2308Z" fill="#D9D9D9"/>
<path d="M10.8 50.6154H7.2V54.2308H10.8V50.6154Z" fill="#D9D9D9"/>
<path d="M10.8 32.5385H7.2V36.1538H10.8V32.5385Z" fill="#D9D9D9"/>
<path d="M10.8 28.9231H7.2V32.5385H10.8V28.9231Z" fill="#D9D9D9"/>
<path d="M7.2 122.923H3.6V126.538H7.2V122.923Z" fill="#D9D9D9"/>
<path d="M7.2 108.462H3.6V112.077H7.2V108.462Z" fill="#D9D9D9"/>
<path d="M7.2 97.6154H3.6V101.231H7.2V97.6154Z" fill="#D9D9D9"/>
<path d="M7.2 68.6923H3.6V72.3077H7.2V68.6923Z" fill="#D9D9D9"/>
<path d="M7.2 65.0769H3.6V68.6923H7.2V65.0769Z" fill="#D9D9D9"/>
<path d="M7.2 61.4615H3.6V65.0769H7.2V61.4615Z" fill="#D9D9D9"/>
<path d="M7.2 43.3846H3.6V47H7.2V43.3846Z" fill="#D9D9D9"/>
<path d="M7.2 39.7692H3.6V43.3846H7.2V39.7692Z" fill="#D9D9D9"/>
<path d="M7.2 36.1538H3.6V39.7692H7.2V36.1538Z" fill="#D9D9D9"/>
<path d="M7.2 119.308H3.6V122.923H7.2V119.308Z" fill="#D9D9D9"/>
<path d="M3.6 115.692H0V119.308H3.6V115.692Z" fill="#D9D9D9"/>
<path d="M3.6 112.077H0V115.692H3.6V112.077Z" fill="#D9D9D9"/>
<path d="M3.6 108.462H0V112.077H3.6V108.462Z" fill="#D9D9D9"/>
<path d="M3.6 104.846H0V108.462H3.6V104.846Z" fill="#D9D9D9"/>
<path d="M3.6 101.231H0V104.846H3.6V101.231Z" fill="#D9D9D9"/>
<path d="M3.6 57.8462H0V61.4615H3.6V57.8462Z" fill="#D9D9D9"/>
<path d="M3.6 54.2308H0V57.8462H3.6V54.2308Z" fill="#D9D9D9"/>
<path d="M3.6 50.6154H0V54.2308H3.6V50.6154Z" fill="#D9D9D9"/>
<path d="M3.6 47H0V50.6154H3.6V47Z" fill="#D9D9D9"/>
</svg>
