<svg width="36" height="33" viewBox="0 0 36 33" fill="none" xmlns="http://www.w3.org/2000/svg">
<path d="M17.5277 0.358693C17.6834 -0.0890875 18.3166 -0.0890861 18.4723 0.358694L22.3529 11.5228C22.4216 11.7204 22.6059 11.8543 22.815 11.8586L34.6319 12.0994C35.1059 12.109 35.3016 12.7113 34.9238 12.9977L25.5053 20.1383C25.3386 20.2647 25.2682 20.4814 25.3288 20.6816L28.7514 31.9945C28.8887 32.4483 28.3763 32.8205 27.9872 32.5497L18.2856 25.7987C18.1139 25.6793 17.8861 25.6793 17.7144 25.7987L8.01278 32.5497C7.62366 32.8205 7.11134 32.4483 7.24862 31.9945L10.6712 20.6816C10.7318 20.4814 10.6614 20.2647 10.4947 20.1383L1.07618 12.9977C0.69841 12.7113 0.894101 12.109 1.36806 12.0994L13.185 11.8586C13.3941 11.8543 13.5784 11.7204 13.6471 11.5228L17.5277 0.358693Z" fill="#FFCA57"/>
</svg>
